<?xml version="1.0" encoding="UTF-8" standalone="no"?>
<!-- Created with Inkscape (http://www.inkscape.org/) -->

<svg
   version="1.1"
   id="svg743"
   width="558.2934"
   height="668.36395"
   viewBox="0 0 558.29342 668.36398"
   sodipodi:docname="mono_logo_scc.svg"
   xmlns:inkscape="http://www.inkscape.org/namespaces/inkscape"
   xmlns:sodipodi="http://sodipodi.sourceforge.net/DTD/sodipodi-0.dtd"
   xmlns="http://www.w3.org/2000/svg"
   xmlns:svg="http://www.w3.org/2000/svg">
  <defs
     id="defs747">
    <clipPath
       clipPathUnits="userSpaceOnUse"
       id="clipPath759">
      <path
         d="M 0,1000 H 1000 V 0 H 0 Z"
         id="path757" />
    </clipPath>
  </defs>
  <sodipodi:namedview
     id="namedview745"
     pagecolor="#505050"
     bordercolor="#ffffff"
     borderopacity="1"
     inkscape:showpageshadow="0"
     inkscape:pageopacity="0"
     inkscape:pagecheckerboard="1"
     inkscape:deskcolor="#505050"
     showgrid="false" />
  <g
     id="g751"
     inkscape:groupmode="layer"
     inkscape:label="Page 1"
     transform="matrix(1.3333333,0,0,-1.3333333,-387.51967,945.07422)">
    <g
       id="g753"
       style="fill:#ffffff">
      <g
         id="g755"
         clip-path="url(#clipPath759)"
         style="fill:#ffffff">
        <g
           id="g761"
           transform="translate(598.4463,548.2787)"
           style="fill:#ffffff">
          <path
             d="m 0,0 -0.399,0.1 c -0.4,0.1 -40.038,8.896 -97.848,8.496 -57.81,-0.3 -97.348,-9.596 -97.747,-9.696 l -0.4,-0.099 -28.255,63.571 0.299,0.2 c 0.2,0.199 5.891,5.097 11.682,5.097 9.984,0 12.38,-10.095 12.38,-13.593 0,-2.899 -0.199,-4.898 -1.697,-6.797 l -0.399,-0.5 c -2.197,-2.899 -2.995,-3.799 -2.995,-6.097 0,-2.2 1.497,-5.198 4.692,-5.198 3.095,0.1 3.794,1.399 4.992,5.198 1.099,3.698 4.393,7.496 8.886,7.496 4.494,0 9.585,-4.298 9.585,-10.595 0.1,-6.697 -4.692,-10.695 -9.385,-10.695 -2.696,0 -3.794,0.799 -4.792,1.399 -0.599,0.4 -0.999,0.7 -1.698,0.7 -0.798,0 -1.297,-0.5 -1.697,-1 -0.899,-1.199 -1.198,-3.098 -0.899,-4.898 0.899,-5.097 9.086,-12.693 18.571,-12.594 13.779,0.1 21.167,14.194 21.067,24.289 v 2.599 l 1.099,-2.799 c 5.392,-14.093 16.175,-16.992 24.262,-16.992 19.869,0.1 26.259,18.791 26.159,27.787 0,3.799 -0.998,7.297 -2.396,7.997 -0.499,0.3 -1.098,0.1 -1.697,-0.5 l -0.799,-0.799 c -2.796,-2.799 -7.388,-7.597 -13.978,-7.597 -7.289,-0.1 -15.077,5.697 -15.176,16.592 0,11.095 7.488,16.992 14.976,16.992 6.19,0 9.785,-3.797 12.181,-6.397 1.198,-1.299 2.097,-2.298 2.796,-2.298 1.198,0 2.296,0.5 3.095,1.499 0.699,0.9 0.998,2.099 0.898,3.399 -0.099,0.899 -0.898,1.899 -1.996,3.098 -2.097,2.399 -4.993,5.698 -4.993,11.994 0,7.197 5.192,14.994 12.88,15.494 7.788,0.1 13.18,-7.697 13.18,-14.894 0,-6.397 -2.796,-9.695 -4.893,-12.094 -1.098,-1.3 -1.896,-2.199 -1.997,-3.199 -0.1,-1.299 0.2,-2.499 0.899,-3.398 0.699,-1 1.897,-1.499 3.095,-1.499 0.699,0 1.598,0.999 2.796,2.298 2.296,2.599 5.891,6.497 12.081,6.497 7.488,0.101 15.076,-5.697 15.176,-16.792 0.1,-10.795 -7.688,-16.793 -14.977,-16.793 -6.689,0 -11.282,4.599 -14.078,7.397 l -0.798,0.8 c -0.599,0.6 -1.198,0.8 -1.698,0.5 -1.298,-0.7 -2.296,-4.198 -2.296,-7.997 0,-8.995 6.59,-27.587 26.459,-27.487 7.987,0 18.771,3.099 23.962,17.292 l 1.099,2.799 v -2.599 c 0,-10.096 7.488,-24.089 21.367,-23.989 9.585,0.099 17.672,7.696 18.471,12.794 0.299,1.799 0,3.598 -0.899,4.798 -0.3,0.5 -0.898,0.999 -1.697,0.999 -0.699,0 -1.099,-0.3 -1.697,-0.7 -0.9,-0.699 -2.097,-1.499 -4.694,-1.499 -4.692,0 -9.585,3.898 -9.585,10.596 -0.099,6.296 4.893,10.694 9.386,10.694 4.493,0 7.788,-3.698 8.986,-7.396 1.199,-3.798 1.897,-5.098 4.993,-5.098 3.194,0 4.592,2.999 4.592,5.198 0,2.299 -0.799,3.198 -3.095,6.097 l -0.4,0.5 c -1.497,1.799 -1.797,3.798 -1.797,6.697 0,3.499 2.197,13.594 12.181,13.694 5.891,0.1 11.582,-4.698 11.782,-4.898 l 0.299,-0.2 z m 6.095,-108.651 c -0.6,-0.2 -1.298,-0.2 -1.898,0 -2.396,0.6 -4.892,-1.499 -7.188,-2.999 -1.898,-1.299 -4.293,-0.999 -5.991,0.7 -4.393,4.398 -12.281,10.396 -12.58,4.098 l 0.598,13.194 c 0,0 0.3,-0.399 0.3,-0.2 1.198,1 3.595,1.6 5.791,0.3 2.796,-1.699 7.189,-6.497 12.681,-7.097 5.491,-0.599 13.179,3.399 14.078,4.899 7.387,11.794 3.295,22.989 -4.394,26.887 -5.691,2.899 -10.982,1.9 -15.676,0 -4.692,-1.999 -6.29,-12.194 -11.981,-10.995 -0.1,0.1 -0.399,0.3 -0.399,0.3 0,-0.5 0.399,21.59 0.399,21.59 0,0 0.5,-4.898 10.384,0.3 1.299,1 2.796,1.799 4.294,2.499 0.898,0.599 1.797,0.8 2.695,0.899 2.596,0.7 5.392,0.901 8.287,0.301 10.085,-2.1 17.872,-12.595 18.671,-25.19 0.898,-14.493 -7.188,-26.887 -18.071,-29.486 m -35.645,59.173 -0.099,-9.795 c 0,0 -0.5,-39.083 -2.297,-59.174 -0.2,-1.999 -1.598,-3.698 -3.595,-4.298 -10.084,-3.198 -12.081,-19.59 -12.081,-23.689 v -0.999 H -157.85 l -0.2,2.099 c -0.2,3.998 -4.293,16.992 -12.68,21.19 -1.797,0.899 -3.195,2.399 -4.193,4.099 -1.098,13.494 -1.098,44.679 -1.098,61.872 v 8.796 c 0,0 18.271,-0.101 73.385,-0.101 z m -68.197,32.086 h -0.101 c -58.807,-0.4 -86.864,-8.296 -87.163,-8.396 l -0.4,-0.1 -7.488,17.492 0.599,0.2 c 0.3,0 38.54,8.796 94.453,9.095 55.813,0.4 94.053,-7.896 94.452,-7.996 l 0.599,-0.2 -6.689,-16.492 -0.4,0.1 c -0.399,0.1 -38.139,6.597 -87.862,6.297 m 109.932,-155.63 c -1.497,-1.499 -5.291,-5.497 -8.387,-8.895 -8.986,-9.596 -13.479,-13.294 -21.267,-17.193 -8.587,-4.298 -23.863,-7.396 -40.137,-9.995 l -46.228,-0.601 -46.228,0.101 -5.392,0.8 c -24.861,3.798 -37.242,8.995 -48.125,19.99 -1.497,1.399 -4.692,4.998 -7.189,7.797 -2.496,2.898 -5.591,6.396 -6.988,7.796 -3.096,3.199 -3.695,4.299 -3.695,6.697 0,1.4 0.1,1.9 0.599,2.899 0.699,1.399 1.897,2.699 3.096,3.298 1.697,0.9 2.496,0.9 22.165,0.9 h 17.273 150.366 l 18.271,-0.1 20.369,-0.099 0.998,-0.5 c 1.398,-0.701 3.095,-2.299 3.594,-3.599 0.299,-0.8 0.499,-1.6 0.499,-2.698 0,-2.499 -0.399,-3.299 -3.594,-6.598 M -159.301,59.974 c 4.992,0 9.085,-4.398 9.085,-9.996 0.1,-5.498 -3.893,-10.095 -8.886,-10.095 -4.992,-0.1 -9.085,4.398 -9.085,9.995 -0.101,5.498 3.993,10.096 8.886,10.096 m 121.591,0.527 c 4.992,0 9.086,-4.398 9.086,-9.996 0.1,-5.497 -3.895,-10.095 -8.887,-10.095 -4.992,-0.1 -9.085,4.398 -9.085,9.995 -0.1,5.498 3.993,10.096 8.886,10.096 m 148.338,100.026 h -418.149 c 0,0 -3.194,-111.149 11.782,-184.916 13.579,-67.069 53.218,-193.513 197.293,-316.357 144.075,122.845 183.714,249.188 197.292,316.357 14.976,73.667 11.782,184.916 11.782,184.916"
             style="fill:#ffffff;fill-opacity:1;fill-rule:nonzero;stroke:none"
             id="path763" />
        </g>
      </g>
    </g>
  </g>
</svg>
