<?xml version="1.0" encoding="UTF-8" standalone="no"?>
<svg
   id="expandedicons"
   viewBox="0 0 64 64"
   version="1.1"
   sodipodi:docname="roasterPinIcon.svg"
   xml:space="preserve"
   inkscape:version="1.2 (dc2aeda, 2022-05-15)"
   xmlns:inkscape="http://www.inkscape.org/namespaces/inkscape"
   xmlns:sodipodi="http://sodipodi.sourceforge.net/DTD/sodipodi-0.dtd"
   xmlns="http://www.w3.org/2000/svg"
   xmlns:svg="http://www.w3.org/2000/svg"><defs
     id="defs201" /><sodipodi:namedview
     id="namedview199"
     pagecolor="#505050"
     bordercolor="#ffffff"
     borderopacity="1"
     inkscape:showpageshadow="0"
     inkscape:pageopacity="0"
     inkscape:pagecheckerboard="1"
     inkscape:deskcolor="#505050"
     showgrid="false"
     inkscape:zoom="7.375"
     inkscape:cx="2.1694915"
     inkscape:cy="28.40678"
     inkscape:window-width="1835"
     inkscape:window-height="901"
     inkscape:window-x="0"
     inkscape:window-y="30"
     inkscape:window-maximized="0"
     inkscape:current-layer="g1105" /><g
     id="g1243"
     transform="matrix(1.031302,0,0,0.99877361,-1.001573,-2.6831103)"><g
       id="g1105"
       transform="matrix(1.1809617,0,0,1.1809617,-6.9087035,-5.001405)"
       style="stroke:none;fill:currentColor;fill-opacity:1"><path
         id="path1146"
         d="m 29.669372,23.304621 c -5.745676,3.201357 -3.595118,12.285007 3.278316,12.285007 6.871019,0 9.019066,-9.075687 3.280796,-12.280048 -0.01115,0.0051 -0.02089,0.01255 -0.03224,0.01736 -0.0674,0.02854 -0.139918,0.05191 -0.213264,0.06695 -0.07335,0.01505 -0.147879,0.02227 -0.225664,0.02232 -0.06671,5.9e-5 -0.132995,-0.0055 -0.198385,-0.01736 -0.06539,-0.01179 -0.130936,-0.02872 -0.193425,-0.05208 -0.195595,-0.06906 -0.3932,-0.12923 -0.592677,-0.181026 -0.199477,-0.05179 -0.400344,-0.0969 -0.602595,-0.131431 -0.202251,-0.03453 -0.40612,-0.05961 -0.610035,-0.07688 -0.203915,-0.01727 -0.408044,-0.0248 -0.612514,-0.0248 -0.20447,0 -0.4086,0.0075 -0.612515,0.0248 -0.203915,0.01727 -0.407784,0.04234 -0.610035,0.07688 -0.20225,0.03453 -0.403118,0.07963 -0.602595,0.131431 -0.199477,0.05179 -0.397082,0.111965 -0.592677,0.181026 -0.09197,0.03399 -0.185947,0.05486 -0.277738,0.06447 -0.0918,0.0096 -0.181922,0.0075 -0.270301,-0.005 -0.08837,-0.01251 -0.173687,-0.03704 -0.25542,-0.06944 -0.02045,-0.0081 -0.03713,-0.02297 -0.05703,-0.03224 z m 3.129526,1.115917 c 0.108945,-0.0027 0.218868,-0.0026 0.327337,0.0025 0.108468,0.005 0.217288,0.01462 0.324855,0.02727 0.107567,0.01267 0.213657,0.02951 0.319897,0.0496 0.106237,0.02009 0.210451,0.04457 0.314936,0.07191 0.104486,0.02734 0.210154,0.05734 0.312457,0.09176 0.102305,0.03441 0.202841,0.07277 0.302538,0.114072 0.09969,0.04131 0.198436,0.08588 0.295097,0.13391 0.09666,0.04803 0.189497,0.09918 0.282701,0.153748 0.09319,0.05457 0.185943,0.112655 0.275258,0.173588 0.08932,0.06093 0.175382,0.123822 0.26038,0.190945 0.085,0.06712 0.167719,0.137649 0.247983,0.210784 0.08027,0.07314 0.158006,0.149172 0.233102,0.228144 0.07509,0.07897 0.14872,0.160869 0.218224,0.245502 0.0695,0.08463 0.134901,0.172747 0.198385,0.26286 0.06349,0.09012 0.123987,0.182321 0.181027,0.277739 0.05704,0.09542 0.111021,0.194547 0.161189,0.295098 0.05017,0.100552 0.09848,0.201992 0.141349,0.307498 0.04287,0.105505 0.0814,0.214573 0.11655,0.324855 0.03514,0.110282 0.06476,0.222374 0.09176,0.337255 0.02699,0.114882 0.05102,0.232829 0.06944,0.352135 0.01842,0.119305 0.03275,0.240981 0.04215,0.364532 0.0094,0.123553 0.0149,0.249311 0.01488,0.376932 -9.5e-5,0.07907 -0.0034,0.157505 -0.0074,0.235583 -0.0041,0.07808 -0.0095,0.156105 -0.01736,0.233102 -0.0079,0.077 -0.01809,0.152325 -0.02976,0.228143 -0.01167,0.07582 -0.02435,0.151116 -0.03968,0.225664 -0.01533,0.07455 -0.03318,0.147523 -0.05208,0.220704 -0.0189,0.07318 -0.03963,0.146507 -0.062,0.218223 -0.02236,0.07172 -0.04617,0.143107 -0.07191,0.213265 -0.02574,0.07016 -0.0528,0.139801 -0.08183,0.208304 -0.02903,0.0685 -0.05955,0.136593 -0.09175,0.203345 -0.03221,0.06675 -0.06637,0.131 -0.101679,0.195905 -0.0353,0.06491 -0.0733,0.130462 -0.111591,0.193426 -0.03829,0.06297 -0.07784,0.12258 -0.119031,0.183506 -0.04119,0.06092 -0.08248,0.122234 -0.12647,0.181028 -0.044,0.05879 -0.08969,0.117023 -0.13639,0.173586 -0.0467,0.05656 -0.09452,0.111909 -0.14383,0.166148 -0.04931,0.05424 -0.101918,0.106888 -0.153748,0.158709 -0.05183,0.05181 -0.104461,0.101971 -0.158709,0.151268 -0.05425,0.0493 -0.109576,0.09714 -0.166148,0.14383 -0.05657,0.04669 -0.114787,0.0924 -0.173586,0.136389 -0.05881,0.04399 -0.117614,0.08777 -0.178547,0.128951 -0.06093,0.04118 -0.123017,0.08075 -0.185986,0.119031 -0.06297,0.03828 -0.126035,0.07382 -0.190946,0.109112 -0.06491,0.03529 -0.131628,0.06947 -0.198386,0.101678 -0.06676,0.0322 -0.134837,0.06274 -0.203344,0.09176 -0.06851,0.02902 -0.138144,0.0561 -0.208306,0.08183 -0.07016,0.02573 -0.139064,0.04956 -0.210783,0.07191 -0.07172,0.02235 -0.14504,0.04311 -0.218224,0.062 -0.07318,0.01889 -0.148633,0.03677 -0.223184,0.05208 -0.07455,0.01531 -0.14736,0.02802 -0.223183,0.03968 -0.07582,0.01164 -0.153627,0.02187 -0.230622,0.02976 -0.077,0.0079 -0.155025,0.01332 -0.233104,0.01736 -0.07808,0.0041 -0.156519,0.0074 -0.235583,0.0074 -0.127622,0 -0.253382,-0.0054 -0.376931,-0.01488 -0.123551,-0.0094 -0.245231,-0.02373 -0.364534,-0.04215 -0.119299,-0.01844 -0.234776,-0.03994 -0.349653,-0.06695 -0.114878,-0.02701 -0.229459,-0.05907 -0.339735,-0.09423 -0.110275,-0.03516 -0.21688,-0.07366 -0.322375,-0.116551 -0.1055,-0.04288 -0.209435,-0.09117 -0.309978,-0.14135 -0.100541,-0.05019 -0.197206,-0.10413 -0.292619,-0.161188 -0.09541,-0.05705 -0.190115,-0.117526 -0.280219,-0.181026 -0.09011,-0.0635 -0.17576,-0.128868 -0.26038,-0.198386 -0.08462,-0.06952 -0.166544,-0.143113 -0.245502,-0.218224 -0.07896,-0.07511 -0.155021,-0.152828 -0.228143,-0.233103 -0.07312,-0.08028 -0.143675,-0.162968 -0.210785,-0.247981 -0.06711,-0.08502 -0.130026,-0.171055 -0.190946,-0.26038 -0.06091,-0.08932 -0.119036,-0.182049 -0.173586,-0.27526 -0.05455,-0.09321 -0.10574,-0.188508 -0.153749,-0.285179 -0.04801,-0.09667 -0.09262,-0.192915 -0.133911,-0.292618 -0.04129,-0.09971 -0.07968,-0.202708 -0.11407,-0.305018 -0.03439,-0.102304 -0.06691,-0.205486 -0.09424,-0.309977 -0.02732,-0.104489 -0.04936,-0.208693 -0.06944,-0.314936 -0.02006,-0.106242 -0.03695,-0.214807 -0.04959,-0.322375 -0.01265,-0.107571 -0.02223,-0.213908 -0.02727,-0.322378 -0.005,-0.108468 -0.0052,-0.218391 -0.0025,-0.327335 0.0027,-0.108944 0.0092,-0.218344 0.01984,-0.327336 0.0107,-0.108991 0.02581,-0.216243 0.04464,-0.324856 0.01882,-0.108611 0.0423,-0.217049 0.06944,-0.324855 0.02714,-0.107806 0.05613,-0.215802 0.09176,-0.322377 0.03562,-0.106573 0.07723,-0.212501 0.121511,-0.317416 0.04428,-0.104915 0.09319,-0.209628 0.146308,-0.312457 0.05312,-0.102826 0.108973,-0.204698 0.171108,-0.305017 0.06213,-0.100322 0.129538,-0.197718 0.200865,-0.295099 0.07133,-0.09738 0.147449,-0.193643 0.228143,-0.287658 0.0807,-0.09402 0.165185,-0.187515 0.255421,-0.277739 0.09024,-0.09022 0.183714,-0.174742 0.277739,-0.255421 0.09403,-0.08068 0.190267,-0.156836 0.287659,-0.228142 0.09739,-0.07132 0.19477,-0.138747 0.295098,-0.200867 0.100333,-0.06212 0.20218,-0.118004 0.305017,-0.171106 0.102837,-0.05311 0.207535,-0.102043 0.312457,-0.14631 0.104923,-0.04426 0.210838,-0.08343 0.317417,-0.119031 0.106579,-0.0356 0.214566,-0.06712 0.322376,-0.09423 0.107811,-0.02712 0.216242,-0.05063 0.324856,-0.06944 0.108615,-0.01881 0.215863,-0.03396 0.324856,-0.04464 0.108993,-0.01067 0.218394,-0.01712 0.327335,-0.01983 z"
         style="fill:currentColor;fill-opacity:1;stroke:none;stroke-width:1.26967" /><path
         id="path1143"
         d="M 28.542805,15.686881 C 22.018838,17.64911 17.455762,23.695708 17.495507,30.638738 v 9.107245 c -3.46e-4,0.576388 0.467001,1.043736 1.04339,1.04339 H 47.35439 c 0.576245,0 1.04339,-0.467144 1.04339,-1.04339 v -9.107245 c 0.0127,-4.133985 -1.613057,-8.105921 -4.519998,-11.045259 -1.813904,-1.84226 -4.060289,-3.185164 -6.521187,-3.916787 l -1.175851,1.854462 v 4.770655 c 7.153411,3.388965 4.792408,14.25053 -3.234101,14.254906 -8.027422,-0.0043 -10.390452,-10.869294 -3.2341,-14.256943 v -4.768618 z"
         style="fill:currentColor;fill-opacity:1;stroke:none;stroke-width:1.04339" /><path
         d="M 50.245527,49.491867 H 15.443462 c -0.464855,1.12e-4 -0.893326,-0.204606 -1.119636,-0.534946 l -3.976565,-5.802812 c -0.4770179,-0.695428 0.140866,-1.551727 1.119763,-1.551834 h 42.959117 c 0.990966,2.02e-4 1.607271,0.875667 1.10604,1.571136 l -4.180998,5.802813 c -0.230074,0.319234 -0.650783,0.51544 -1.105656,0.515643 z"
         id="path1140"
         sodipodi:nodetypes="ccccccccc"
         style="fill:currentColor;fill-opacity:1;stroke:none;stroke-width:1.15679" /><path
         d="M 47.10316,59.756395 H 18.789943 c -0.576249,0 -1.04339,-0.492967 -1.04339,-1.101075 v -7.249476 c -3.47e-4,-0.608258 0.466998,-1.101441 1.04339,-1.101075 H 47.10316 c 0.576392,-3.66e-4 1.043737,0.492817 1.04339,1.101075 v 7.249476 c 0,0.608108 -0.467141,1.101075 -1.04339,1.101075 z"
         id="path1137"
         style="fill:currentColor;fill-opacity:1;stroke:none;stroke-width:1.07184"
         sodipodi:nodetypes="sssccccss" /><path
         d="m 34.848206,22.723299 c -0.09033,7.8e-5 -0.179936,-0.01608 -0.26455,-0.04769 -1.059353,-0.374041 -2.214852,-0.374041 -3.274207,0 -0.498136,0.184127 -1.027334,-0.184271 -1.027586,-0.715349 V 17.01698 L 25.007648,8.6942667 c -0.32188,-0.5080349 0.0431,-1.1714069 0.64454,-1.1714221 h 14.58873 c 0.601419,1.52e-5 0.96642,0.6633872 0.64454,1.1714221 L 35.611243,17.01698 v 4.943356 c -2.93e-4,0.421296 -0.341744,0.762748 -0.763037,0.763044 z"
         id="path1134"
         sodipodi:nodetypes="ccccccccccccc"
         style="fill:currentColor;fill-opacity:1;stroke:none;stroke-width:0.763043"
         inkscape:label="path182" /></g></g></svg>
