<?xml version="1.0" encoding="UTF-8" standalone="no"?>
<!-- Created with Inkscape (http://www.inkscape.org/) -->

<svg
   width="100"
   height="100"
   viewBox="0 0 26.458333 26.458333"
   version="1.1"
   id="svg4615"
   inkscape:version="1.2 (dc2aeda, 2022-05-15)"
   sodipodi:docname="specialitycoffeepin.svg"
   xmlns:inkscape="http://www.inkscape.org/namespaces/inkscape"
   xmlns:sodipodi="http://sodipodi.sourceforge.net/DTD/sodipodi-0.dtd"
   xmlns="http://www.w3.org/2000/svg"
   xmlns:svg="http://www.w3.org/2000/svg">
  <sodipodi:namedview
     id="namedview4617"
     pagecolor="#505050"
     bordercolor="#ffffff"
     borderopacity="1"
     inkscape:showpageshadow="0"
     inkscape:pageopacity="0"
     inkscape:pagecheckerboard="1"
     inkscape:deskcolor="#505050"
     inkscape:document-units="px"
     showgrid="false"
     showguides="true"
     inkscape:zoom="4.7572176"
     inkscape:cx="48.137382"
     inkscape:cy="46.455727"
     inkscape:window-width="1309"
     inkscape:window-height="658"
     inkscape:window-x="0"
     inkscape:window-y="30"
     inkscape:window-maximized="0"
     inkscape:current-layer="layer1">
    <sodipodi:guide
       position="19.187949,11.552912"
       orientation="0,-1"
       id="guide7606"
       inkscape:locked="false" />
  </sodipodi:namedview>
  <defs
     id="defs4612" />
  <g
     inkscape:label="Layer 1"
     inkscape:groupmode="layer"
     id="layer1">
    <g
       id="g7610"
       transform="matrix(1.1219162,0,0,1.1072586,-3.8622244,-0.96997869)"
       style="fill:currentColor">
      <path
         id="rect5746"
         style="fill:currentColor;fill-rule:evenodd;stroke-width:0.608542;stroke-linecap:round;stroke-miterlimit:1.8;paint-order:stroke markers fill;stop-color:#000000"
         d="M 4.0215214,20.38674 H 22.44022 c 0.279494,0 0.756248,0.383089 0.504502,0.504502 l -2.116667,1.020833 c -0.251746,0.121413 -0.225008,0.504502 -0.504502,0.504502 H 6.6673547 c -0.2794941,0 -0.2437436,-0.403894 -0.5045021,-0.504502 L 3.5170193,20.891242 C 3.2562608,20.790634 3.7420273,20.38674 4.0215214,20.38674 Z"
         sodipodi:nodetypes="sssssssss" />
      <path
         id="path5750"
         style="fill:currentColor;fill-rule:evenodd;stroke:none;stroke-width:0.608542;stroke-linecap:round;stroke-miterlimit:1.8;paint-order:stroke markers fill;stop-color:#000000"
         d="M 4.1449666,3.2308105 C 4.1177315,6.4853683 5.6318805,16.792223 8.6428832,18.02784 c 3.0454708,1.249762 6.1259558,1.028472 9.1064208,0.03824 1.500054,-0.498379 2.618582,-3.227464 3.373437,-6.274553 2.603008,-0.03891 5.948261,-2.9819811 5.902482,-5.4311928 -0.04875,-2.6083193 -3.345578,-3.0505974 -4.71134,-3.0514933 v -0.00207 H 13.229166 Z M 22.233785,4.9562866 c 0.104324,0.012045 2.476878,0.3026054 2.422074,1.7812866 -0.05367,1.4482333 -0.633014,4.0161228 -3.259232,3.8643638 0.433459,-2.0311028 0.71113,-4.0903729 0.837158,-5.6456504 z" />
    </g>
  </g>
</svg>
