<?xml version="1.0" encoding="UTF-8" standalone="no"?>
<!-- Created with Inkscape (http://www.inkscape.org/) -->

<svg
   version="1.1"
   id="svg2326"
   width="100"
   height="100"
   viewBox="0 0 100 99.999992"
   sodipodi:docname="thirdWaveIcon.svg"
   inkscape:version="1.2 (dc2aeda, 2022-05-15)"
   xmlns:inkscape="http://www.inkscape.org/namespaces/inkscape"
   xmlns:sodipodi="http://sodipodi.sourceforge.net/DTD/sodipodi-0.dtd"
   xmlns="http://www.w3.org/2000/svg"
   xmlns:svg="http://www.w3.org/2000/svg">
  <defs
     id="defs2330" />
  <sodipodi:namedview
     id="namedview2328"
     pagecolor="#505050"
     bordercolor="#ffffff"
     borderopacity="1"
     inkscape:showpageshadow="0"
     inkscape:pageopacity="0"
     inkscape:pagecheckerboard="1"
     inkscape:deskcolor="#505050"
     showgrid="false"
     inkscape:zoom="4.72"
     inkscape:cx="68.008475"
     inkscape:cy="62.5"
     inkscape:window-width="1309"
     inkscape:window-height="884"
     inkscape:window-x="0"
     inkscape:window-y="30"
     inkscape:window-maximized="0"
     inkscape:current-layer="g2332" />
  <g
     inkscape:groupmode="layer"
     inkscape:label="Image"
     id="g2332"
     transform="matrix(0.69481479,0,0,0.69481479,-19.481479,-16.96128)"
     style="stroke:none;stroke-opacity:1;fill:currentColor;fill-opacity:1">
    <path
       id="rect4430"
       style="fill:currentColor;fill-rule:evenodd;stroke-width:2.42509;stroke-linecap:round;stroke-miterlimit:1.8;paint-order:stroke markers fill;stop-color:#000000;stroke:none;stroke-opacity:1;fill-opacity:1"
       d="m 67.477552,121.94745 h 65.044888 c 1.11833,0 2.01863,0.89305 2.01863,2.00235 v 2.22486 c 0,1.1093 -0.9003,2.00236 -2.01863,2.00236 H 67.477552 c -1.118324,0 -2.018636,-0.89306 -2.018636,-2.00236 v -2.22486 c 0,-1.1093 0.900312,-2.00235 2.018636,-2.00235 z" />
    <path
       id="path4486"
       style="fill:currentColor;fill-rule:evenodd;stroke-width:2.8131;stroke-linecap:round;stroke-miterlimit:1.8;paint-order:stroke markers fill;stop-color:#000000;stroke:none;stroke-opacity:1;fill-opacity:1"
       d="m 109.75673,157.74162 c 0,5.34506 -4.36824,9.67807 -9.75673,9.67807 -5.388495,0 -9.756732,-4.33301 -9.756734,-9.67807 2e-6,-5.34505 9.756734,-17.68753 9.756734,-17.68753 0,-0.44497 9.75673,12.34248 9.75673,17.68753 z"
       sodipodi:nodetypes="ssscs" />
    <path
       id="rect4489"
       style="fill:currentColor;fill-rule:evenodd;stroke-width:2.42509;stroke-linecap:round;stroke-miterlimit:1.8;paint-order:stroke markers fill;stop-color:#000000;stroke:none;stroke-opacity:1;fill-opacity:1"
       d="M 44.936134,49.05786 H 155.06386 c 1.11834,0 2.57028,1.037404 2.01864,2.002361 L 121.088,114.02337 c -0.55165,0.96496 -0.90031,2.00237 -2.01863,2.00237 H 80.930631 c -1.118323,0 -1.46699,-1.03741 -2.018634,-2.00237 L 42.917499,51.060221 C 42.365856,50.095264 43.81781,49.05786 44.936134,49.05786 Z"
       sodipodi:nodetypes="sssssssss" />
    <path
       id="rect4491"
       style="fill:currentColor;fill-rule:evenodd;stroke-width:2.42509;stroke-linecap:round;stroke-miterlimit:1.8;paint-order:stroke markers fill;stop-color:#000000;stroke:none;stroke-opacity:1;fill-opacity:1"
       d="m 51.134519,32.816479 c 0,0 24.504278,-8.178538 48.895821,-8.401022 24.39154,-0.222484 48.89581,8.401022 48.89581,8.401022 1.10191,0.189324 2.60034,1.054932 2.01864,2.002361 l -4.23465,6.897024 c -0.5817,0.947428 -0.90031,2.002364 -2.01863,2.002364 H 57.48649 c -1.118324,0 -1.264356,-1.183361 -2.018636,-2.002364 L 49.115885,34.81884 c -0.754279,-0.819003 0.900311,-2.002361 2.018634,-2.002361 z"
       sodipodi:nodetypes="szssssssss" />
  </g>
</svg>
