<?xml version="1.0" encoding="UTF-8" standalone="no"?>
<!-- Uploaded to: SVG Repo, www.svgrepo.com, Transformed by: SVG Repo Mixer Tools -->

<svg
   width="800"
   height="800"
   viewBox="0 0 24 24"
   fill="#000000"
   version="1.1"
   id="svg273622"
   sodipodi:docname="map-pin-user-svgrepo-com.svg"
   inkscape:version="1.2 (dc2aeda, 2022-05-15)"
   xmlns:inkscape="http://www.inkscape.org/namespaces/inkscape"
   xmlns:sodipodi="http://sodipodi.sourceforge.net/DTD/sodipodi-0.dtd"
   xmlns="http://www.w3.org/2000/svg"
   xmlns:svg="http://www.w3.org/2000/svg">
  <defs
     id="defs273626" />
  <sodipodi:namedview
     id="namedview273624"
     pagecolor="#505050"
     bordercolor="#ffffff"
     borderopacity="1"
     inkscape:showpageshadow="0"
     inkscape:pageopacity="0"
     inkscape:pagecheckerboard="1"
     inkscape:deskcolor="#505050"
     showgrid="false"
     inkscape:zoom="0.295"
     inkscape:cx="-32.20339"
     inkscape:cy="401.69492"
     inkscape:window-width="1792"
     inkscape:window-height="1067"
     inkscape:window-x="0"
     inkscape:window-y="25"
     inkscape:window-maximized="1"
     inkscape:current-layer="SVGRepo_iconCarrier" />
  <g
     id="SVGRepo_iconCarrier">
    <path
       fill="none"
       d="M 0,0 H 24 V 24 H 0 Z"
       id="path273615" />
    <path
       d="M 17.084,15.812 C 21.307545,11.349487 18.14366,4.0005596 12,4.0005596 5.8563405,4.0005596 2.6924553,11.349487 6.916,15.812 8.0130576,14.061406 9.9340583,12.998885 12,13 c 2.065942,-0.0011 3.986942,1.061406 5.084,2.812 z M 12,20.899 c -8,-13.9326667 -4,-6.966333 0,0 z m 0,2.829 -6.364,-6.364 C -0.03402455,11.693906 3.9822972,2.0005351 12,2.0005351 c 8.017703,0 12.034025,9.6933709 6.364,15.3634649 z M 12,10 C 4,3.3333333 8,6.6666667 12,10 Z m 0,2 c -3.9999983,0 -3.9999983,-6 0,-6 3.999998,0 3.999998,6 0,6 z"
       id="path273617"
       sodipodi:nodetypes="cscccccccsccccsss" />
  </g>
</svg>
