<?xml version="1.0" encoding="UTF-8" standalone="no"?>
<!-- Created with Inkscape (http://www.inkscape.org/) -->

<svg
   version="1.1"
   id="svg743"
   width="1333.3333"
   height="1333.3333"
   viewBox="0 0 1333.3333 1333.3333"
   sodipodi:docname="SCC LOGOwhite.ai"
   xmlns:inkscape="http://www.inkscape.org/namespaces/inkscape"
   xmlns:sodipodi="http://sodipodi.sourceforge.net/DTD/sodipodi-0.dtd"
   xmlns="http://www.w3.org/2000/svg"
   xmlns:svg="http://www.w3.org/2000/svg">
  <defs
     id="defs747">
    <clipPath
       clipPathUnits="userSpaceOnUse"
       id="clipPath759">
      <path
         d="M 0,1000 H 1000 V 0 H 0 Z"
         id="path757" />
    </clipPath>
    <clipPath
       clipPathUnits="userSpaceOnUse"
       id="clipPath771">
      <path
         d="M 0,1000 H 1000 V 0 H 0 Z"
         id="path769" />
    </clipPath>
  </defs>
  <sodipodi:namedview
     id="namedview745"
     pagecolor="#505050"
     bordercolor="#ffffff"
     borderopacity="1"
     inkscape:showpageshadow="0"
     inkscape:pageopacity="0"
     inkscape:pagecheckerboard="1"
     inkscape:deskcolor="#505050"
     showgrid="false" />
  <g
     id="g751"
     inkscape:groupmode="layer"
     inkscape:label="Page 1"
     transform="matrix(1.3333333,0,0,-1.3333333,0,1333.3333)">
    <g
       id="g753">
      <g
         id="g755"
         clip-path="url(#clipPath759)">
        <g
           id="g761"
           transform="translate(598.4463,548.2787)">
          <path
             d="m 0,0 -0.399,0.1 c -0.4,0.1 -40.038,8.896 -97.848,8.496 -57.81,-0.3 -97.348,-9.596 -97.747,-9.696 l -0.4,-0.099 -28.255,63.571 0.299,0.2 c 0.2,0.199 5.891,5.097 11.682,5.097 9.984,0 12.38,-10.095 12.38,-13.593 0,-2.899 -0.199,-4.898 -1.697,-6.797 l -0.399,-0.5 c -2.197,-2.899 -2.995,-3.799 -2.995,-6.097 0,-2.2 1.497,-5.198 4.692,-5.198 3.095,0.1 3.794,1.399 4.992,5.198 1.099,3.698 4.393,7.496 8.886,7.496 4.494,0 9.585,-4.298 9.585,-10.595 0.1,-6.697 -4.692,-10.695 -9.385,-10.695 -2.696,0 -3.794,0.799 -4.792,1.399 -0.599,0.4 -0.999,0.7 -1.698,0.7 -0.798,0 -1.297,-0.5 -1.697,-1 -0.899,-1.199 -1.198,-3.098 -0.899,-4.898 0.899,-5.097 9.086,-12.693 18.571,-12.594 13.779,0.1 21.167,14.194 21.067,24.289 v 2.599 l 1.099,-2.799 c 5.392,-14.093 16.175,-16.992 24.262,-16.992 19.869,0.1 26.259,18.791 26.159,27.787 0,3.799 -0.998,7.297 -2.396,7.997 -0.499,0.3 -1.098,0.1 -1.697,-0.5 l -0.799,-0.799 c -2.796,-2.799 -7.388,-7.597 -13.978,-7.597 -7.289,-0.1 -15.077,5.697 -15.176,16.592 0,11.095 7.488,16.992 14.976,16.992 6.19,0 9.785,-3.797 12.181,-6.397 1.198,-1.299 2.097,-2.298 2.796,-2.298 1.198,0 2.296,0.5 3.095,1.499 0.699,0.9 0.998,2.099 0.898,3.399 -0.099,0.899 -0.898,1.899 -1.996,3.098 -2.097,2.399 -4.993,5.698 -4.993,11.994 0,7.197 5.192,14.994 12.88,15.494 7.788,0.1 13.18,-7.697 13.18,-14.894 0,-6.397 -2.796,-9.695 -4.893,-12.094 -1.098,-1.3 -1.896,-2.199 -1.997,-3.199 -0.1,-1.299 0.2,-2.499 0.899,-3.398 0.699,-1 1.897,-1.499 3.095,-1.499 0.699,0 1.598,0.999 2.796,2.298 2.296,2.599 5.891,6.497 12.081,6.497 7.488,0.101 15.076,-5.697 15.176,-16.792 0.1,-10.795 -7.688,-16.793 -14.977,-16.793 -6.689,0 -11.282,4.599 -14.078,7.397 l -0.798,0.8 c -0.599,0.6 -1.198,0.8 -1.698,0.5 -1.298,-0.7 -2.296,-4.198 -2.296,-7.997 0,-8.995 6.59,-27.587 26.459,-27.487 7.987,0 18.771,3.099 23.962,17.292 l 1.099,2.799 v -2.599 c 0,-10.096 7.488,-24.089 21.367,-23.989 9.585,0.099 17.672,7.696 18.471,12.794 0.299,1.799 0,3.598 -0.899,4.798 -0.3,0.5 -0.898,0.999 -1.697,0.999 -0.699,0 -1.099,-0.3 -1.697,-0.7 -0.9,-0.699 -2.097,-1.499 -4.694,-1.499 -4.692,0 -9.585,3.898 -9.585,10.596 -0.099,6.296 4.893,10.694 9.386,10.694 4.493,0 7.788,-3.698 8.986,-7.396 1.199,-3.798 1.897,-5.098 4.993,-5.098 3.194,0 4.592,2.999 4.592,5.198 0,2.299 -0.799,3.198 -3.095,6.097 l -0.4,0.5 c -1.497,1.799 -1.797,3.798 -1.797,6.697 0,3.499 2.197,13.594 12.181,13.694 5.891,0.1 11.582,-4.698 11.782,-4.898 l 0.299,-0.2 z m 6.095,-108.651 c -0.6,-0.2 -1.298,-0.2 -1.898,0 -2.396,0.6 -4.892,-1.499 -7.188,-2.999 -1.898,-1.299 -4.293,-0.999 -5.991,0.7 -4.393,4.398 -12.281,10.396 -12.58,4.098 l 0.598,13.194 c 0,0 0.3,-0.399 0.3,-0.2 1.198,1 3.595,1.6 5.791,0.3 2.796,-1.699 7.189,-6.497 12.681,-7.097 5.491,-0.599 13.179,3.399 14.078,4.899 7.387,11.794 3.295,22.989 -4.394,26.887 -5.691,2.899 -10.982,1.9 -15.676,0 -4.692,-1.999 -6.29,-12.194 -11.981,-10.995 -0.1,0.1 -0.399,0.3 -0.399,0.3 0,-0.5 0.399,21.59 0.399,21.59 0,0 0.5,-4.898 10.384,0.3 1.299,1 2.796,1.799 4.294,2.499 0.898,0.599 1.797,0.8 2.695,0.899 2.596,0.7 5.392,0.901 8.287,0.301 10.085,-2.1 17.872,-12.595 18.671,-25.19 0.898,-14.493 -7.188,-26.887 -18.071,-29.486 m -35.645,59.173 -0.099,-9.795 c 0,0 -0.5,-39.083 -2.297,-59.174 -0.2,-1.999 -1.598,-3.698 -3.595,-4.298 -10.084,-3.198 -12.081,-19.59 -12.081,-23.689 v -0.999 H -157.85 l -0.2,2.099 c -0.2,3.998 -4.293,16.992 -12.68,21.19 -1.797,0.899 -3.195,2.399 -4.193,4.099 -1.098,13.494 -1.098,44.679 -1.098,61.872 v 8.796 c 0,0 18.271,-0.101 73.385,-0.101 z m -68.197,32.086 h -0.101 c -58.807,-0.4 -86.864,-8.296 -87.163,-8.396 l -0.4,-0.1 -7.488,17.492 0.599,0.2 c 0.3,0 38.54,8.796 94.453,9.095 55.813,0.4 94.053,-7.896 94.452,-7.996 l 0.599,-0.2 -6.689,-16.492 -0.4,0.1 c -0.399,0.1 -38.139,6.597 -87.862,6.297 m 109.932,-155.63 c -1.497,-1.499 -5.291,-5.497 -8.387,-8.895 -8.986,-9.596 -13.479,-13.294 -21.267,-17.193 -8.587,-4.298 -23.863,-7.396 -40.137,-9.995 l -46.228,-0.601 -46.228,0.101 -5.392,0.8 c -24.861,3.798 -37.242,8.995 -48.125,19.99 -1.497,1.399 -4.692,4.998 -7.189,7.797 -2.496,2.898 -5.591,6.396 -6.988,7.796 -3.096,3.199 -3.695,4.299 -3.695,6.697 0,1.4 0.1,1.9 0.599,2.899 0.699,1.399 1.897,2.699 3.096,3.298 1.697,0.9 2.496,0.9 22.165,0.9 h 17.273 150.366 l 18.271,-0.1 20.369,-0.099 0.998,-0.5 c 1.398,-0.701 3.095,-2.299 3.594,-3.599 0.299,-0.8 0.499,-1.6 0.499,-2.698 0,-2.499 -0.399,-3.299 -3.594,-6.598 M -159.301,59.974 c 4.992,0 9.085,-4.398 9.085,-9.996 0.1,-5.498 -3.893,-10.095 -8.886,-10.095 -4.992,-0.1 -9.085,4.398 -9.085,9.995 -0.101,5.498 3.993,10.096 8.886,10.096 m 121.591,0.527 c 4.992,0 9.086,-4.398 9.086,-9.996 0.1,-5.497 -3.895,-10.095 -8.887,-10.095 -4.992,-0.1 -9.085,4.398 -9.085,9.995 -0.1,5.498 3.993,10.096 8.886,10.096 m 148.338,100.026 h -418.149 c 0,0 -3.194,-111.149 11.782,-184.916 13.579,-67.069 53.218,-193.513 197.293,-316.357 144.075,122.845 183.714,249.188 197.292,316.357 14.976,73.667 11.782,184.916 11.782,184.916"
             style="fill:#333366;fill-opacity:1;fill-rule:nonzero;stroke:none"
             id="path763" />
        </g>
      </g>
    </g>
    <g
       id="g765">
      <g
         id="g767"
         clip-path="url(#clipPath771)">
        <g
           id="g773"
           transform="translate(102.7622,513.891)">
          <path
             d="m 0,0 c 7.697,0 13.937,-6.22 13.937,-13.892 0,-7.673 -6.24,-13.892 -13.937,-13.892 -7.697,0 -13.937,6.219 -13.937,13.892 C -13.937,-6.22 -7.697,0 0,0"
             style="fill:#333366;fill-opacity:1;fill-rule:nonzero;stroke:none"
             id="path775" />
        </g>
        <g
           id="g777"
           transform="translate(890.0225,513.891)">
          <path
             d="m 0,0 c 7.696,0 13.937,-6.22 13.937,-13.892 0,-7.673 -6.241,-13.892 -13.937,-13.892 -7.697,0 -13.937,6.219 -13.937,13.892 C -13.937,-6.22 -7.697,0 0,0"
             style="fill:#333366;fill-opacity:1;fill-rule:nonzero;stroke:none"
             id="path779" />
        </g>
        <g
           id="g781"
           transform="translate(106.6318,350.2206)">
          <path
             d="m 0,0 c -4.772,-0.71 -9.194,-0.583 -13.273,0.48 -4.079,1.063 -7.696,2.766 -10.95,5.102 -3.261,2.437 -6.047,5.311 -8.477,8.919 -2.424,3.507 -4.273,7.458 -5.634,11.642 -1.994,6.28 -2.769,12.333 -2.219,18.061 0.543,5.831 2.216,11.225 4.927,16.074 2.704,4.951 6.451,9.257 11.236,13.018 4.684,3.754 10.124,6.642 16.321,8.661 6.783,2.261 13.341,3.287 19.787,2.882 6.34,-0.31 12.243,-1.664 17.509,-4.075 5.266,-2.412 9.881,-5.679 13.754,-9.908 3.873,-4.228 6.785,-9.127 8.54,-14.812 2.224,-6.774 2.262,-13.89 0.202,-21.139 4.141,-2.076 7.008,-4.639 8.601,-7.691 -0.181,-0.317 -1.036,-1.083 -2.573,-2.197 -1.537,-1.115 -3.566,-2.362 -6.09,-3.742 -2.523,-1.38 -5.546,-2.793 -8.863,-4.325 -3.317,-1.532 -6.945,-2.881 -10.78,-4.14 l -1.481,4.481 c 7.726,4.863 12.797,10.473 15.414,16.842 2.611,6.47 2.81,12.99 0.592,19.663 -1.605,4.881 -3.948,8.698 -7.127,11.445 -3.18,2.747 -6.809,4.653 -10.888,5.716 -4.079,1.064 -8.414,1.398 -13.005,1.006 C 10.932,71.569 6.379,70.569 1.95,69.17 -4.246,67.149 -9.811,64.661 -14.651,61.813 c -4.941,-2.856 -8.951,-6.162 -12.036,-9.814 -3.085,-3.653 -5.141,-7.75 -6.165,-12.289 -1.023,-4.539 -0.617,-9.496 1.113,-14.775 1.113,-3.387 2.393,-6.255 3.948,-8.699 1.556,-2.443 3.593,-4.551 6.004,-6.229 2.411,-1.677 5.403,-3.013 8.97,-3.905 3.566,-0.893 7.72,-1.544 12.654,-1.841 z"
             style="fill:#333366;fill-opacity:1;fill-rule:nonzero;stroke:none"
             id="path783" />
        </g>
        <g
           id="g785"
           transform="translate(128.2812,267.701)">
          <path
             d="m 0,0 c 2.874,-4.292 6.271,-7.331 10.094,-9.122 3.823,-1.791 7.989,-2.646 12.393,-2.468 4.404,0.178 9.057,1.185 13.948,3.223 4.796,1.931 9.649,4.578 14.459,7.933 4.522,3.135 8.619,6.649 12.192,10.536 3.572,3.887 6.327,8.028 8.163,12.416 1.836,4.386 2.66,8.913 2.472,13.579 -0.294,4.76 -1.987,9.432 -5.191,14.212 -2.98,4.387 -6.378,7.425 -10.295,9.109 -3.916,1.684 -8.076,2.436 -12.568,2.051 -4.396,-0.28 -9.031,-1.59 -13.722,-3.616 C 27.261,55.725 22.601,53.192 18.085,49.957 13.083,46.487 8.798,42.758 5.231,38.77 1.565,34.774 -1.089,30.641 -2.832,26.36 -4.574,22.081 -5.311,17.764 -4.929,13.212 -4.654,8.755 -2.98,4.387 0,0 m -5.084,-2.153 c -3.648,5.464 -6.104,11.103 -7.179,17.136 -1.074,6.034 -1.031,11.832 0.218,17.607 1.249,5.773 3.622,11.212 7.013,16.409 3.491,5.204 7.832,9.649 13.222,13.347 5.003,3.469 10.469,5.951 16.29,7.541 5.928,1.494 11.818,1.969 17.683,1.222 5.865,-0.746 11.499,-2.626 16.909,-5.74 5.409,-3.114 9.988,-7.4 13.855,-13.154 C 76.681,46.656 79.249,40.82 80.523,34.8 81.798,28.779 81.867,22.784 80.718,17.017 79.569,11.249 77.303,5.716 73.911,0.518 70.52,-4.68 66.079,-9.131 60.602,-13.037 c -4.81,-3.356 -10.275,-5.838 -16.209,-7.231 -6.027,-1.501 -12.024,-1.881 -17.989,-1.141 -5.965,0.74 -11.799,2.607 -17.315,5.817 -5.515,3.209 -10.2,7.59 -14.173,13.439"
             style="fill:#333366;fill-opacity:1;fill-rule:nonzero;stroke:none"
             id="path787" />
        </g>
        <g
           id="g789"
           transform="translate(181.6289,196.6483)">
          <path
             d="m 0,0 2.61,3.217 c 6.147,-5.305 11.65,-5.058 16.316,0.628 l 38.479,46.267 c 5.234,6.23 4.466,12.181 -2.212,17.96 L 57.804,71.288 111.711,25.287 97.06,4.224 93.074,7.021 c 2.355,4.116 3.741,7.661 4.153,10.738 0.412,3.076 0.237,5.913 -0.725,8.496 -0.962,2.582 -2.518,5.026 -4.673,7.432 -2.149,2.303 -4.816,4.88 -7.883,7.431 l -3.173,2.646 c -4.242,3.697 -7.571,3.994 -10.001,1.094 L 55.271,26.182 c -2.149,-2.577 -1.255,-5.672 2.667,-9.084 l 1.587,-1.324 c 2.33,-1.987 4.223,-3.392 5.878,-4.203 1.555,-0.816 3.079,-1.127 4.578,-1.031 1.494,0.196 2.961,0.798 4.504,1.811 1.543,1.012 3.46,2.457 5.752,4.331 l 3.598,-3.027 -22.603,-27.16 -3.598,3.026 1.774,2.146 c 0.843,0.969 1.574,2.134 2.193,3.495 0.624,1.26 1.03,2.811 0.93,4.431 -0.007,1.728 -0.619,3.52 -1.75,5.584 -1.13,2.063 -3.073,4.279 -5.934,6.742 l -4.872,4.165 c -1.268,1.038 -2.743,0.538 -4.516,-1.608 L 29.407,-5.05 c -4.765,-5.691 -3.497,-11.61 3.706,-17.763 l -2.611,-3.216 z"
             style="fill:#333366;fill-opacity:1;fill-rule:nonzero;stroke:none"
             id="path791" />
        </g>
        <g
           id="g793"
           transform="translate(267.0879,130.3778)">
          <path
             d="M 0,0 1.874,3.78 C 9.12,0.172 14.348,1.622 17.645,8.339 L 44.3,62.501 c 3.56,7.344 1.511,12.908 -6.26,16.89 L 39.914,83.17 103.078,51.382 93.822,27.406 89.3,29.153 c 1.324,4.559 1.792,8.351 1.505,11.383 -0.294,3.134 -1.162,5.824 -2.705,8.066 -1.543,2.241 -3.68,4.342 -6.297,6.108 -2.617,1.767 -5.841,3.596 -9.464,5.399 l -3.729,1.9 c -4.972,2.531 -8.358,2.113 -10.05,-1.35 L 47.774,38.723 c -1.517,-3.045 0.057,-5.793 4.717,-8.141 l 1.862,-0.899 c 2.691,-1.355 4.953,-2.228 6.683,-2.627 1.73,-0.399 3.336,-0.399 4.71,0.095 1.374,0.495 2.723,1.393 3.941,2.792 1.318,1.406 2.811,3.229 4.572,5.578 L 78.4,33.445 62.718,1.436 58.577,3.512 59.826,6.031 c 0.53,1.153 1.049,2.508 1.367,3.85 0.313,1.443 0.319,2.969 -0.081,4.57 -0.4,1.603 -1.405,3.267 -3.017,4.995 -1.612,1.729 -4.023,3.406 -7.34,5.127 l -5.697,2.894 C 43.609,28.188 42.26,27.289 41.004,24.87 L 29.77,2.092 c -3.305,-6.616 -0.656,-12.143 7.733,-16.39 l -1.873,-3.779 z"
             style="fill:#333366;fill-opacity:1;fill-rule:nonzero;stroke:none"
             id="path795" />
        </g>
        <g
           id="g797"
           transform="translate(366.6558,85.8485)">
          <path
             d="m 0,0 0.849,4.121 c 8.239,-1.815 13.024,0.318 14.266,6.193 l 12.938,61.833 c 1.636,7.629 -2.069,12.376 -10.92,14.358 L 17.982,90.626 88.653,75.381 84.42,49.69 80.185,50.031 c 0.187,5.097 -0.163,9.142 -1.256,12.225 -0.993,3.09 -2.549,5.533 -4.567,7.337 -2.017,1.804 -4.509,3.172 -7.37,4.007 -2.861,0.836 -6.122,1.645 -9.582,2.443 l -3.761,0.778 C 46.834,78.321 43.006,76.96 42.15,72.939 L 37.037,48.516 c -0.537,-2.678 0.169,-4.363 2.405,-4.83 l 4.578,-1.033 c 2.236,-0.467 4.366,-0.841 6.284,-1.024 2.017,-0.178 3.81,0.038 5.478,0.652 1.668,0.614 3.198,1.829 4.597,3.545 1.399,1.716 2.548,4.23 3.647,7.553 l 4.985,-1.108 -7.456,-35.25 -4.984,1.108 c 0.387,3.482 0.318,6.224 0.086,8.344 -0.331,2.115 -1.037,3.798 -2.124,5.153 -1.087,1.354 -2.655,2.374 -4.503,3.07 -1.949,0.69 -4.304,1.456 -7.153,2.089 l -1.624,0.304 c -4.166,0.854 -6.508,-0.21 -7.126,-3.198 L 28.607,7.916 c -1.086,-5.153 1.931,-8.521 9.151,-10.098 l 4.167,-0.853 c 5.697,-1.266 10.244,-1.791 13.948,-1.658 3.604,0.127 6.67,0.83 9.288,2.318 2.523,1.38 4.709,3.349 6.658,5.913 1.848,2.558 3.872,5.533 6.058,9.129 l 3.429,-1.918 -9.317,-26.216 z"
             style="fill:#333366;fill-opacity:1;fill-rule:nonzero;stroke:none"
             id="path799" />
        </g>
        <g
           id="g801"
           transform="translate(482.3057,66.8456)">
          <path
             d="m 0,0 -0.156,4.159 c 8.401,0.432 12.517,3.642 12.248,9.624 L 9.095,76.945 C 8.714,84.751 3.973,88.416 -5.035,88.048 l -0.156,4.159 72.225,3.462 2.307,-25.987 -4.267,-0.78 c -1.011,5.021 -2.449,8.794 -4.222,11.529 -1.775,2.734 -3.899,4.633 -6.285,5.906 -2.386,1.272 -5.134,1.911 -8.151,2.025 -3.018,0.114 -6.321,0.006 -9.926,-0.121 L 32.687,88.102 C 25.685,87.759 22.312,85.512 22.568,81.358 l 1.139,-24.943 c 0.169,-2.734 1.256,-4.089 3.46,-4.051 l 4.704,0.197 c 2.298,0.145 4.398,0.279 6.383,0.608 1.986,0.329 3.648,1.045 5.091,2.052 1.443,1.006 2.648,2.608 3.529,4.595 0.874,2.09 1.411,4.768 1.598,8.237 l 5.103,0.222 1.721,-35.99 -5.104,-0.222 c -0.512,3.425 -1.18,6.128 -2.005,8.11 -0.825,1.981 -1.918,3.437 -3.386,4.463 -1.468,1.025 -3.111,1.633 -5.128,1.809 -2.018,0.178 -4.528,0.222 -7.434,0.139 L 30.641,46.482 C 26.437,46.318 24.432,44.665 24.52,41.62 L 25.759,15.057 C 25.983,9.783 29.75,7.276 37.152,7.645 l 4.304,0.17 c 5.803,0.267 10.374,0.963 13.822,1.996 3.449,1.032 6.265,2.533 8.345,4.596 2.086,1.963 3.734,4.508 4.959,7.433 1.224,2.925 2.417,6.356 3.572,10.395 L 75.927,31.254 73.524,3.545 Z"
             style="fill:#333366;fill-opacity:1;fill-rule:nonzero;stroke:none"
             id="path803" />
        </g>
        <g
           id="g805"
           transform="translate(717.1758,151.3973)">
          <path
             d="m 0,0 c 1.193,-4.703 1.475,-9.262 0.926,-13.364 -0.644,-4.21 -1.911,-8.053 -3.904,-11.534 -1.992,-3.483 -4.602,-6.699 -7.844,-9.447 -3.241,-2.748 -6.808,-5.109 -10.911,-6.895 -5.954,-2.716 -11.787,-4.103 -17.508,-4.059 -5.716,-0.057 -11.206,1.119 -16.36,3.335 -5.153,2.215 -9.775,5.583 -13.854,9.901 -4.186,4.412 -7.516,9.589 -10.195,15.623 -2.917,6.627 -4.524,13.135 -4.924,19.619 -0.4,6.482 0.331,12.528 2.198,18.036 1.761,5.602 4.564,10.559 8.306,14.967 3.748,4.304 8.251,7.743 13.616,10.218 6.439,2.951 13.316,3.692 20.719,2.433 1.536,4.368 3.747,7.559 6.638,9.471 0.412,-0.177 1.162,-0.944 2.356,-2.393 1.193,-1.449 2.617,-3.393 4.266,-5.729 1.656,-2.437 3.336,-5.28 5.242,-8.514 1.804,-3.241 3.623,-6.686 5.259,-10.445 l -4.297,-1.901 c -5.566,7.275 -11.569,11.876 -18.208,13.794 -6.541,1.924 -13.03,1.411 -19.376,-1.432 -4.584,-2.121 -8.126,-4.888 -10.418,-8.389 -2.392,-3.508 -3.86,-7.363 -4.503,-11.573 -0.643,-4.21 -0.574,-8.578 0.313,-13.2 0.888,-4.621 2.262,-9.008 4.236,-13.357 2.68,-6.033 5.617,-11.338 9.014,-16.004 3.299,-4.672 6.935,-8.305 10.819,-11.109 3.88,-2.703 8.196,-4.362 12.744,-4.887 4.546,-0.524 9.306,0.388 14.384,2.642 3.223,1.424 5.928,3.121 8.126,4.887 2.292,1.874 4.066,4.021 5.509,6.655 1.443,2.633 2.355,5.742 2.929,9.439 0.574,3.697 0.711,7.977 0.505,12.946 z"
             style="fill:#333366;fill-opacity:1;fill-rule:nonzero;stroke:none"
             id="path807" />
        </g>
        <g
           id="g809"
           transform="translate(762.2305,149.6786)">
          <path
             d="M 0,0 -2.611,3.292 C 3.696,8.37 5.221,12.94 2.172,16.815 L -38.52,68.129 c -4.353,5.52 -10.063,5.361 -17.132,-0.375 l -2.612,3.292 31.048,25.256 2.612,-3.292 C -31.2,87.711 -32.268,82.253 -27.914,76.733 L 12.777,25.419 c 2.393,-3 5.985,-2.671 10.569,1.077 l 4.971,3.977 c 3.248,2.646 5.996,5.26 8.051,7.73 2.056,2.469 3.616,4.805 4.578,7.104 1.742,4.279 0.481,11.724 -3.793,22.435 l 3.192,1.931 14.487,-25.012 z"
             style="fill:#333366;fill-opacity:1;fill-rule:nonzero;stroke:none"
             id="path811" />
        </g>
        <g
           id="g813"
           transform="translate(828.9268,332.0663)">
          <path
             d="m 0,0 c -6.609,4.665 -12.63,3.063 -18.063,-4.807 l -3.362,2.431 18.232,26.477 3.36,-2.431 C -4.155,15.295 -3.018,9.876 3.591,5.21 l 34.306,-24.263 c 4.297,-2.981 7.908,-6.21 10.919,-9.476 3.011,-3.267 4.941,-6.907 5.897,-11.015 0.956,-4.108 0.644,-8.807 -0.942,-13.991 -1.58,-5.286 -4.715,-11.383 -9.593,-18.506 -3.135,-4.47 -6.427,-8.034 -9.88,-10.592 -3.555,-2.564 -7.164,-4.217 -10.931,-4.964 -3.766,-0.747 -7.583,-0.684 -11.449,0.189 -3.873,0.974 -7.49,2.678 -11.057,5.197 l -40.284,28.46 c -5.459,3.925 -10.768,2.164 -15.739,-5.065 l -3.361,2.43 22.64,33.061 3.361,-2.431 c -4.972,-7.23 -4.728,-12.807 0.832,-16.725 l 37.347,-26.41 c 2.518,-1.772 5.235,-3.532 8.146,-5.177 2.811,-1.653 5.872,-2.476 8.894,-2.691 3.024,-0.215 6.278,0.703 9.57,2.641 3.292,1.937 6.783,5.514 10.374,10.725 3.31,4.887 5.346,9.288 5.801,13.283 0.556,4.001 0.244,7.438 -0.849,10.521 -1.094,3.083 -2.868,5.818 -5.116,8.115 -2.256,2.4 -4.585,4.387 -6.991,5.963 z"
             style="fill:#333366;fill-opacity:1;fill-rule:nonzero;stroke:none"
             id="path815" />
        </g>
        <g
           id="g817"
           transform="translate(925.3701,385.2645)">
          <path
             d="m 0,0 c 0.918,3.007 1.443,5.888 1.574,8.642 0.131,2.754 -0.332,5.368 -1.275,7.647 -0.949,2.38 -2.48,4.418 -4.598,6.216 -2.117,1.798 -4.916,3.248 -8.394,4.349 -4.092,1.265 -7.627,1.652 -10.607,1.158 -2.88,-0.489 -5.409,-1.767 -7.595,-3.737 -2.086,-1.962 -3.928,-4.621 -5.534,-7.876 -1.505,-3.247 -2.879,-6.995 -4.221,-11.25 l -1.412,-4.766 c -0.743,-2.59 0.469,-4.343 3.842,-5.35 l 28.333,-8.778 c 3.38,-1.108 6.122,1.608 8.039,7.933 z M -79.371,18.049 C -81.195,11.832 -80.576,8.313 -77.303,7.3 l 25.366,-7.849 c 2.456,-0.76 4.104,0.159 4.847,2.748 1.83,6.115 3.028,11.073 3.49,14.966 0.462,3.894 0.369,7.04 -0.38,9.434 -0.75,2.392 -2.069,4.241 -4.055,5.539 -1.986,1.297 -4.46,2.36 -7.533,3.385 -11.256,3.558 -18.733,-0.475 -22.23,-12.086 z m 40.749,6.245 c 3.191,6.812 7.289,11.953 12.211,15.112 4.915,3.261 10.393,3.913 16.427,2.059 4.704,-1.43 8.546,-3.526 11.312,-6.096 C 4.096,32.8 6.089,29.773 7.307,26.292 8.519,22.911 8.956,19.075 8.606,14.985 8.357,10.901 7.521,6.578 6.19,2.121 3.936,-5.242 1.669,-12.402 -0.61,-19.36 -2.89,-26.317 -5.318,-34.099 -7.904,-42.601 l -3.992,1.273 c 2.592,8.4 1.379,13.408 -3.53,14.928 l -62.501,19.423 c -6.14,1.95 -10.537,-1.583 -13.21,-10.294 l -4.092,1.266 11.672,38.466 c 1.418,4.666 3.161,8.946 5.034,12.726 1.973,3.786 4.191,6.875 6.745,9.376 2.461,2.393 5.265,4.096 8.425,4.907 3.055,0.905 6.478,0.716 10.263,-0.468 2.867,-0.937 5.247,-2.107 7.046,-3.621 1.8,-1.513 3.218,-3.355 4.248,-5.425 1.031,-2.07 1.78,-4.463 2.144,-7.084 0.362,-2.621 0.631,-5.35 0.612,-8.3 z"
             style="fill:#333366;fill-opacity:1;fill-rule:nonzero;stroke:none"
             id="path819" />
        </g>
        <g
           id="g821"
           transform="translate(101.9785,632.3348)">
          <path
             d="m 0,0 c -7.315,0.4 -13.628,-0.7 -18.839,-3.4 -5.311,-2.701 -8.818,-6.902 -10.622,-12.703 -1.503,-4.8 -1.403,-9.001 0.201,-12.602 1.603,-3.6 4.409,-6.001 8.217,-7.201 3.006,-0.9 5.912,-0.699 8.818,0.7 2.806,1.401 5.812,3.801 8.818,7.402 3.707,4.4 7.014,8.501 9.72,12.201 2.806,3.701 5.511,6.802 8.417,9.202 2.806,2.401 6.013,3.901 9.42,4.701 3.407,0.7 7.716,0.3 12.726,-1.2 3.106,-1 6.012,-2.401 8.718,-4.301 2.705,-1.901 5.01,-4.201 6.714,-6.901 1.803,-2.701 2.906,-5.901 3.407,-9.602 0.501,-3.7 0,-7.801 -1.403,-12.301 -0.902,-2.901 -1.904,-5.401 -3.006,-7.402 -1.103,-2 -2.105,-3.6 -3.207,-4.901 -1.002,-1.299 -2.004,-2.3 -2.806,-2.9 -0.801,-0.7 -1.403,-1.1 -1.803,-1.4 0.701,-2 1.202,-3.901 1.703,-5.701 0.401,-1.9 0.601,-3.701 0.501,-5.401 -6.613,1.001 -12.526,2.101 -17.536,3.101 -5.011,1 -9.42,2.1 -13.127,3.3 l 1.302,4.101 c 3.708,-1.1 7.315,-1.4 10.823,-0.9 3.507,0.6 6.714,1.7 9.62,3.4 2.906,1.701 5.411,3.801 7.515,6.301 2.105,2.601 3.607,5.201 4.409,8.001 0.501,1.801 0.802,3.801 0.902,6.101 0.1,2.301 -0.2,4.601 -0.902,6.902 -0.701,2.3 -1.804,4.3 -3.306,6.2 -1.504,1.901 -3.608,3.201 -6.313,4.101 -3.308,1 -6.514,1 -9.621,0 -3.106,-1 -5.912,-3.3 -8.517,-6.801 -3.107,-4.1 -6.012,-8.001 -8.718,-11.802 -2.705,-3.8 -5.611,-7.001 -8.517,-9.601 -3.007,-2.601 -6.213,-4.401 -9.821,-5.401 -3.607,-1 -7.816,-0.8 -12.626,0.7 -3.507,1.1 -6.513,2.7 -8.918,4.801 -2.505,2.1 -4.409,4.601 -5.812,7.301 -1.403,2.801 -2.205,5.701 -2.505,8.901 -0.301,3.201 0.1,6.301 1.102,9.401 1.102,3.601 2.705,6.502 4.81,8.602 2.104,2.2 4.008,4.201 5.611,6.001 -1.302,3.201 -1.903,6.401 -1.903,9.501 4.208,0 8.517,-0.399 13.026,-1.3 4.51,-0.8 9.22,-2 14.23,-3.6 z"
             style="fill:#333366;fill-opacity:1;fill-rule:nonzero;stroke:none"
             id="path823" />
        </g>
        <g
           id="g825"
           transform="translate(176.4316,651.538)">
          <path
             d="m 0,0 -3.407,2 c 4.71,8.102 3.608,14.103 -3.306,18.203 l -52.308,30.605 c -2.806,1.6 -5.312,0.6 -7.416,-3.1 -2.906,-5.001 -3.708,-10.002 -2.304,-14.903 1.403,-5.001 4.909,-10.101 10.521,-15.402 l -3.006,-3.001 -22.346,17.203 c 1.202,1.6 2.405,3.101 3.507,4.601 1.103,1.5 2.004,2.9 2.906,4.3 l 25.653,43.607 c 0.902,1.6 1.804,3.2 2.606,5.001 0.801,1.7 1.603,3.6 2.404,5.401 l 23.749,-13.903 -1.302,-3.3 c -12.626,6.201 -22.246,3.701 -28.76,-7.401 -2.204,-3.801 -2.004,-6.401 0.501,-7.901 L 0,31.405 c 6.915,-4.101 12.827,-2 17.637,6.101 l 3.406,-2.001 z"
             style="fill:#333366;fill-opacity:1;fill-rule:nonzero;stroke:none"
             id="path827" />
        </g>
        <g
           id="g829"
           transform="translate(245.0732,748.2528)">
          <path
             d="m 0,0 c 3.507,3.4 5.812,7.101 6.915,11.002 1.102,3.9 1.202,7.901 0.3,12.102 -0.902,4.2 -2.606,8.301 -5.211,12.602 -2.605,4.2 -5.812,8.401 -9.72,12.401 -3.707,3.801 -7.616,7.001 -11.824,9.802 -4.209,2.7 -8.518,4.701 -12.827,5.701 -4.308,1.1 -8.717,1.1 -13.027,0.1 -4.308,-1 -8.517,-3.4 -12.325,-7.201 -3.607,-3.501 -5.812,-7.201 -6.814,-11.202 -1.002,-4 -0.902,-8.001 0.1,-12.202 1.002,-4.101 2.906,-8.201 5.612,-12.302 2.705,-4.1 5.912,-8.001 9.52,-11.802 4.008,-4.1 8.217,-7.601 12.525,-10.401 4.309,-2.801 8.618,-4.701 12.827,-5.601 4.309,-1 8.417,-0.9 12.526,0.1 C -7.415,-5.701 -3.607,-3.5 0,0 m 2.806,-4.4 c -4.51,-4.301 -9.42,-7.502 -14.831,-9.502 -5.411,-2 -10.922,-2.901 -16.433,-2.6 -5.612,0.299 -11.023,1.6 -16.435,4 -5.31,2.4 -10.22,5.901 -14.529,10.302 -4.009,4.1 -7.215,8.901 -9.62,14.202 -2.405,5.301 -3.708,10.802 -3.908,16.502 -0.301,5.702 0.601,11.302 2.605,16.803 2.004,5.501 5.311,10.602 10.021,15.103 4.609,4.5 9.619,7.8 15.031,9.901 5.411,2.2 10.922,3.2 16.534,3.001 5.612,-0.101 11.023,-1.401 16.434,-3.801 C -6.914,67.11 -2.004,63.71 2.405,59.109 6.313,55.108 9.419,50.408 11.825,45.007 14.129,39.606 15.532,34.005 15.732,28.205 15.933,22.403 15.131,16.703 13.127,11.002 10.922,5.401 7.516,0.2 2.806,-4.4"
             style="fill:#333366;fill-opacity:1;fill-rule:nonzero;stroke:none"
             id="path831" />
        </g>
        <g
           id="g833"
           transform="translate(351.9937,846.1678)">
          <path
             d="m 0,0 c 1.403,-4.4 2.004,-8.601 1.704,-12.602 -0.301,-4.001 -1.303,-7.701 -3.007,-11.102 -1.703,-3.4 -4.008,-6.601 -6.914,-9.401 -2.906,-2.8 -6.213,-5.201 -9.92,-7.201 -5.511,-2.901 -11.023,-4.601 -16.534,-5.001 -5.512,-0.4 -10.723,0.3 -15.833,2.1 -5.01,1.801 -9.62,4.601 -13.929,8.402 -4.209,3.801 -7.816,8.501 -10.722,14.002 -3.206,6.001 -5.211,12.102 -5.912,18.103 -0.702,6.001 -0.401,11.802 0.902,17.102 1.303,5.401 3.707,10.202 7.014,14.603 3.307,4.301 7.416,7.801 12.426,10.401 5.912,3.201 12.526,4.401 19.641,3.601 1.202,4.201 3.106,7.301 5.711,9.302 0.401,-0.101 1.203,-0.801 2.405,-2.101 1.303,-1.3 2.706,-3 4.409,-5.101 1.704,-2.2 3.507,-4.7 5.512,-7.601 2.004,-2.901 3.807,-6.101 5.611,-9.502 l -3.908,-2.1 c -5.712,6.501 -11.824,10.402 -18.238,11.802 -6.413,1.4 -12.525,0.5 -18.438,-2.601 -4.208,-2.3 -7.415,-5.1 -9.419,-8.501 -2.004,-3.4 -3.207,-7.101 -3.607,-11.102 -0.301,-4 0,-8.101 1.202,-12.401 1.102,-4.301 2.706,-8.402 4.81,-12.302 2.906,-5.501 6.113,-10.302 9.62,-14.503 3.507,-4.2 7.115,-7.4 11.123,-9.701 3.908,-2.3 8.117,-3.6 12.425,-3.801 4.409,-0.2 8.919,0.901 13.528,3.401 2.906,1.6 5.411,3.301 7.416,5.201 2.004,1.9 3.607,4.101 4.81,6.601 1.202,2.6 1.904,5.601 2.204,9.001 0.301,3.501 0.2,7.502 -0.3,12.202 z"
             style="fill:#333366;fill-opacity:1;fill-rule:nonzero;stroke:none"
             id="path835" />
        </g>
        <g
           id="g837"
           transform="translate(437.1694,842.7675)">
          <path
             d="m 0,0 -0.802,3.901 c 4.91,1 7.215,2.2 6.914,3.6 -0.2,1.101 -1.803,3.001 -4.709,5.601 l -29.561,24.904 -4.71,-6.501 c -0.801,-1.1 -1.403,-2.2 -1.904,-3.501 -0.501,-1.3 -0.701,-2.7 -0.601,-4.3 L -31.766,6.601 C -30.463,0.7 -25.553,-1.3 -17.035,0.5 l 0.801,-3.9 -37.277,-7.902 -0.801,3.901 c 7.916,1.7 11.223,5.501 9.92,11.401 l -12.626,59.11 c -1.302,6.301 -6.212,8.501 -14.73,6.701 l -0.802,3.9 36.676,7.802 0.801,-3.901 c -7.515,-1.6 -10.621,-5.501 -9.319,-11.802 l 6.714,-31.305 23.849,34.806 c 1.603,2.2 2.606,3.9 3.006,5.101 0.401,1.2 0.401,2.8 0,4.7 -0.501,2.301 -3.707,2.801 -9.619,1.6 l -0.802,3.901 33.268,7.101 0.802,-3.901 c -2.505,-0.799 -4.609,-1.6 -6.113,-2.4 -1.503,-0.8 -3.005,-1.8 -4.208,-3.1 -1.303,-1.2 -2.505,-2.701 -3.908,-4.601 -1.303,-1.8 -3.006,-4.3 -5.011,-7.301 L -20.743,48.908 16.734,16.903 c 1.503,-1.001 2.806,-2.001 4.109,-2.901 1.303,-0.9 2.605,-1.6 3.908,-2.1 1.302,-0.5 2.706,-0.9 4.208,-1 1.503,-0.1 3.307,0 5.312,0.5 l 0.801,-3.901 z"
             style="fill:#333366;fill-opacity:1;fill-rule:nonzero;stroke:none"
             id="path839" />
        </g>
        <g
           id="g841"
           transform="translate(542.8867,845.1678)">
          <path
             d="m 0,0 0.401,3.901 c 8.618,-0.8 13.228,1.8 13.828,7.801 l 2.606,27.304 c -1.403,1.5 -4.71,2.401 -9.72,2.901 l -23.549,2.3 c -1.703,0.2 -3.407,0.2 -5.01,0 -1.603,-0.2 -3.106,-0.5 -4.61,-1.1 L -28.658,15.803 C -29.26,9.802 -25.553,6.401 -17.436,5.601 l -0.4,-3.901 -38.379,3.701 0.401,3.901 c 8.918,-0.901 13.627,1.7 14.229,7.701 l 5.611,58.209 c 0.702,7.701 -3.306,11.902 -12.225,12.802 l 0.401,3.901 38.379,-3.701 -0.401,-3.901 c -8.016,0.8 -12.425,-2.7 -13.127,-10.401 l -2.204,-22.404 c 2.805,-1.2 5.912,-2 9.319,-2.3 L 7.716,46.907 c 4.91,-0.5 8.218,-0.3 10.121,0.5 l 2.205,22.404 c 0.701,7.701 -3.207,12.002 -11.824,12.802 l 0.4,3.901 37.878,-3.601 -0.4,-3.901 C 38.179,79.813 33.77,76.312 33.068,68.611 L 27.457,10.402 C 26.855,4.401 30.563,1 38.479,0.2 l -0.4,-3.901 z"
             style="fill:#333366;fill-opacity:1;fill-rule:nonzero;stroke:none"
             id="path843" />
        </g>
        <g
           id="g845"
           transform="translate(644.0957,820.6639)">
          <path
             d="m 0,0 c 4.509,-2 8.818,-2.7 12.826,-2.2 4.009,0.5 7.817,1.9 11.323,4.301 3.508,2.4 6.714,5.6 9.721,9.601 2.905,4.001 5.511,8.601 7.716,13.702 2.104,4.801 3.607,9.701 4.609,14.602 0.902,4.901 1.103,9.602 0.401,14.003 -0.701,4.4 -2.305,8.501 -4.81,12.101 -2.605,3.601 -6.313,6.501 -11.323,8.702 -4.609,2 -8.919,2.7 -12.927,2 -4.009,-0.6 -7.816,-2.2 -11.224,-4.701 -3.406,-2.5 -6.512,-5.8 -9.318,-9.801 -2.806,-4.001 -5.211,-8.501 -7.315,-13.302 -2.305,-5.301 -3.908,-10.402 -4.91,-15.503 -0.903,-5.001 -1.103,-9.701 -0.401,-14.002 0.701,-4.3 2.305,-8.201 4.91,-11.502 C -8.117,4.701 -4.51,2 0,0 m -3.006,-4.3 c -5.712,2.5 -10.522,5.8 -14.43,10.001 -3.908,4.201 -6.814,9.002 -8.618,14.202 -1.904,5.201 -2.706,10.802 -2.505,16.703 0.201,5.901 1.603,11.702 4.008,17.403 2.305,5.301 5.512,10.101 9.52,14.302 4.009,4.2 8.618,7.501 13.829,9.901 5.11,2.401 10.722,3.701 16.533,4.001 5.913,0.3 11.825,-0.9 17.737,-3.501 5.912,-2.5 10.823,-5.9 14.931,-10.101 4.008,-4.201 7.114,-8.902 9.019,-14.102 2.003,-5.201 2.906,-10.702 2.705,-16.603 C 59.522,32.105 58.22,26.204 55.614,20.303 53.41,15.203 50.203,10.502 46.095,6.301 41.986,2.101 37.276,-1.3 32.066,-3.7 26.855,-6.201 21.244,-7.501 15.131,-7.801 9.219,-8.101 3.106,-6.901 -3.006,-4.3"
             style="fill:#333366;fill-opacity:1;fill-rule:nonzero;stroke:none"
             id="path847" />
        </g>
        <g
           id="g849"
           transform="translate(701.6143,786.9589)">
          <path
             d="M 0,0 2.505,3.101 C 8.518,-1.7 13.026,-2.3 15.933,1.4 l 39.081,48.208 c 4.208,5.201 2.905,10.501 -3.809,15.902 l 2.506,3.101 29.661,-24.004 -2.506,-3.101 C 74.554,46.607 69.343,46.507 65.134,41.307 L 26.054,-6.901 c -2.305,-2.9 -1.303,-6.101 3.206,-9.702 l 4.71,-3.8 c 3.106,-2.5 6.012,-4.501 8.718,-5.901 2.706,-1.4 5.21,-2.401 7.416,-2.901 4.308,-0.799 10.921,1.901 19.94,8.102 l 2.405,-2.601 -20.141,-18.503 z"
             style="fill:#333366;fill-opacity:1;fill-rule:nonzero;stroke:none"
             id="path851" />
        </g>
        <g
           id="g853"
           transform="translate(806.6309,676.1415)">
          <path
             d="M 0,0 3.307,2.201 C 7.615,-4.2 12.426,-5.601 17.736,-2 L 67.939,32.905 -9.62,14.302 l -2.105,3.001 44.192,65.91 -48.4,-32.005 c -6.414,-4.201 -7.215,-10.001 -2.205,-17.303 l -3.306,-2.2 -17.737,26.204 3.307,2.2 c 4.509,-6.601 10.321,-7.701 17.536,-3.4 l 49.302,31.905 1.101,0.7 c 0.802,0.5 1.504,1.1 2.005,1.7 0.501,0.6 0.801,1.501 0.801,2.601 0,1.1 -0.4,2.5 -1.101,4.1 -0.703,1.6 -1.905,3.701 -3.608,6.101 l 3.307,2.201 L 48.6,83.613 8.116,24.604 77.56,40.807 92.49,18.703 l -3.306,-2.2 c -1.604,2.4 -3.107,4.201 -4.309,5.301 -1.303,1.2 -2.405,1.9 -3.508,2.1 -1.101,0.3 -2.104,0.2 -3.006,-0.1 -0.902,-0.4 -1.803,-0.8 -2.706,-1.4 L 26.054,-12.802 c -5.813,-3.901 -6.514,-9.201 -2.004,-15.802 l -3.308,-2.201 z"
             style="fill:#333366;fill-opacity:1;fill-rule:nonzero;stroke:none"
             id="path855" />
        </g>
        <g
           id="g857"
           transform="translate(907.7393,592.3285)">
          <path
             d="m 0,0 c 6.213,3.801 10.822,8.301 13.628,13.502 2.806,5.201 3.307,10.702 1.503,16.403 -1.503,4.801 -3.908,8.201 -7.316,10.201 -3.406,2.101 -7.013,2.501 -10.921,1.301 -3.007,-0.901 -5.312,-2.801 -6.915,-5.501 -1.603,-2.7 -2.605,-6.401 -3.106,-11.102 C -13.729,19.003 -14.029,13.802 -14.229,9.202 -14.43,4.601 -14.931,0.5 -15.934,-3.1 c -1.002,-3.601 -2.705,-6.601 -5.11,-9.202 -2.404,-2.5 -6.112,-4.6 -11.123,-6.201 -3.106,-1 -6.312,-1.4 -9.619,-1.4 -3.307,0 -6.514,0.7 -9.52,1.901 -3.007,1.299 -5.712,3.3 -8.216,6.001 -2.506,2.8 -4.41,6.4 -5.813,10.901 -0.901,2.9 -1.503,5.501 -1.804,7.801 -0.2,2.3 -0.3,4.201 -0.2,5.901 0.1,1.6 0.301,3.001 0.701,4.001 0.301,1 0.602,1.7 0.701,2.1 -1.703,1.2 -3.206,2.501 -4.609,3.8 -1.402,1.301 -2.605,2.701 -3.507,4.101 6.113,2.901 11.524,5.401 16.234,7.401 4.71,2.001 8.918,3.601 12.626,4.701 l 1.302,-4.101 c -3.708,-1.2 -6.814,-3 -9.42,-5.4 -2.604,-2.501 -4.609,-5.201 -6.011,-8.202 -1.404,-3 -2.305,-6.201 -2.606,-9.501 -0.301,-3.3 0,-6.301 0.902,-9.102 0.601,-1.8 1.504,-3.6 2.706,-5.501 1.302,-1.899 2.805,-3.7 4.609,-5.1 1.804,-1.5 3.908,-2.601 6.213,-3.3 2.305,-0.701 4.81,-0.601 7.516,0.199 3.306,1.001 6.011,2.901 7.916,5.401 1.904,2.601 3.005,6.101 3.207,10.402 0.2,5.101 0.4,10.001 0.501,14.702 0.099,4.701 0.6,8.901 1.603,12.702 0.901,3.801 2.605,7.201 5.01,10.002 2.405,2.8 6.013,5 10.822,6.501 3.508,1.1 6.914,1.5 10.121,1.1 3.206,-0.4 6.213,-1.3 8.918,-2.8 2.706,-1.501 5.111,-3.501 7.115,-6.001 2.004,-2.501 3.507,-5.301 4.509,-8.402 1.103,-3.6 1.404,-6.901 0.903,-9.801 -0.501,-3.001 -0.903,-5.701 -1.204,-8.202 2.907,-1.9 5.211,-4.2 6.915,-6.801 C 22.847,5.101 19.039,3 14.931,1.2 10.822,-0.7 6.213,-2.4 1.202,-3.9 Z"
             style="fill:#333366;fill-opacity:1;fill-rule:nonzero;stroke:none"
             id="path859" />
        </g>
      </g>
    </g>
  </g>
</svg>
