<?xml version="1.0" encoding="UTF-8" standalone="no"?>
<!-- Created with Inkscape (http://www.inkscape.org/) -->

<svg
   version="1.1"
   id="svg182"
   width="1181.8754"
   height="1167.1782"
   viewBox="0 0 1181.8754 1167.1782"
   sodipodi:docname="scc_color.svg"
   inkscape:version="1.2 (dc2aeda, 2022-05-15)"
   inkscape:export-filename="scc_shield.svg"
   inkscape:export-xdpi="4.4526634"
   inkscape:export-ydpi="4.4526634"
   xmlns:inkscape="http://www.inkscape.org/namespaces/inkscape"
   xmlns:sodipodi="http://sodipodi.sourceforge.net/DTD/sodipodi-0.dtd"
   xmlns="http://www.w3.org/2000/svg"
   xmlns:svg="http://www.w3.org/2000/svg">
  <defs
     id="defs186">
    <clipPath
       clipPathUnits="userSpaceOnUse"
       id="clipPath198">
      <path
         d="M 0,1000 H 1000 V 0 H 0 Z"
         id="path196" />
    </clipPath>
  </defs>
  <sodipodi:namedview
     id="namedview184"
     pagecolor="#505050"
     bordercolor="#ffffff"
     borderopacity="1"
     inkscape:showpageshadow="0"
     inkscape:pageopacity="0"
     inkscape:pagecheckerboard="1"
     inkscape:deskcolor="#505050"
     showgrid="false"
     inkscape:zoom="0.40380144"
     inkscape:cx="516.34288"
     inkscape:cy="915.0537"
     inkscape:window-width="1792"
     inkscape:window-height="1067"
     inkscape:window-x="0"
     inkscape:window-y="25"
     inkscape:window-maximized="0"
     inkscape:current-layer="g194"
     showguides="true" />
  <g
     id="g190"
     inkscape:groupmode="layer"
     inkscape:label="Page 1"
     transform="matrix(1.3333333,0,0,-1.3333333,-78.072142,1247.8563)">
    <g
       id="g192">
      <g
         id="g194"
         clip-path="url(#clipPath198)">
        <g
           id="g827"
           transform="matrix(1.0030115,0,0,1.0024012,-0.88571715,-1.6913437)"
           style="display:none">
          <g
             id="g200"
             transform="translate(290.9258,708.806)"
             style="fill:#2570bb;fill-opacity:1"
             inkscape:label="shied fill">
            <path
               d="m 0,0 c 0,0 -3.195,-111.149 11.782,-184.917 13.579,-67.069 53.217,-193.511 197.292,-316.356 144.075,122.845 183.714,249.188 197.292,316.357 C 421.343,-111.25 418.148,0 418.148,0 Z"
               style="fill:#2570bb;fill-opacity:1;fill-rule:nonzero;stroke:none"
               id="path202" />
          </g>
          <g
             id="g208"
             transform="translate(610.7314,375.1571)"
             inkscape:label="outline"
             style="display:inline">
            <path
               d="m 0,0 c 0.1,-4.598 2.995,-121.944 -11.981,-195.811 -24.562,-120.846 -91.957,-229.597 -206.179,-326.452 -114.222,96.855 -181.717,205.606 -206.179,326.452 C -439.315,-121.944 -436.42,-4.598 -436.32,0 H 0 m -427.234,-9.096 c 0,0 -3.195,-111.149 11.781,-184.916 13.579,-67.07 53.218,-193.512 197.293,-316.357 144.075,122.845 183.714,249.188 197.292,316.357 14.976,73.667 11.782,184.916 11.782,184.916 z"
               style="display:inline;fill:#333333;fill-opacity:1;fill-rule:nonzero;stroke:none"
               id="path206"
               inkscape:label="path206"
               transform="translate(107.4288,342.7446)" />
            <path
               d="m 0,0 c -1.498,-1.6 -5.292,-5.598 -8.388,-8.896 -8.985,-9.595 -13.478,-13.293 -21.266,-17.192 -8.586,-4.299 -23.863,-7.397 -40.138,-9.996 l -46.228,-0.6 -46.228,0.101 -5.391,0.799 c -24.861,3.799 -37.242,8.996 -48.125,19.991 -1.498,1.499 -4.693,4.998 -7.189,7.797 -2.496,2.799 -5.591,6.297 -6.989,7.796 -3.095,3.199 -3.694,4.298 -3.694,6.697 0,1.3 0.1,1.899 0.599,2.899 0.599,1.399 1.897,2.699 3.095,3.298 1.697,0.8 2.496,0.9 22.166,0.9 h 17.273 150.266 l 18.271,-0.1 20.368,-0.1 0.998,-0.499 C 0.898,12.194 2.496,10.596 3.095,9.296 3.494,8.496 3.594,7.696 3.594,6.597 3.594,4.099 3.194,3.299 0,0 m -183.015,49.078 c -1.797,0.9 -3.195,2.399 -3.894,4.298 -1.098,13.493 -1.098,44.779 -1.098,61.872 v 4.598 l 0.499,1 c 0.699,1.398 1.697,2.299 3.195,2.798 0.299,0.1 10.484,0.1 47.526,0.1 h 21.966 68.592 c 0.3,0 0.6,-0.1 0.899,-0.2 l 0.5,-0.2 c 1.098,-0.499 1.996,-1.4 2.596,-2.498 l 0.399,-0.901 v -5.997 c 0,0 -0.499,-38.982 -2.297,-59.173 -0.199,-2.099 -1.597,-3.698 -3.594,-4.297 -10.085,-3.2 -12.081,-19.592 -12.081,-23.69 v -1 h -110.328 l -0.2,2.1 c -0.2,3.998 -4.393,16.992 -12.68,21.19 m 159.751,38.183 c 2.496,2.098 4.194,4.798 5.492,6.797 0.298,0.799 0.998,1.798 1.397,2.398 1.598,0.6 2.995,0.899 4.193,0.899 1.199,0 2.297,-0.299 3.495,-0.899 1.498,-0.8 2.696,-2.299 3.195,-4.198 0.799,-2.698 0.2,-5.997 -1.497,-9.296 -1.498,-0.799 -4.293,-1.999 -6.091,-1.999 h -0.199 c -1.598,0.2 -3.994,1.999 -5.692,3.398 -1.198,0.901 -2.297,1.8 -3.494,2.499 -0.3,0.201 -0.5,0.3 -0.799,0.401 m -9.685,-8.197 h 0.1 c 0.699,0.6 1.897,0.999 3.095,0.999 0.899,0 1.797,-0.199 2.695,-0.699 2.796,-1.699 7.19,-6.397 12.681,-7.096 0.399,0 0.799,-0.101 1.198,-0.101 5.392,0 11.982,3.599 12.781,4.898 7.288,11.794 3.194,22.99 -4.394,26.888 -2.596,1.299 -5.092,1.799 -7.488,1.799 -2.896,0 -5.591,-0.8 -8.188,-1.799 -4.493,-1.799 -6.19,-11.095 -11.082,-11.095 -0.3,0 -0.599,0 -0.899,0.1 -0.1,0 -0.4,0.3 -0.4,0.3 l 0.4,21.59 c 0,0 0.2,-2.099 3.096,-2.099 1.497,0 3.893,0.6 7.288,2.398 1.297,1 2.795,1.9 4.294,2.499 0.898,0.6 1.796,0.9 2.695,0.9 1.498,0.7 3.096,0.9 4.693,0.9 1.197,0 2.396,-0.1 3.594,-0.4 C 3.294,117.047 11.082,106.552 11.881,93.857 12.779,79.364 4.692,66.97 -6.19,64.371 c -0.3,-0.1 -0.499,-0.1 -0.799,-0.1 -0.4,0 -0.799,0.1 -1.099,0.1 -0.3,0.1 -0.499,0.1 -0.799,0.1 -2.096,0 -4.293,-1.799 -6.389,-3.099 -0.799,-0.5 -1.698,-0.8 -2.596,-0.8 -1.198,0 -2.397,0.5 -3.396,1.5 -2.995,3.099 -7.687,6.797 -10.483,6.797 -1.198,0 -2.097,-0.8 -2.196,-2.699 l 0.598,13.194 c 0,0 0.201,-0.3 0.4,-0.3 M 2.795,20.891 1.797,21.391 C 0.698,21.89 -0.6,22.189 -1.897,22.189 l -20.369,0.101 h -17.971 -10.989 l -0.094,4.198 v 0.1 c 0,4.798 2.496,14.294 5.99,15.392 5.392,1.7 9.186,6.298 9.585,11.896 0.11,1.237 0.216,2.543 0.316,3.902 0.45,-0.099 0.908,-0.174 1.382,-0.204 h 0.4 c 1.397,0 2.595,0.3 3.793,0.9 0.799,-0.701 1.698,-1.499 2.696,-2.4 2.596,-2.598 5.991,-3.998 9.585,-3.998 2.596,0 5.093,0.8 7.289,2.199 0.399,0.201 0.799,0.5 1.198,0.8 0.3,0.2 0.799,0.5 1.198,0.8 0.4,0 0.799,-0.101 1.298,-0.101 0.998,0 1.897,0.101 2.796,0.3 15.275,3.599 25.859,20.192 24.661,38.484 -1.098,16.692 -11.582,30.286 -25.56,33.084 -2.097,0.3 -3.894,0.5 -5.691,0.5 -2.096,0 -4.193,-0.2 -6.19,-0.7 -1.798,-0.2 -3.495,-0.799 -5.193,-1.799 -1.697,-0.799 -3.295,-1.7 -4.892,-2.798 -0.4,-0.2 -0.698,-0.3 -0.998,-0.5 -1.398,0.899 -3.096,1.499 -4.793,1.499 h -0.299 c -0.557,-0.025 -1.098,-0.102 -1.62,-0.224 l -0.277,0.624 v 0.1 c -1.398,2.898 -3.695,5.198 -6.59,6.597 l -0.499,0.2 c -1.398,0.699 -2.995,0.999 -4.593,0.999 h -68.593 c -8.088,0.3 -15.376,0.3 -21.866,0.3 -48.525,0 -48.525,0 -50.321,-0.6 -3.695,-1.199 -6.69,-3.698 -8.388,-7.296 v -0.101 l -0.499,-0.999 c -0.499,-1.099 -0.798,-2.399 -0.798,-3.698 v -4.698 c 0,-15.693 0,-48.378 1.198,-62.672 0.099,-0.8 0.199,-1.599 0.499,-2.398 1.497,-3.899 4.293,-6.998 8.087,-8.897 4.294,-2.199 7.788,-10.995 7.988,-13.894 v -0.2 l 0.418,-4.697 h -12 -17.273 c -21.566,0 -22.465,0 -26.06,-1.8 h -0.1 c -2.895,-1.499 -5.491,-4.197 -6.988,-7.296 -1.199,-2.499 -1.398,-4.398 -1.398,-6.597 0,-5.898 2.596,-9.196 6.09,-12.794 1.198,-1.199 4.193,-4.598 6.69,-7.496 2.296,-2.7 5.79,-6.497 7.588,-8.297 12.281,-12.395 26.159,-18.291 52.917,-22.39 l 5.392,-0.8 c 0.399,-0.099 0.898,-0.099 1.298,-0.099 l 46.228,-0.1 h 0.1 l 46.227,0.6 c 0.4,0 0.799,0 1.199,0.099 21.766,3.498 34.446,6.698 42.633,10.795 8.687,4.399 14.079,8.697 23.763,19.092 3.095,3.398 6.789,7.296 8.188,8.695 l 0.099,0.101 c 3.695,3.798 6.091,6.696 5.991,12.694 0,2.199 -0.4,4.199 -1.198,6.097 -1.398,3.299 -4.593,6.497 -7.988,8.097"
               style="fill:#333333;fill-opacity:1;fill-rule:nonzero;stroke:none"
               id="path210"
               inkscape:label="outline" />
          </g>
          <g
             id="g15585">
            <g
               id="g212"
               transform="translate(610.1318,388.1512)">
              <path
                 d="m 0,0 -0.998,0.5 -20.368,0.1 -18.272,0.099 h -150.365 -17.274 c -19.669,0 -20.468,0 -22.165,-0.899 -1.198,-0.6 -2.396,-1.9 -3.095,-3.299 -0.5,-0.999 -0.599,-1.499 -0.599,-2.898 0,-2.399 0.599,-3.499 3.694,-6.698 1.398,-1.398 4.493,-4.897 6.989,-7.796 2.496,-2.798 5.691,-6.397 7.189,-7.796 10.883,-10.996 23.264,-16.193 48.125,-19.991 l 5.391,-0.8 46.228,-0.1 46.228,0.6 c 16.274,2.599 31.551,5.698 40.138,9.996 7.788,3.898 12.28,7.596 21.266,17.192 3.096,3.398 6.89,7.396 8.387,8.895 3.195,3.299 3.595,4.099 3.595,6.598 0,1.099 -0.199,1.899 -0.499,2.698 C 3.096,-2.299 1.398,-0.7 0,0"
                 style="fill:#fde113;fill-opacity:1;fill-rule:nonzero;stroke:none"
                 id="path214" />
            </g>
            <g
               id="g216"
               transform="translate(427.7163,424.1346)"
               style="fill:#fde113;fill-opacity:1"
               inkscape:label="cup">
              <path
                 d="m 0,0 c 8.387,-4.198 12.48,-17.192 12.68,-21.19 l 0.2,-2.099 h 110.228 v 0.999 c 0,4.099 1.997,20.491 12.081,23.689 1.997,0.6 3.395,2.299 3.595,4.298 1.797,20.091 2.297,59.174 2.297,59.174 l 0.099,9.795 H 68.094 c -55.114,0 -73.386,0.101 -73.386,0.101 v -8.796 c 0,-17.193 0,-48.378 1.099,-61.872 C -3.195,2.399 -1.797,0.899 0,0"
                 style="fill:#fde113;fill-opacity:1;fill-rule:nonzero;stroke:none"
                 id="path218"
                 inkscape:label="path218" />
            </g>
            <g
               id="g220"
               transform="translate(577.4824,454.621)"
               inkscape:label="cup">
              <path
                 d="m 0,0 -0.599,-13.194 c 0.3,6.298 8.188,0.299 12.58,-4.098 1.698,-1.699 4.094,-1.999 5.992,-0.7 2.296,1.5 4.792,3.598 7.188,2.999 0.6,-0.2 1.298,-0.2 1.898,0 10.882,2.598 18.969,14.993 18.071,29.486 -0.799,12.595 -8.586,23.09 -18.671,25.19 -2.896,0.599 -5.69,0.399 -8.287,-0.301 -0.899,-0.1 -1.797,-0.3 -2.695,-0.9 C 13.979,37.783 12.481,36.983 11.183,35.983 1.299,30.786 0.799,35.684 0.799,35.684 c 0,0 -0.4,-22.09 -0.4,-21.59 0,0 0.3,-0.2 0.4,-0.3 5.691,-1.199 7.289,8.996 11.981,10.995 4.694,1.899 9.985,2.898 15.676,0 C 36.145,20.891 40.237,9.696 32.85,-2.099 31.95,-3.599 24.263,-7.597 18.771,-6.997 13.28,-6.397 8.887,-1.6 6.091,0.1 3.895,1.399 1.498,0.8 0.3,-0.2 0.3,-0.399 0,0 0,0"
                 style="fill:#fee111;fill-opacity:1;fill-rule:nonzero;stroke:none"
                 id="path222" />
            </g>
          </g>
          <path
             d="m 0,0 c 0,-6.297 2.895,-9.595 4.992,-11.994 1.098,-1.2 1.897,-2.199 1.997,-3.099 0.1,-1.299 -0.2,-2.499 -0.899,-3.398 -0.798,-1 -1.897,-1.5 -3.095,-1.5 -0.699,0 -1.598,1 -2.795,2.299 -2.397,2.599 -5.991,6.398 -12.181,6.398 -7.489,0 -14.977,-5.898 -14.977,-16.993 0.1,-10.895 7.888,-16.692 15.176,-16.592 6.59,0 11.183,4.797 13.978,7.596 l 0.799,0.8 c 0.599,0.6 1.198,0.799 1.697,0.5 1.398,-0.7 2.397,-4.199 2.397,-7.997 0.099,-8.996 -6.291,-27.687 -26.159,-27.787 -8.088,0 -18.871,2.898 -24.263,16.992 l -1.098,2.799 v -2.599 c 0.1,-10.095 -7.289,-24.189 -21.067,-24.289 -9.485,-0.1 -17.672,7.496 -18.571,12.594 -0.3,1.799 0,3.699 0.899,4.898 0.399,0.5 0.898,0.999 1.697,0.999 0.699,0 1.098,-0.299 1.697,-0.699 0.999,-0.6 2.097,-1.4 4.793,-1.4 4.692,0 9.485,3.999 9.385,10.696 0,6.297 -5.092,10.595 -9.585,10.595 -4.493,0 -7.788,-3.798 -8.886,-7.497 -1.198,-3.798 -1.897,-5.097 -4.993,-5.197 -3.194,0 -4.692,2.998 -4.692,5.197 0,2.299 0.798,3.199 2.995,6.097 l 0.4,0.5 c 1.497,1.899 1.697,3.898 1.697,6.797 0,3.499 -2.396,13.594 -12.38,13.594 -5.791,0 -11.483,-4.898 -11.683,-5.098 l -0.299,-0.2 28.256,-63.571 0.399,0.1 c 0.4,0.1 39.938,9.396 97.747,9.696 57.811,0.4 97.449,-8.396 97.848,-8.496 l 0.399,-0.1 27.458,63.971 -0.299,0.2 c -0.201,0.2 -5.892,4.998 -11.783,4.897 -9.984,-0.1 -12.18,-10.195 -12.18,-13.693 0,-2.899 0.3,-4.898 1.797,-6.697 l 0.399,-0.5 c 2.297,-2.899 3.096,-3.798 3.096,-6.097 0,-2.2 -1.399,-5.198 -4.593,-5.198 -3.096,0 -3.794,1.299 -4.992,5.098 -1.198,3.698 -4.493,7.396 -8.986,7.396 -4.494,0 -9.486,-4.398 -9.386,-10.695 0,-6.697 4.892,-10.595 9.585,-10.595 2.596,0 3.795,0.799 4.693,1.499 0.599,0.4 0.998,0.7 1.697,0.7 0.799,0 1.398,-0.5 1.698,-1 0.898,-1.199 1.198,-2.998 0.898,-4.798 -0.799,-5.097 -8.886,-12.694 -18.471,-12.794 -13.879,-0.1 -21.367,13.894 -21.367,23.99 v 2.598 l -1.098,-2.798 C 64.599,-68.069 53.816,-71.167 45.829,-71.167 25.959,-71.268 19.37,-52.676 19.37,-43.68 c 0,3.798 0.998,7.297 2.296,7.996 0.5,0.3 1.098,0.101 1.698,-0.5 l 0.798,-0.799 c 2.796,-2.799 7.388,-7.397 14.078,-7.397 7.289,0 15.077,5.998 14.976,16.793 -0.099,11.095 -7.687,16.892 -15.175,16.792 -6.191,0 -9.786,-3.898 -12.082,-6.497 -1.198,-1.299 -2.096,-2.299 -2.795,-2.299 -1.199,0 -2.397,0.5 -3.095,1.499 -0.699,0.9 -0.999,2.099 -0.9,3.399 0.101,1 0.9,1.899 1.998,3.198 2.096,2.399 4.892,5.698 4.892,12.095 0,7.197 -5.392,14.993 -13.179,14.893 C 5.192,14.994 0,7.197 0,0"
             style="fill:#fde113;fill-opacity:1;fill-rule:nonzero;stroke:none"
             id="path230"
             transform="translate(486.8208,637.6381)" />
          <path
             d="m 0,0 c 0,-5.598 4.093,-10.096 9.085,-9.996 4.993,0 8.986,4.599 8.887,10.096 0,5.597 -4.094,9.995 -9.086,9.995 C 3.993,10.095 -0.101,5.498 0,0"
             style="fill:#fde113;fill-opacity:1;fill-rule:nonzero;stroke:none"
             id="path238"
             inkscape:label="path238"
             transform="translate(552.1191,598.9559)" />
          <path
             d="m 0,0 -0.599,-0.2 7.488,-17.492 0.4,0.1 c 0.299,0.1 28.356,7.996 87.163,8.396 h 0.101 c 49.722,0.3 87.463,-6.197 87.862,-6.297 l 0.399,-0.1 6.69,16.492 -0.599,0.201 C 188.506,1.2 150.266,9.496 94.452,9.096 38.54,8.796 0.299,0 0,0"
             style="fill:#fde113;fill-opacity:1;fill-rule:nonzero;stroke:none"
             id="path234"
             transform="translate(406.1465,540.0824)" />
          <path
             d="m 0,0 c 0,-5.598 4.094,-10.095 9.086,-9.996 4.992,0 8.986,4.599 8.886,10.096 0,5.597 -4.094,9.996 -9.086,9.996 C 3.894,10.095 -0.1,5.598 0,0"
             style="fill:#fde113;fill-opacity:1;fill-rule:nonzero;stroke:none"
             id="path226"
             transform="translate(430.3086,598.1561)" />
          <g
             id="g15577"
             inkscape:label="fill crown" />
          <g
             id="g240"
             transform="translate(595.0518,518.1923)"
             style="display:inline;fill:#333333;stroke:#000000;stroke-opacity:1"
             inkscape:label="outline crown">
            <path
               d="m 0,0 41.935,97.156 c 0,0 -12.88,10.795 -22.964,10.695 -11.483,-0.1 -19.17,-9.895 -19.869,-21.09 -6.091,2.599 -13.28,0.599 -17.373,-3.998 -0.799,7.496 -6.191,15.693 -16.375,15.693 -4.593,0 -9.385,-2.399 -12.68,-7.797 1.597,13.994 -8.587,30.586 -27.657,25.488 1.897,13.694 -5.991,26.988 -20.468,26.988 -14.478,-0.099 -22.265,-13.493 -20.169,-27.187 -19.17,4.798 -29.154,-11.895 -27.357,-25.888 -3.295,5.397 -8.188,7.696 -12.78,7.596 -10.084,-0.1 -15.476,-8.296 -16.075,-15.893 -4.193,4.498 -11.282,6.397 -17.373,3.698 -0.799,11.195 -8.687,20.891 -20.069,20.891 -9.984,-0.1 -22.764,-10.995 -22.764,-10.995 l 43.133,-96.656 m 167.039,61.572 c 1.997,-4.398 4.393,-6.897 8.287,-8.896 2.297,-1.2 -0.199,-1.899 -2.097,-1.899 -5.491,0 -11.781,3.698 -13.678,11.594 -0.899,3.999 0.5,5.898 2.696,5.898 2.695,0.1 3.295,-3.399 4.792,-6.697 m -12.181,30.086 c 4.693,0 8.486,-4.198 8.587,-9.496 0,-5.297 -3.794,-9.595 -8.487,-9.595 -4.693,0 -8.487,4.198 -8.586,9.496 0,5.297 3.794,9.595 8.486,9.595 M -50.82,74.167 c 2.895,0 5.291,-1.4 5.291,-5.198 0,-5.997 -7.588,-13.294 -16.474,-13.394 -8.686,-0.1 -15.476,6.097 -18.271,11.595 -2.297,4.497 2.196,-1 10.583,-1 10.584,0.2 13.678,7.997 18.871,7.997 m -88.063,-0.5 c 5.291,0 8.487,-7.797 18.87,-7.697 8.387,0.1 12.88,5.598 10.584,1.1 -2.696,-5.498 -9.486,-11.795 -18.072,-11.795 -8.986,-0.1 -16.674,7.197 -16.674,13.194 0,3.799 2.396,5.198 5.292,5.198 m -16.974,15.893 c 4.693,0 8.487,-4.199 8.586,-9.496 0,-5.298 -3.793,-9.596 -8.486,-9.596 -4.693,0 -8.487,4.199 -8.587,9.496 0,5.298 3.794,9.596 8.487,9.596 m -11.782,-30.187 c 1.498,3.299 1.997,6.797 4.693,6.797 2.196,0 3.695,-1.899 2.796,-5.897 -1.797,-7.897 -8.088,-11.695 -13.479,-11.695 -1.997,0 -4.393,0.7 -2.097,1.899 3.794,2 6.19,4.498 8.087,8.896 M -192.5,29.387 -220.456,92.258 c 0,0 5.691,4.898 11.382,4.998 9.885,0.1 11.882,-10.195 11.882,-12.994 0,-2.899 -0.3,-4.698 -1.598,-6.397 -2.596,-3.299 -3.594,-4.398 -3.594,-6.997 0,-2.599 1.797,-5.698 5.192,-5.698 3.394,0 4.193,1.8 5.391,5.498 1.198,3.798 4.393,7.097 8.487,7.097 4.093,0 8.986,-3.898 9.085,-10.096 0,-6.197 -4.393,-10.095 -8.985,-10.195 -4.194,0 -4.494,2.099 -6.49,2.099 -2.197,0 -3.594,-3.098 -3.095,-6.497 0.898,-5.198 9.185,-13.094 19.07,-12.994 13.978,0.1 21.666,13.994 21.566,24.789 0.899,-2.199 5.791,-17.892 24.862,-17.792 20.568,0.1 26.658,19.991 26.658,28.287 0,5.098 -1.997,10.695 -4.992,7.797 -2.396,-2.399 -7.289,-8.297 -14.478,-8.297 -6.689,0 -14.677,5.398 -14.677,16.093 -0.1,10.695 7.289,16.393 14.477,16.493 9.286,0.099 12.381,-8.597 14.977,-8.597 2.596,0 4.793,2.299 4.394,5.498 -0.4,3.198 -6.99,5.597 -6.99,15.093 0,6.797 4.893,14.493 12.481,14.594 7.588,0 12.68,-7.597 12.68,-14.394 0.1,-9.496 -6.49,-11.895 -6.79,-15.193 -0.298,-3.199 1.898,-5.398 4.494,-5.398 2.595,0 5.691,8.796 14.877,8.796 7.188,0 14.577,-5.597 14.676,-16.292 0.101,-10.696 -7.787,-16.293 -14.577,-16.293 -7.188,0 -12.081,5.697 -14.577,8.096 -2.995,2.899 -4.893,-2.799 -4.792,-7.896 0.1,-8.396 6.39,-28.088 26.958,-27.987 18.97,0.1 23.763,15.792 24.661,18.091 0.1,-10.795 7.888,-24.589 21.866,-24.488 9.785,0.1 18.072,7.996 18.871,13.193 0.499,3.399 -0.999,6.497 -3.095,6.497 -1.997,0 -2.197,-2.198 -6.391,-2.198 -4.492,0 -8.985,3.898 -9.086,10.095 0,6.197 4.893,10.096 8.987,10.195 4.093,0 7.289,-3.298 8.586,-6.996 1.298,-3.699 2.097,-5.498 5.492,-5.398 3.394,0 5.091,3.198 5.091,5.798 0,2.598 -0.998,3.698 -3.593,6.996 -1.399,1.699 -1.698,3.499 -1.698,6.397 0,2.799 1.797,13.094 11.682,13.194 5.791,0 11.482,-4.797 11.482,-4.797 L 3.195,30.886 c 0,0 -39.438,8.896 -97.947,8.496 -58.409,-0.599 -97.748,-9.995 -97.748,-9.995 m 98.047,-16.193 h -0.1 c -59.507,-0.4 -87.263,-8.396 -87.263,-8.396 l -6.99,16.493 c 0,0 37.842,8.795 94.253,9.195 56.412,0.3 94.354,-7.996 94.354,-7.996 L -6.49,6.897 c 0,0 -37.541,6.597 -87.963,6.297"
               style="display:inline;fill:#333333;fill-opacity:1;fill-rule:nonzero;stroke:none;stroke-opacity:1"
               id="path242" />
          </g>
        </g>
        <g
           id="g15567"
           inkscape:label="Text"
           style="display:none">
          <g
             id="g244"
             transform="translate(106.6318,350.2206)">
            <path
               d="m 0,0 c -4.772,-0.71 -9.194,-0.583 -13.273,0.48 -4.079,1.063 -7.696,2.766 -10.95,5.102 -3.261,2.437 -6.047,5.311 -8.477,8.919 -2.424,3.507 -4.273,7.458 -5.634,11.642 -1.994,6.28 -2.769,12.333 -2.219,18.061 0.543,5.831 2.216,11.225 4.927,16.074 2.704,4.951 6.451,9.257 11.236,13.018 4.684,3.754 10.124,6.642 16.321,8.661 6.783,2.261 13.341,3.287 19.787,2.882 6.34,-0.31 12.243,-1.664 17.509,-4.075 5.266,-2.412 9.881,-5.679 13.754,-9.908 3.873,-4.228 6.785,-9.127 8.54,-14.812 2.224,-6.774 2.262,-13.89 0.202,-21.139 4.141,-2.076 7.008,-4.639 8.601,-7.691 -0.181,-0.317 -1.036,-1.083 -2.573,-2.197 -1.537,-1.115 -3.566,-2.362 -6.09,-3.742 -2.523,-1.38 -5.546,-2.793 -8.863,-4.325 -3.317,-1.532 -6.945,-2.881 -10.78,-4.14 l -1.481,4.481 c 7.726,4.863 12.797,10.473 15.414,16.842 2.611,6.47 2.81,12.99 0.592,19.663 -1.605,4.881 -3.948,8.698 -7.127,11.445 -3.18,2.747 -6.809,4.653 -10.888,5.716 -4.079,1.064 -8.414,1.398 -13.005,1.006 C 10.932,71.569 6.379,70.569 1.95,69.17 -4.246,67.149 -9.811,64.661 -14.651,61.813 c -4.941,-2.856 -8.951,-6.162 -12.036,-9.814 -3.085,-3.653 -5.141,-7.75 -6.165,-12.289 -1.023,-4.539 -0.617,-9.496 1.113,-14.775 1.113,-3.387 2.393,-6.255 3.948,-8.699 1.556,-2.443 3.593,-4.551 6.004,-6.229 2.411,-1.677 5.403,-3.013 8.97,-3.905 3.566,-0.893 7.72,-1.544 12.654,-1.841 z"
               style="fill:#000000;fill-opacity:1;fill-rule:nonzero;stroke:none"
               id="path246" />
          </g>
          <g
             id="g248"
             transform="translate(128.2812,267.701)">
            <path
               d="m 0,0 c 2.874,-4.292 6.271,-7.331 10.094,-9.122 3.823,-1.791 7.989,-2.646 12.393,-2.468 4.404,0.178 9.057,1.185 13.948,3.223 4.796,1.931 9.649,4.578 14.459,7.933 4.522,3.135 8.619,6.649 12.192,10.536 3.572,3.887 6.327,8.028 8.163,12.416 1.836,4.386 2.66,8.913 2.472,13.579 -0.294,4.76 -1.987,9.432 -5.191,14.212 -2.98,4.387 -6.378,7.425 -10.295,9.109 -3.916,1.684 -8.076,2.436 -12.568,2.051 -4.396,-0.28 -9.031,-1.59 -13.722,-3.616 C 27.261,55.725 22.601,53.192 18.085,49.957 13.083,46.487 8.798,42.758 5.231,38.77 1.565,34.774 -1.089,30.641 -2.832,26.36 -4.574,22.081 -5.311,17.764 -4.929,13.212 -4.654,8.755 -2.98,4.387 0,0 m -5.084,-2.153 c -3.648,5.464 -6.104,11.103 -7.179,17.136 -1.074,6.034 -1.031,11.832 0.218,17.607 1.249,5.773 3.622,11.212 7.013,16.409 3.491,5.204 7.832,9.649 13.222,13.347 5.003,3.469 10.469,5.951 16.29,7.541 5.928,1.494 11.818,1.969 17.683,1.222 5.865,-0.746 11.499,-2.626 16.909,-5.74 5.409,-3.114 9.988,-7.4 13.855,-13.154 C 76.681,46.656 79.249,40.82 80.523,34.8 81.798,28.779 81.867,22.784 80.718,17.017 79.569,11.249 77.303,5.716 73.911,0.518 70.52,-4.68 66.079,-9.131 60.602,-13.037 c -4.81,-3.356 -10.275,-5.838 -16.209,-7.231 -6.027,-1.501 -12.024,-1.881 -17.989,-1.141 -5.965,0.74 -11.799,2.607 -17.315,5.817 -5.515,3.209 -10.2,7.59 -14.173,13.439"
               style="fill:#000000;fill-opacity:1;fill-rule:nonzero;stroke:none"
               id="path250" />
          </g>
          <g
             id="g252"
             transform="translate(181.6289,196.6483)">
            <path
               d="m 0,0 2.61,3.217 c 6.147,-5.305 11.65,-5.058 16.316,0.628 l 38.479,46.267 c 5.234,6.23 4.466,12.181 -2.212,17.96 L 57.804,71.288 111.711,25.287 97.06,4.224 93.074,7.021 c 2.355,4.116 3.741,7.661 4.153,10.738 0.412,3.076 0.237,5.913 -0.725,8.496 -0.962,2.582 -2.518,5.026 -4.673,7.432 -2.149,2.303 -4.816,4.88 -7.883,7.431 l -3.173,2.646 c -4.242,3.697 -7.571,3.994 -10.001,1.094 L 55.271,26.182 c -2.149,-2.577 -1.255,-5.672 2.667,-9.084 l 1.587,-1.324 c 2.33,-1.987 4.223,-3.392 5.878,-4.203 1.555,-0.816 3.079,-1.127 4.578,-1.031 1.494,0.196 2.961,0.798 4.504,1.811 1.543,1.012 3.46,2.457 5.752,4.331 l 3.598,-3.027 -22.603,-27.16 -3.598,3.026 1.774,2.146 c 0.843,0.969 1.574,2.134 2.193,3.495 0.624,1.26 1.03,2.811 0.93,4.431 -0.007,1.728 -0.619,3.52 -1.75,5.584 -1.13,2.063 -3.073,4.279 -5.934,6.742 l -4.872,4.165 c -1.268,1.038 -2.743,0.538 -4.516,-1.608 L 29.407,-5.05 c -4.765,-5.691 -3.497,-11.61 3.706,-17.763 l -2.611,-3.216 z"
               style="fill:#000000;fill-opacity:1;fill-rule:nonzero;stroke:none"
               id="path254" />
          </g>
          <g
             id="g256"
             transform="translate(267.0879,130.3778)">
            <path
               d="M 0,0 1.874,3.78 C 9.12,0.172 14.348,1.622 17.645,8.339 L 44.3,62.501 c 3.56,7.344 1.511,12.908 -6.26,16.89 L 39.914,83.17 103.078,51.382 93.822,27.406 89.3,29.153 c 1.324,4.559 1.792,8.351 1.505,11.383 -0.294,3.134 -1.162,5.824 -2.705,8.066 -1.543,2.241 -3.68,4.342 -6.297,6.108 -2.617,1.767 -5.841,3.596 -9.464,5.399 l -3.729,1.9 c -4.972,2.531 -8.358,2.113 -10.05,-1.35 L 47.774,38.723 c -1.517,-3.045 0.057,-5.793 4.717,-8.141 l 1.862,-0.899 c 2.691,-1.355 4.953,-2.228 6.683,-2.627 1.73,-0.399 3.336,-0.399 4.71,0.095 1.374,0.495 2.723,1.393 3.941,2.792 1.318,1.406 2.811,3.229 4.572,5.578 L 78.4,33.445 62.718,1.436 58.577,3.512 59.826,6.031 c 0.53,1.153 1.049,2.508 1.367,3.85 0.313,1.443 0.319,2.969 -0.081,4.57 -0.4,1.603 -1.405,3.267 -3.017,4.995 -1.612,1.729 -4.023,3.406 -7.34,5.127 l -5.697,2.894 C 43.609,28.188 42.26,27.289 41.004,24.87 L 29.77,2.092 c -3.305,-6.616 -0.656,-12.143 7.733,-16.39 l -1.873,-3.779 z"
               style="fill:#000000;fill-opacity:1;fill-rule:nonzero;stroke:none"
               id="path258" />
          </g>
          <g
             id="g260"
             transform="translate(366.6558,85.8485)">
            <path
               d="m 0,0 0.849,4.121 c 8.239,-1.815 13.024,0.318 14.266,6.193 l 12.938,61.833 c 1.636,7.629 -2.069,12.376 -10.92,14.358 L 17.982,90.626 88.653,75.381 84.42,49.69 80.185,50.031 c 0.187,5.097 -0.163,9.142 -1.256,12.225 -0.993,3.09 -2.549,5.533 -4.567,7.337 -2.017,1.804 -4.509,3.172 -7.37,4.007 -2.861,0.836 -6.122,1.645 -9.582,2.443 l -3.761,0.778 C 46.834,78.321 43.006,76.96 42.15,72.939 L 37.037,48.516 c -0.537,-2.678 0.169,-4.363 2.405,-4.83 l 4.578,-1.033 c 2.236,-0.467 4.366,-0.841 6.284,-1.024 2.017,-0.178 3.81,0.038 5.478,0.652 1.668,0.614 3.198,1.829 4.597,3.545 1.399,1.716 2.548,4.23 3.647,7.553 l 4.985,-1.108 -7.456,-35.25 -4.984,1.108 c 0.387,3.482 0.318,6.224 0.086,8.344 -0.331,2.115 -1.037,3.798 -2.124,5.153 -1.087,1.354 -2.655,2.374 -4.503,3.07 -1.949,0.69 -4.304,1.456 -7.153,2.089 l -1.624,0.304 c -4.166,0.854 -6.508,-0.21 -7.126,-3.198 L 28.607,7.916 c -1.086,-5.153 1.931,-8.521 9.151,-10.098 l 4.167,-0.853 c 5.697,-1.266 10.244,-1.791 13.948,-1.658 3.604,0.127 6.67,0.83 9.288,2.318 2.523,1.38 4.709,3.349 6.658,5.913 1.848,2.558 3.872,5.533 6.058,9.129 l 3.429,-1.918 -9.317,-26.216 z"
               style="fill:#000000;fill-opacity:1;fill-rule:nonzero;stroke:none"
               id="path262" />
          </g>
          <g
             id="g264"
             transform="translate(482.3057,66.8456)">
            <path
               d="m 0,0 -0.156,4.159 c 8.401,0.432 12.517,3.642 12.248,9.624 L 9.095,76.945 C 8.714,84.751 3.973,88.416 -5.035,88.048 l -0.156,4.159 72.225,3.462 2.307,-25.987 -4.267,-0.78 c -1.011,5.021 -2.449,8.794 -4.222,11.529 -1.775,2.734 -3.899,4.633 -6.285,5.906 -2.386,1.272 -5.134,1.911 -8.151,2.025 -3.018,0.114 -6.321,0.006 -9.926,-0.121 L 32.687,88.102 C 25.685,87.759 22.312,85.512 22.568,81.358 l 1.139,-24.943 c 0.169,-2.734 1.256,-4.089 3.46,-4.051 l 4.704,0.197 c 2.298,0.145 4.398,0.279 6.383,0.608 1.986,0.329 3.648,1.045 5.091,2.052 1.443,1.006 2.648,2.608 3.529,4.595 0.874,2.09 1.411,4.768 1.598,8.237 l 5.103,0.222 1.721,-35.99 -5.104,-0.222 c -0.512,3.425 -1.18,6.128 -2.005,8.11 -0.825,1.981 -1.918,3.437 -3.386,4.463 -1.468,1.025 -3.111,1.633 -5.128,1.809 -2.018,0.178 -4.528,0.222 -7.434,0.139 L 30.641,46.482 C 26.437,46.318 24.432,44.665 24.52,41.62 L 25.759,15.057 C 25.983,9.783 29.75,7.276 37.152,7.645 l 4.304,0.17 c 5.803,0.267 10.374,0.963 13.822,1.996 3.449,1.032 6.265,2.533 8.345,4.596 2.086,1.963 3.734,4.508 4.959,7.433 1.224,2.925 2.417,6.356 3.572,10.395 L 75.927,31.254 73.524,3.545 Z"
               style="fill:#000000;fill-opacity:1;fill-rule:nonzero;stroke:none"
               id="path266" />
          </g>
          <g
             id="g268"
             transform="translate(717.1758,151.3973)">
            <path
               d="m 0,0 c 1.193,-4.703 1.475,-9.262 0.926,-13.364 -0.644,-4.21 -1.911,-8.053 -3.904,-11.534 -1.992,-3.483 -4.602,-6.699 -7.844,-9.447 -3.241,-2.748 -6.808,-5.109 -10.911,-6.895 -5.954,-2.716 -11.787,-4.103 -17.508,-4.059 -5.716,-0.057 -11.206,1.119 -16.36,3.335 -5.153,2.215 -9.775,5.583 -13.854,9.901 -4.186,4.412 -7.516,9.589 -10.195,15.623 -2.917,6.627 -4.524,13.135 -4.924,19.619 -0.4,6.482 0.331,12.528 2.198,18.036 1.761,5.602 4.564,10.559 8.306,14.967 3.748,4.304 8.251,7.743 13.616,10.218 6.439,2.951 13.316,3.692 20.719,2.433 1.536,4.368 3.747,7.559 6.638,9.471 0.412,-0.177 1.162,-0.944 2.356,-2.393 1.193,-1.449 2.617,-3.393 4.266,-5.729 1.656,-2.437 3.336,-5.28 5.242,-8.514 1.804,-3.241 3.623,-6.686 5.259,-10.445 l -4.297,-1.901 c -5.566,7.275 -11.569,11.876 -18.208,13.794 -6.541,1.924 -13.03,1.411 -19.376,-1.432 -4.584,-2.121 -8.126,-4.888 -10.418,-8.389 -2.392,-3.508 -3.86,-7.363 -4.503,-11.573 -0.643,-4.21 -0.574,-8.578 0.313,-13.2 0.888,-4.621 2.262,-9.008 4.236,-13.357 2.68,-6.033 5.617,-11.338 9.014,-16.004 3.299,-4.672 6.935,-8.305 10.819,-11.109 3.88,-2.703 8.196,-4.362 12.744,-4.887 4.546,-0.524 9.306,0.388 14.384,2.642 3.223,1.424 5.928,3.121 8.126,4.887 2.292,1.874 4.066,4.021 5.509,6.655 1.443,2.633 2.355,5.742 2.929,9.439 0.574,3.697 0.711,7.977 0.505,12.946 z"
               style="fill:#000000;fill-opacity:1;fill-rule:nonzero;stroke:none"
               id="path270" />
          </g>
          <g
             id="g272"
             transform="translate(762.2305,149.6786)">
            <path
               d="M 0,0 -2.611,3.292 C 3.696,8.37 5.221,12.94 2.172,16.815 L -38.52,68.129 c -4.353,5.52 -10.063,5.361 -17.132,-0.375 l -2.612,3.292 31.048,25.256 2.612,-3.292 C -31.2,87.711 -32.268,82.253 -27.914,76.733 L 12.777,25.419 c 2.393,-3 5.985,-2.671 10.569,1.077 l 4.971,3.977 c 3.248,2.646 5.996,5.26 8.051,7.73 2.056,2.469 3.616,4.805 4.578,7.104 1.742,4.279 0.481,11.724 -3.793,22.435 l 3.192,1.931 14.487,-25.012 z"
               style="fill:#000000;fill-opacity:1;fill-rule:nonzero;stroke:none"
               id="path274" />
          </g>
          <g
             id="g276"
             transform="translate(828.9268,332.0663)">
            <path
               d="m 0,0 c -6.609,4.665 -12.63,3.063 -18.063,-4.807 l -3.362,2.431 18.232,26.477 3.36,-2.431 C -4.155,15.295 -3.018,9.876 3.591,5.21 l 34.306,-24.263 c 4.297,-2.981 7.908,-6.21 10.919,-9.476 3.011,-3.267 4.941,-6.907 5.897,-11.015 0.956,-4.108 0.644,-8.807 -0.942,-13.991 -1.58,-5.286 -4.715,-11.383 -9.593,-18.506 -3.135,-4.47 -6.427,-8.034 -9.88,-10.592 -3.555,-2.564 -7.164,-4.217 -10.931,-4.964 -3.766,-0.747 -7.583,-0.684 -11.449,0.189 -3.873,0.974 -7.49,2.678 -11.057,5.197 l -40.284,28.46 c -5.459,3.925 -10.768,2.164 -15.739,-5.065 l -3.361,2.43 22.64,33.061 3.361,-2.431 c -4.972,-7.23 -4.728,-12.807 0.832,-16.725 l 37.347,-26.41 c 2.518,-1.772 5.235,-3.532 8.146,-5.177 2.811,-1.653 5.872,-2.476 8.894,-2.691 3.024,-0.215 6.278,0.703 9.57,2.641 3.292,1.937 6.783,5.514 10.374,10.725 3.31,4.887 5.346,9.288 5.801,13.283 0.556,4.001 0.244,7.438 -0.849,10.521 -1.094,3.083 -2.868,5.818 -5.116,8.115 -2.256,2.4 -4.585,4.387 -6.991,5.963 z"
               style="fill:#000000;fill-opacity:1;fill-rule:nonzero;stroke:none"
               id="path278" />
          </g>
          <g
             id="g280"
             transform="translate(925.3701,385.2645)">
            <path
               d="m 0,0 c 0.918,3.007 1.443,5.888 1.574,8.642 0.131,2.754 -0.332,5.368 -1.275,7.647 -0.949,2.38 -2.48,4.418 -4.598,6.216 -2.117,1.798 -4.916,3.248 -8.394,4.349 -4.092,1.265 -7.627,1.652 -10.607,1.158 -2.88,-0.489 -5.409,-1.767 -7.595,-3.737 -2.086,-1.962 -3.928,-4.621 -5.534,-7.876 -1.505,-3.247 -2.879,-6.995 -4.221,-11.25 l -1.412,-4.766 c -0.743,-2.59 0.469,-4.343 3.842,-5.35 l 28.333,-8.778 c 3.38,-1.108 6.122,1.608 8.039,7.933 z M -79.371,18.049 C -81.195,11.832 -80.576,8.313 -77.303,7.3 l 25.366,-7.849 c 2.456,-0.76 4.104,0.159 4.847,2.748 1.83,6.115 3.028,11.073 3.49,14.966 0.462,3.894 0.369,7.04 -0.38,9.434 -0.75,2.392 -2.069,4.241 -4.055,5.539 -1.986,1.297 -4.46,2.36 -7.533,3.385 -11.256,3.558 -18.733,-0.475 -22.23,-12.086 z m 40.749,6.245 c 3.191,6.812 7.289,11.953 12.211,15.112 4.915,3.261 10.393,3.913 16.427,2.059 4.704,-1.43 8.546,-3.526 11.312,-6.096 C 4.096,32.8 6.089,29.773 7.307,26.292 8.519,22.911 8.956,19.075 8.606,14.985 8.357,10.901 7.521,6.578 6.19,2.121 3.936,-5.242 1.669,-12.402 -0.61,-19.36 -2.89,-26.317 -5.318,-34.099 -7.904,-42.601 l -3.992,1.273 c 2.592,8.4 1.379,13.408 -3.53,14.928 l -62.501,19.423 c -6.14,1.95 -10.537,-1.583 -13.21,-10.294 l -4.092,1.266 11.672,38.466 c 1.418,4.666 3.161,8.946 5.034,12.726 1.973,3.786 4.191,6.875 6.745,9.376 2.461,2.393 5.265,4.096 8.425,4.907 3.055,0.905 6.478,0.716 10.263,-0.468 2.867,-0.937 5.247,-2.107 7.046,-3.621 1.8,-1.513 3.218,-3.355 4.248,-5.425 1.031,-2.07 1.78,-4.463 2.144,-7.084 0.362,-2.621 0.631,-5.35 0.612,-8.3 z"
               style="fill:#000000;fill-opacity:1;fill-rule:nonzero;stroke:none"
               id="path282" />
          </g>
          <g
             id="g284"
             transform="translate(101.9785,632.3348)">
            <path
               d="m 0,0 c -7.315,0.4 -13.628,-0.7 -18.839,-3.4 -5.311,-2.701 -8.818,-6.902 -10.622,-12.703 -1.503,-4.8 -1.403,-9.001 0.201,-12.602 1.603,-3.6 4.409,-6.001 8.217,-7.201 3.006,-0.9 5.912,-0.699 8.818,0.7 2.806,1.401 5.812,3.801 8.818,7.402 3.707,4.4 7.014,8.501 9.72,12.201 2.806,3.701 5.511,6.802 8.417,9.202 2.806,2.401 6.013,3.901 9.42,4.701 3.407,0.7 7.716,0.3 12.726,-1.2 3.106,-1 6.012,-2.401 8.718,-4.301 2.705,-1.901 5.01,-4.201 6.714,-6.901 1.803,-2.701 2.906,-5.901 3.407,-9.602 0.501,-3.7 0,-7.801 -1.403,-12.301 -0.902,-2.901 -1.904,-5.401 -3.006,-7.402 -1.103,-2 -2.105,-3.6 -3.207,-4.901 -1.002,-1.299 -2.004,-2.3 -2.806,-2.9 -0.801,-0.7 -1.403,-1.1 -1.803,-1.4 0.701,-2 1.202,-3.901 1.703,-5.701 0.401,-1.9 0.601,-3.701 0.501,-5.401 -6.613,1.001 -12.526,2.101 -17.536,3.101 -5.011,1 -9.42,2.1 -13.127,3.3 l 1.302,4.101 c 3.708,-1.1 7.315,-1.4 10.823,-0.9 3.507,0.6 6.714,1.7 9.62,3.4 2.906,1.701 5.411,3.801 7.515,6.301 2.105,2.601 3.607,5.201 4.409,8.001 0.501,1.801 0.802,3.801 0.902,6.101 0.1,2.301 -0.2,4.601 -0.902,6.902 -0.701,2.3 -1.804,4.3 -3.306,6.2 -1.504,1.901 -3.608,3.201 -6.313,4.101 -3.308,1 -6.514,1 -9.621,0 -3.106,-1 -5.912,-3.3 -8.517,-6.801 -3.107,-4.1 -6.012,-8.001 -8.718,-11.802 -2.705,-3.8 -5.611,-7.001 -8.517,-9.601 -3.007,-2.601 -6.213,-4.401 -9.821,-5.401 -3.607,-1 -7.816,-0.8 -12.626,0.7 -3.507,1.1 -6.513,2.7 -8.918,4.801 -2.505,2.1 -4.409,4.601 -5.812,7.301 -1.403,2.801 -2.205,5.701 -2.505,8.901 -0.301,3.201 0.1,6.301 1.102,9.401 1.102,3.601 2.705,6.502 4.81,8.602 2.104,2.2 4.008,4.201 5.611,6.001 -1.302,3.201 -1.903,6.401 -1.903,9.501 4.208,0 8.517,-0.399 13.026,-1.3 4.51,-0.8 9.22,-2 14.23,-3.6 z"
               style="fill:#000000;fill-opacity:1;fill-rule:nonzero;stroke:none"
               id="path286" />
          </g>
          <g
             id="g288"
             transform="translate(176.4316,651.538)">
            <path
               d="m 0,0 -3.407,2 c 4.71,8.102 3.608,14.103 -3.306,18.203 l -52.308,30.605 c -2.806,1.6 -5.312,0.6 -7.416,-3.1 -2.906,-5.001 -3.708,-10.002 -2.304,-14.903 1.403,-5.001 4.909,-10.101 10.521,-15.402 l -3.006,-3.001 -22.346,17.203 c 1.202,1.6 2.405,3.101 3.507,4.601 1.103,1.5 2.004,2.9 2.906,4.3 l 25.653,43.607 c 0.902,1.6 1.804,3.2 2.606,5.001 0.801,1.7 1.603,3.6 2.404,5.401 l 23.749,-13.903 -1.302,-3.3 c -12.626,6.201 -22.246,3.701 -28.76,-7.401 -2.204,-3.801 -2.004,-6.401 0.501,-7.901 L 0,31.405 c 6.915,-4.101 12.827,-2 17.637,6.101 l 3.406,-2.001 z"
               style="fill:#000000;fill-opacity:1;fill-rule:nonzero;stroke:none"
               id="path290" />
          </g>
          <g
             id="g292"
             transform="translate(245.0732,748.2528)">
            <path
               d="m 0,0 c 3.507,3.4 5.812,7.101 6.915,11.002 1.102,3.9 1.202,7.901 0.3,12.102 -0.902,4.2 -2.606,8.301 -5.211,12.602 -2.605,4.2 -5.812,8.401 -9.72,12.401 -3.707,3.801 -7.616,7.001 -11.824,9.802 -4.209,2.7 -8.518,4.701 -12.827,5.701 -4.308,1.1 -8.717,1.1 -13.027,0.1 -4.308,-1 -8.517,-3.4 -12.325,-7.201 -3.607,-3.501 -5.812,-7.201 -6.814,-11.202 -1.002,-4 -0.902,-8.001 0.1,-12.202 1.002,-4.101 2.906,-8.201 5.612,-12.302 2.705,-4.1 5.912,-8.001 9.52,-11.802 4.008,-4.1 8.217,-7.601 12.525,-10.401 4.309,-2.801 8.618,-4.701 12.827,-5.601 4.309,-1 8.417,-0.9 12.526,0.1 C -7.415,-5.701 -3.607,-3.5 0,0 m 2.806,-4.4 c -4.51,-4.301 -9.42,-7.502 -14.831,-9.502 -5.411,-2 -10.922,-2.901 -16.433,-2.6 -5.612,0.299 -11.023,1.6 -16.435,4 -5.31,2.4 -10.22,5.901 -14.529,10.302 -4.009,4.1 -7.215,8.901 -9.62,14.202 -2.405,5.301 -3.708,10.802 -3.908,16.502 -0.301,5.702 0.601,11.302 2.605,16.803 2.004,5.501 5.311,10.602 10.021,15.103 4.609,4.5 9.619,7.8 15.031,9.901 5.411,2.2 10.922,3.2 16.534,3.001 5.612,-0.101 11.023,-1.401 16.434,-3.801 C -6.914,67.11 -2.004,63.71 2.405,59.109 6.313,55.108 9.419,50.408 11.825,45.007 14.129,39.606 15.532,34.005 15.732,28.205 15.933,22.403 15.131,16.703 13.127,11.002 10.922,5.401 7.516,0.2 2.806,-4.4"
               style="fill:#000000;fill-opacity:1;fill-rule:nonzero;stroke:none"
               id="path294" />
          </g>
          <g
             id="g296"
             transform="translate(351.9937,846.1678)">
            <path
               d="m 0,0 c 1.403,-4.4 2.004,-8.601 1.704,-12.602 -0.301,-4.001 -1.303,-7.701 -3.007,-11.102 -1.703,-3.4 -4.008,-6.601 -6.914,-9.401 -2.906,-2.8 -6.213,-5.201 -9.92,-7.201 -5.511,-2.901 -11.023,-4.601 -16.534,-5.001 -5.512,-0.4 -10.723,0.3 -15.833,2.1 -5.01,1.801 -9.62,4.601 -13.929,8.402 -4.209,3.801 -7.816,8.501 -10.722,14.002 -3.206,6.001 -5.211,12.102 -5.912,18.103 -0.702,6.001 -0.401,11.802 0.902,17.102 1.303,5.401 3.707,10.202 7.014,14.603 3.307,4.301 7.416,7.801 12.426,10.401 5.912,3.201 12.526,4.401 19.641,3.601 1.202,4.201 3.106,7.301 5.711,9.302 0.401,-0.101 1.203,-0.801 2.405,-2.101 1.303,-1.3 2.706,-3 4.409,-5.101 1.704,-2.2 3.507,-4.7 5.512,-7.601 2.004,-2.901 3.807,-6.101 5.611,-9.502 l -3.908,-2.1 c -5.712,6.501 -11.824,10.402 -18.238,11.802 -6.413,1.4 -12.525,0.5 -18.438,-2.601 -4.208,-2.3 -7.415,-5.1 -9.419,-8.501 -2.004,-3.4 -3.207,-7.101 -3.607,-11.102 -0.301,-4 0,-8.101 1.202,-12.401 1.102,-4.301 2.706,-8.402 4.81,-12.302 2.906,-5.501 6.113,-10.302 9.62,-14.503 3.507,-4.2 7.115,-7.4 11.123,-9.701 3.908,-2.3 8.117,-3.6 12.425,-3.801 4.409,-0.2 8.919,0.901 13.528,3.401 2.906,1.6 5.411,3.301 7.416,5.201 2.004,1.9 3.607,4.101 4.81,6.601 1.202,2.6 1.904,5.601 2.204,9.001 0.301,3.501 0.2,7.502 -0.3,12.202 z"
               style="fill:#000000;fill-opacity:1;fill-rule:nonzero;stroke:none"
               id="path298" />
          </g>
          <g
             id="g300"
             transform="translate(437.1694,842.7675)">
            <path
               d="m 0,0 -0.802,3.901 c 4.91,1 7.215,2.2 6.914,3.6 -0.2,1.101 -1.803,3.001 -4.709,5.601 l -29.561,24.904 -4.71,-6.501 c -0.801,-1.1 -1.403,-2.2 -1.904,-3.501 -0.501,-1.3 -0.701,-2.7 -0.601,-4.3 L -31.766,6.601 C -30.463,0.7 -25.553,-1.3 -17.035,0.5 l 0.801,-3.9 -37.277,-7.902 -0.801,3.901 c 7.916,1.7 11.223,5.501 9.92,11.401 l -12.626,59.11 c -1.302,6.301 -6.212,8.501 -14.73,6.701 l -0.802,3.9 36.676,7.802 0.801,-3.901 c -7.515,-1.6 -10.621,-5.501 -9.319,-11.802 l 6.714,-31.305 23.849,34.806 c 1.603,2.2 2.606,3.9 3.006,5.101 0.401,1.2 0.401,2.8 0,4.7 -0.501,2.301 -3.707,2.801 -9.619,1.6 l -0.802,3.901 33.268,7.101 0.802,-3.901 c -2.505,-0.799 -4.609,-1.6 -6.113,-2.4 -1.503,-0.8 -3.005,-1.8 -4.208,-3.1 -1.303,-1.2 -2.505,-2.701 -3.908,-4.601 -1.303,-1.8 -3.006,-4.3 -5.011,-7.301 L -20.743,48.908 16.734,16.903 c 1.503,-1.001 2.806,-2.001 4.109,-2.901 1.303,-0.9 2.605,-1.6 3.908,-2.1 1.302,-0.5 2.706,-0.9 4.208,-1 1.503,-0.1 3.307,0 5.312,0.5 l 0.801,-3.901 z"
               style="fill:#000000;fill-opacity:1;fill-rule:nonzero;stroke:none"
               id="path302" />
          </g>
          <g
             id="g304"
             transform="translate(542.8867,845.1678)">
            <path
               d="m 0,0 0.401,3.901 c 8.618,-0.8 13.228,1.8 13.828,7.801 l 2.606,27.304 c -1.403,1.5 -4.71,2.401 -9.72,2.901 l -23.549,2.3 c -1.703,0.2 -3.407,0.2 -5.01,0 -1.603,-0.2 -3.106,-0.5 -4.61,-1.1 L -28.658,15.803 C -29.26,9.802 -25.553,6.401 -17.436,5.601 l -0.4,-3.901 -38.379,3.701 0.401,3.901 c 8.918,-0.901 13.627,1.7 14.229,7.701 l 5.611,58.209 c 0.702,7.701 -3.306,11.902 -12.225,12.802 l 0.401,3.901 38.379,-3.701 -0.401,-3.901 c -8.016,0.8 -12.425,-2.7 -13.127,-10.401 l -2.204,-22.404 c 2.805,-1.2 5.912,-2 9.319,-2.3 L 7.716,46.907 c 4.91,-0.5 8.218,-0.3 10.121,0.5 l 2.205,22.404 c 0.701,7.701 -3.207,12.002 -11.824,12.802 l 0.4,3.901 37.878,-3.601 -0.4,-3.901 C 38.179,79.813 33.77,76.312 33.068,68.611 L 27.457,10.402 C 26.855,4.401 30.563,1 38.479,0.2 l -0.4,-3.901 z"
               style="fill:#000000;fill-opacity:1;fill-rule:nonzero;stroke:none"
               id="path306" />
          </g>
          <g
             id="g308"
             transform="translate(644.0957,820.6639)">
            <path
               d="m 0,0 c 4.509,-2 8.818,-2.7 12.826,-2.2 4.009,0.5 7.817,1.9 11.323,4.301 3.508,2.4 6.714,5.6 9.721,9.601 2.905,4.001 5.511,8.601 7.716,13.702 2.104,4.801 3.607,9.701 4.609,14.602 0.902,4.901 1.103,9.602 0.401,14.003 -0.701,4.4 -2.305,8.501 -4.81,12.101 -2.605,3.601 -6.313,6.501 -11.323,8.702 -4.609,2 -8.919,2.7 -12.927,2 -4.009,-0.6 -7.816,-2.2 -11.224,-4.701 -3.406,-2.5 -6.512,-5.8 -9.318,-9.801 -2.806,-4.001 -5.211,-8.501 -7.315,-13.302 -2.305,-5.301 -3.908,-10.402 -4.91,-15.503 -0.903,-5.001 -1.103,-9.701 -0.401,-14.002 0.701,-4.3 2.305,-8.201 4.91,-11.502 C -8.117,4.701 -4.51,2 0,0 m -3.006,-4.3 c -5.712,2.5 -10.522,5.8 -14.43,10.001 -3.908,4.201 -6.814,9.002 -8.618,14.202 -1.904,5.201 -2.706,10.802 -2.505,16.703 0.201,5.901 1.603,11.702 4.008,17.403 2.305,5.301 5.512,10.101 9.52,14.302 4.009,4.2 8.618,7.501 13.829,9.901 5.11,2.401 10.722,3.701 16.533,4.001 5.913,0.3 11.825,-0.9 17.737,-3.501 5.912,-2.5 10.823,-5.9 14.931,-10.101 4.008,-4.201 7.114,-8.902 9.019,-14.102 2.003,-5.201 2.906,-10.702 2.705,-16.603 C 59.522,32.105 58.22,26.204 55.614,20.303 53.41,15.203 50.203,10.502 46.095,6.301 41.986,2.101 37.276,-1.3 32.066,-3.7 26.855,-6.201 21.244,-7.501 15.131,-7.801 9.219,-8.101 3.106,-6.901 -3.006,-4.3"
               style="fill:#000000;fill-opacity:1;fill-rule:nonzero;stroke:none"
               id="path310" />
          </g>
          <g
             id="g312"
             transform="translate(701.6143,786.9589)">
            <path
               d="M 0,0 2.505,3.101 C 8.518,-1.7 13.026,-2.3 15.933,1.4 l 39.081,48.208 c 4.208,5.201 2.905,10.501 -3.809,15.902 l 2.506,3.101 29.661,-24.004 -2.506,-3.101 C 74.554,46.607 69.343,46.507 65.134,41.307 L 26.054,-6.901 c -2.305,-2.9 -1.303,-6.101 3.206,-9.702 l 4.71,-3.8 c 3.106,-2.5 6.012,-4.501 8.718,-5.901 2.706,-1.4 5.21,-2.401 7.416,-2.901 4.308,-0.799 10.921,1.901 19.94,8.102 l 2.405,-2.601 -20.141,-18.503 z"
               style="fill:#000000;fill-opacity:1;fill-rule:nonzero;stroke:none"
               id="path314" />
          </g>
          <g
             id="g316"
             transform="translate(806.6309,676.1415)">
            <path
               d="M 0,0 3.307,2.201 C 7.615,-4.2 12.426,-5.601 17.736,-2 L 67.939,32.905 -9.62,14.302 l -2.105,3.001 44.192,65.91 -48.4,-32.005 c -6.414,-4.201 -7.215,-10.001 -2.205,-17.303 l -3.306,-2.2 -17.737,26.204 3.307,2.2 c 4.509,-6.601 10.321,-7.701 17.536,-3.4 l 49.302,31.905 1.101,0.7 c 0.802,0.5 1.504,1.1 2.005,1.7 0.501,0.6 0.801,1.501 0.801,2.601 0,1.1 -0.4,2.5 -1.101,4.1 -0.703,1.6 -1.905,3.701 -3.608,6.101 l 3.307,2.201 L 48.6,83.613 8.116,24.604 77.56,40.807 92.49,18.703 l -3.306,-2.2 c -1.604,2.4 -3.107,4.201 -4.309,5.301 -1.303,1.2 -2.405,1.9 -3.508,2.1 -1.101,0.3 -2.104,0.2 -3.006,-0.1 -0.902,-0.4 -1.803,-0.8 -2.706,-1.4 L 26.054,-12.802 c -5.813,-3.901 -6.514,-9.201 -2.004,-15.802 l -3.308,-2.201 z"
               style="fill:#000000;fill-opacity:1;fill-rule:nonzero;stroke:none"
               id="path318" />
          </g>
          <g
             id="g320"
             transform="translate(907.7393,592.3285)">
            <path
               d="m 0,0 c 6.213,3.801 10.822,8.301 13.628,13.502 2.806,5.201 3.307,10.702 1.503,16.403 -1.503,4.801 -3.908,8.201 -7.316,10.201 -3.406,2.101 -7.013,2.501 -10.921,1.301 -3.007,-0.901 -5.312,-2.801 -6.915,-5.501 -1.603,-2.7 -2.605,-6.401 -3.106,-11.102 C -13.729,19.003 -14.029,13.802 -14.229,9.202 -14.43,4.601 -14.931,0.5 -15.934,-3.1 c -1.002,-3.601 -2.705,-6.601 -5.11,-9.202 -2.404,-2.5 -6.112,-4.6 -11.123,-6.201 -3.106,-1 -6.312,-1.4 -9.619,-1.4 -3.307,0 -6.514,0.7 -9.52,1.901 -3.007,1.299 -5.712,3.3 -8.216,6.001 -2.506,2.8 -4.41,6.4 -5.813,10.901 -0.901,2.9 -1.503,5.501 -1.804,7.801 -0.2,2.3 -0.3,4.201 -0.2,5.901 0.1,1.6 0.301,3.001 0.701,4.001 0.301,1 0.602,1.7 0.701,2.1 -1.703,1.2 -3.206,2.501 -4.609,3.8 -1.402,1.301 -2.605,2.701 -3.507,4.101 6.113,2.901 11.524,5.401 16.234,7.401 4.71,2.001 8.918,3.601 12.626,4.701 l 1.302,-4.101 c -3.708,-1.2 -6.814,-3 -9.42,-5.4 -2.604,-2.501 -4.609,-5.201 -6.011,-8.202 -1.404,-3 -2.305,-6.201 -2.606,-9.501 -0.301,-3.3 0,-6.301 0.902,-9.102 0.601,-1.8 1.504,-3.6 2.706,-5.501 1.302,-1.899 2.805,-3.7 4.609,-5.1 1.804,-1.5 3.908,-2.601 6.213,-3.3 2.305,-0.701 4.81,-0.601 7.516,0.199 3.306,1.001 6.011,2.901 7.916,5.401 1.904,2.601 3.005,6.101 3.207,10.402 0.2,5.101 0.4,10.001 0.501,14.702 0.099,4.701 0.6,8.901 1.603,12.702 0.901,3.801 2.605,7.201 5.01,10.002 2.405,2.8 6.013,5 10.822,6.501 3.508,1.1 6.914,1.5 10.121,1.1 3.206,-0.4 6.213,-1.3 8.918,-2.8 2.706,-1.501 5.111,-3.501 7.115,-6.001 2.004,-2.501 3.507,-5.301 4.509,-8.402 1.103,-3.6 1.404,-6.901 0.903,-9.801 -0.501,-3.001 -0.903,-5.701 -1.204,-8.202 2.907,-1.9 5.211,-4.2 6.915,-6.801 C 22.847,5.101 19.039,3 14.931,1.2 10.822,-0.7 6.213,-2.4 1.202,-3.9 Z"
               style="fill:#000000;fill-opacity:1;fill-rule:nonzero;stroke:none"
               id="path322" />
          </g>
          <g
             id="g324"
             transform="translate(102.7622,513.891)" />
          <g
             id="g328"
             transform="translate(890.0225,513.891)"
             style="display:inline" />
        </g>
        <g
           id="g9674"
           transform="matrix(0.78168228,0.49962693,-0.49962693,0.78168228,344.02883,-146.49007)"
           style="display:inline">
          <path
             d="m 138.67176,635.68302 q 6.04108,-1.66648 11.15793,-6.1416 5.13601,-4.40569 7.83452,-10.60478 2.91162,-6.78093 3.36179,-14.90034 0.46934,-8.04998 -2.4039,-18.46563 -3.08397,-11.17948 -7.63809,-19.56229 -4.53496,-8.31339 -11.1794,-16.41846 l -17.22054,4.75044 0.26816,0.97213 q 8.69166,6.0459 15.06793,15.34577 6.37625,9.29987 8.86639,18.32678 3.52452,12.77653 0.68712,21.18087 -2.81824,8.47378 -10.80357,10.6766 -6.87434,1.89634 -11.07651,-0.60582 -4.183,-2.43273 -7.88474,-8.80904 -2.82537,-4.82472 -5.41369,-10.68622 -2.56917,-5.79207 -5.83511,-12.21386 -6.709076,-12.94416 -15.561149,-17.67553 -8.902377,-4.64278 -20.220713,-1.52052 -12.98486,3.58197 -18.221455,16.83258 -5.306048,13.26975 -0.651392,30.1431 3.007324,10.90173 7.599756,19.42343 4.592432,8.52168 9.582344,14.69207 l 16.248427,-4.48227 -0.268177,-0.97211 q -6.627685,-4.52306 -12.553791,-13.27461 -5.976396,-8.66296 -8.753868,-18.73143 -3.045635,-11.0406 -0.320783,-19.04029 2.744014,-7.93024 9.965542,-9.92236 6.457712,-1.78141 11.057343,0.53639 4.599631,2.31779 8.861647,10.18341 2.198041,4.17585 5.847079,11.9864 3.64904,7.81055 6.67793,13.10218 6.23498,10.68385 14.02397,14.81183 7.78896,4.12796 18.899,1.06318 z"
             id="path9587"
             style="font-size:99.9997px;-inkscape-font-specification:'sans-serif, Normal';letter-spacing:11.25px;fill:#333333;fill-rule:evenodd;stroke-width:8.33192;stroke-linecap:round;stroke-miterlimit:1.8;paint-order:markers fill stroke" />
          <path
             d="m 147.90657,778.75297 -20.73104,-32.22879 79.54214,-51.16517 -7.71568,-11.99492 -79.54216,51.16515 -20.731041,-32.2288 -10.662149,6.8584 49.17778,76.45253 z"
             id="path9589"
             style="font-size:99.9997px;-inkscape-font-specification:'sans-serif, Normal';letter-spacing:11.25px;fill:#333333;fill-rule:evenodd;stroke-width:8.33192;stroke-linecap:round;stroke-miterlimit:1.8;paint-order:markers fill stroke" />
          <path
             d="m 248.84168,872.35061 q 9.62681,-1.47503 18.88537,-7.41824 9.31455,-5.89788 17.65302,-16.19993 8.33846,-10.30206 12.15538,-20.74239 3.82758,-10.33902 3.24035,-19.80328 -0.57393,-9.82416 -5.31739,-18.38964 -4.68747,-8.52018 -13.70175,-15.81633 -8.79034,-7.11488 -18.3695,-10.04942 -9.52316,-2.88923 -19.04866,-1.42487 -9.52549,1.46435 -18.79473,7.30625 -9.21324,5.88722 -17.59702,16.24525 -8.24783,10.19007 -12.08609,20.42779 -3.88358,10.29372 -3.40028,20.22986 0.48592,9.47492 5.40802,18.27766 4.97809,8.84808 13.60046,15.82701 8.9583,7.25084 18.47078,10.03875 9.52317,2.88922 18.90204,1.49153 z m 25.00457,-32.95363 q -13.14213,16.23692 -27.53564,19.13595 -14.43882,2.95502 -27.03644,-7.24147 -12.70958,-10.28712 -12.828,-25.02475 -0.10769,-14.63632 13.0344,-30.87324 13.27809,-16.40489 27.73825,-19.1573 14.41484,-2.69641 26.84449,7.36412 12.42964,10.06055 12.74001,24.67553 0.32103,14.71627 -12.95707,31.12116 z"
             id="path9591"
             style="font-size:99.9997px;-inkscape-font-specification:'sans-serif, Normal';letter-spacing:11.25px;fill:#333333;fill-rule:evenodd;stroke-width:8.33192;stroke-linecap:round;stroke-miterlimit:1.8;paint-order:markers fill stroke" />
          <path
             d="m 430.16548,860.10968 q -3.14844,-2.96163 -5.69136,-5.47725 -2.4751,-2.49138 -6.80083,-5.79744 -3.67664,-2.768 -8.24487,-5.39578 -4.47616,-2.67138 -10.30923,-4.75693 -10.98787,-3.92861 -21.10005,-4.10177 -10.0686,-0.0811 -19.0679,4.12152 -8.81515,4.11544 -16.01837,12.70854 -7.22747,8.66093 -11.93211,21.81924 -4.46211,12.48005 -4.4515,23.57591 0.0103,11.09584 4.23254,20.25505 4.09119,8.88297 11.94313,15.5917 7.91977,6.73298 19.04329,10.71009 8.13917,2.9101 16.91376,3.82896 8.84244,0.94311 20.51539,-0.46761 l 5.69891,-15.93918 -1.01741,-0.36377 q -10.84046,4.00327 -20.18722,4.25679 -9.34677,0.2535 -18.7068,-3.09309 -7.66439,-2.74033 -12.93931,-7.45671 -5.23134,-4.62431 -8.1797,-11.56874 -2.86122,-6.76027 -2.71763,-15.50609 0.18718,-8.65371 3.82478,-18.82767 3.80736,-10.64873 9.3964,-17.29459 5.65685,-6.62159 11.92302,-9.81246 6.54239,-3.3216 13.72326,-3.50803 7.22445,-0.0944 14.27839,2.42771 9.69917,3.46784 16.98918,9.82267 7.29,6.35483 12.30651,15.64513 l 0.94956,0.33952 z"
             id="path9593"
             style="font-size:99.9997px;-inkscape-font-specification:'sans-serif, Normal';letter-spacing:11.25px;fill:#333333;fill-rule:evenodd;stroke-width:8.33192;stroke-linecap:round;stroke-miterlimit:1.8;paint-order:markers fill stroke" />
          <path
             d="m 555.9566,859.83386 -18.50826,-0.37389 -43.38231,46.89013 -10.42859,-11.59393 0.73467,-36.36838 -14.25929,-0.28805 -2.1662,107.23273 14.25929,0.28805 1.13038,-55.95691 50.93763,57.00872 17.28399,0.34915 -46.87268,-51.37906 z"
             id="path9595"
             style="font-size:99.9997px;-inkscape-font-specification:'sans-serif, Normal';letter-spacing:11.25px;fill:#333333;fill-rule:evenodd;stroke-width:8.33192;stroke-linecap:round;stroke-miterlimit:1.8;paint-order:markers fill stroke" />
          <path
             d="m 666.80278,828.61856 -13.58171,4.35281 16.02629,50.00545 -50.96577,16.33406 -16.02629,-50.00543 -13.58172,4.35283 32.73409,102.13728 13.58173,-4.35281 -12.83862,-40.05922 50.96576,-16.33407 12.83862,40.05921 13.58172,-4.35281 z"
             id="path9597"
             style="font-size:99.9997px;-inkscape-font-specification:'sans-serif, Normal';letter-spacing:11.25px;fill:#333333;fill-rule:evenodd;stroke-width:8.33192;stroke-linecap:round;stroke-miterlimit:1.8;paint-order:markers fill stroke" />
          <path
             d="m 829.15859,833.14536 q 0.73592,-9.71132 -2.96417,-20.0724 -3.64329,-10.4054 -11.79741,-20.85397 -8.15411,-10.44856 -17.46351,-16.52348 -9.20829,-6.06245 -18.56086,-7.62655 -9.70018,-1.65829 -19.11528,1.02943 -9.35832,2.64341 -18.50081,9.77827 -8.91536,6.95758 -13.93628,15.62717 -4.96416,8.62529 -5.6876,18.2355 -0.72344,9.61021 2.87555,19.95882 3.65576,10.30429 11.8542,20.80964 8.06548,10.335 17.17267,16.38498 9.15151,6.10677 18.94033,7.87862 9.34008,1.66522 19.02665,-1.14298 9.74335,-2.85254 18.48835,-9.67717 9.0857,-7.09053 13.94874,-15.72829 4.96414,-8.62527 5.71943,-18.07759 z m -26.45943,-31.7973 q 12.85159,16.46785 12.42704,31.14425 -0.38023,14.7332 -13.15701,24.70426 -12.89035,10.05969 -27.27439,6.84861 -14.28294,-3.19859 -27.13453,-19.66644 -12.98455,-16.63821 -12.40211,-31.34646 0.62675,-14.65148 13.23318,-24.48959 12.60642,-9.83812 26.91429,-6.84171 14.409,3.00887 27.39353,19.64708 z"
             id="path9599"
             style="font-size:99.9997px;-inkscape-font-specification:'sans-serif, Normal';letter-spacing:11.25px;fill:#333333;fill-rule:evenodd;stroke-width:8.33192;stroke-linecap:round;stroke-miterlimit:1.8;paint-order:markers fill stroke" />
          <path
             d="m 844.04372,662.41949 -38.14563,56.116 88.70139,60.29602 8.01788,-11.79507 -78.21688,-53.16903 30.12776,-44.32092 z"
             id="path9601"
             style="font-size:99.9997px;-inkscape-font-specification:'sans-serif, Normal';letter-spacing:11.25px;fill:#333333;fill-rule:evenodd;stroke-width:8.33192;stroke-linecap:round;stroke-miterlimit:1.8;paint-order:markers fill stroke" />
          <path
             d="m 884.1601,542.37283 -3.85676,13.73083 88.97298,24.99106 -68.6046,11.70509 -2.29847,8.18302 52.53476,45.50669 -88.973,-24.99106 -3.60354,12.82932 103.2586,29.00363 5.25923,-18.72385 -49.75617,-43.67877 64.96896,-10.48172 5.3566,-19.07059 z"
             id="path9603"
             style="font-size:99.9997px;-inkscape-font-specification:'sans-serif, Normal';letter-spacing:11.25px;fill:#333333;fill-rule:evenodd;stroke-width:8.33192;stroke-linecap:round;stroke-miterlimit:1.8;paint-order:markers fill stroke" />
          <path
             d="m 78.392093,292.04316 q -3.150384,2.97125 -5.8185,5.36365 -2.639784,2.32603 -6.205145,6.45402 -2.988386,3.51109 -5.889973,7.92222 -2.939644,4.31643 -5.374718,10.02496 -4.586989,10.75325 -5.36585,20.85571 -0.684155,10.0644 2.979667,19.31598 3.587707,9.06222 11.749914,16.7806 8.228582,7.74668 21.105945,13.23975 12.213575,5.20993 23.310767,5.86392 11.0972,0.65398 20.50986,-3.0196 9.1286,-3.55939 16.30806,-11.01 7.20778,-7.51699 11.85142,-18.40301 3.39778,-7.96537 4.84226,-16.6855 1.47281,-8.78651 0.76117,-20.5447 l -15.59886,-6.65396 -0.42472,0.99566 q 3.35422,11.08093 3.0479,20.44348 -0.30632,9.36255 -4.21375,18.52274 -3.19958,7.50072 -8.23221,12.49348 -4.93795,4.9547 -12.05942,7.48732 -6.93208,2.45648 -15.66984,1.78902 -8.64307,-0.70552 -18.599786,-4.95273 -10.421377,-4.44543 -16.732874,-10.43288 -6.283195,-6.05383 -9.098957,-12.51153 -2.929934,-6.74175 -2.68628,-13.93425 0.33836,-7.23057 3.283103,-14.1339 4.049017,-9.49207 10.840891,-16.40192 6.791873,-6.90982 16.383251,-11.3702 l 0.396399,-0.92928 z"
             id="path9631"
             style="font-size:99.9997px;-inkscape-font-specification:'sans-serif, Normal';letter-spacing:18.75px;fill:#333333;fill-rule:evenodd;stroke-width:8.34738;stroke-linecap:round;stroke-miterlimit:1.8;paint-order:markers fill stroke" />
          <path
             d="m 220.67997,245.23221 q -1.4809,-9.64419 -7.43817,-18.918 -5.91187,-9.3299 -16.23576,-17.68049 -10.3239,-8.35057 -20.78485,-12.17115 -10.35947,-3.83132 -19.84109,-3.23991 -9.8422,0.5782 -18.42203,5.33327 -8.53446,4.69894 -15.84122,13.73235 -7.12522,8.80897 -10.06207,18.40685 -2.89148,9.54178 -1.4213,19.08449 1.47019,9.54269 7.32596,18.82722 5.90115,9.22843 16.28114,17.62439 10.21167,8.25979 20.46965,12.10184 10.31409,3.88743 20.26851,3.39999 9.49234,-0.48992 18.30982,-5.42404 8.86288,-4.99021 15.85194,-13.63086 7.26137,-8.97729 10.05135,-18.50834 2.89147,-9.54178 1.48812,-18.93761 z m -33.02295,-25.04022 q 16.27135,13.16124 19.18046,27.58051 2.96522,14.46464 -7.24608,27.08897 -10.30208,12.73654 -25.06701,12.85998 -14.66344,0.11277 -30.9348,-13.04849 -16.43966,-13.29738 -19.2019,-27.78349 -2.70612,-14.44072 7.36903,-26.89672 10.07514,-12.45598 24.71715,-12.7717 14.74349,-0.32644 31.18315,12.97094 z"
             id="path9633"
             style="font-size:99.9997px;-inkscape-font-specification:'sans-serif, Normal';letter-spacing:18.75px;fill:#333333;fill-rule:evenodd;stroke-width:8.34738;stroke-linecap:round;stroke-miterlimit:1.8;paint-order:markers fill stroke" />
          <path
             d="m 305.26972,177.7888 -43.81958,32.13572 -17.92431,-24.44121 37.6511,-27.61197 -7.51115,-10.24203 -37.65109,27.61197 -30.59935,-41.72461 -11.52228,8.45002 63.54594,86.64989 55.34186,-40.58575 z"
             id="path9635"
             style="font-size:99.9997px;-inkscape-font-specification:'sans-serif, Normal';letter-spacing:18.75px;fill:#333333;fill-rule:evenodd;stroke-width:8.34738;stroke-linecap:round;stroke-miterlimit:1.8;paint-order:markers fill stroke" />
          <path
             d="m 388.89268,140.36646 -49.87974,21.56089 -12.026,-27.82137 42.85817,-18.52575 -5.03946,-11.65849 -42.85817,18.52576 -20.53009,-47.495054 -13.11579,5.66939 42.63501,98.633394 62.99553,-27.23028 z"
             id="path9637"
             style="font-size:99.9997px;-inkscape-font-specification:'sans-serif, Normal';letter-spacing:18.75px;fill:#333333;fill-rule:evenodd;stroke-width:8.34738;stroke-linecap:round;stroke-miterlimit:1.8;paint-order:markers fill stroke" />
          <path
             d="m 463.6882,29.357455 -69.72683,12.244878 18.58574,105.834107 69.72684,-12.24488 -2.19683,-12.5096 -55.65354,9.77343 -5.09266,-28.99954 55.65353,-9.773429 -2.19684,-12.509607 -55.65354,9.773431 -6.90255,-39.305751 55.65353,-9.773432 z"
             id="path9639"
             style="font-size:99.9997px;-inkscape-font-specification:'sans-serif, Normal';letter-spacing:18.75px;fill:#333333;fill-rule:evenodd;stroke-width:8.34738;stroke-linecap:round;stroke-miterlimit:1.8;paint-order:markers fill stroke" />
          <path
             d="m 584.87396,32.496252 -70.61697,-5.001138 -7.59092,107.185196 70.61698,5.00114 0.89725,-12.66931 -56.36401,-3.99172 2.07998,-29.36976 56.36401,3.991732 0.89724,-12.669299 -56.364,-3.991732 2.81919,-39.807528 56.36401,3.991717 z"
             id="path9641"
             style="font-size:99.9997px;-inkscape-font-specification:'sans-serif, Normal';letter-spacing:18.75px;fill:#333333;fill-rule:evenodd;stroke-width:8.34738;stroke-linecap:round;stroke-miterlimit:1.8;paint-order:markers fill stroke" />
          <path
             d="m 780.00259,113.63171 q -2.71584,-3.37305 -4.89233,-6.22002 -2.11252,-2.81358 -5.94911,-6.69077 -3.2667,-3.253738 -7.43748,-6.491321 -4.07339,-3.268116 -9.57406,-6.142036 -10.36173,-5.413691 -20.37237,-6.979986 -9.98009,-1.468942 -19.48981,1.460356 -9.31496,2.868215 -17.64787,10.402001 -8.36631,7.597736 -14.84935,20.006206 -6.14888,11.76886 -7.66847,22.78097 -1.5196,11.0121 1.40684,20.68315 2.83478,9.37894 9.70127,17.11895 6.93046,7.77342 17.42011,13.25392 7.67534,4.01014 16.25585,6.13198 8.64446,2.15525 20.42229,2.36507 l 7.85317,-15.03088 -0.95942,-0.50126 q -11.30925,2.47761 -20.6192,1.44024 -9.30993,-1.03737 -18.13658,-5.64903 -7.22763,-3.7762 -11.81163,-9.18379 -4.55347,-5.31019 -6.52156,-12.60787 -1.90699,-7.10292 -0.55843,-15.76175 1.3791,-8.56146 6.39177,-18.15563 5.24658,-10.04192 11.70917,-15.86599 6.52653,-5.790653 13.18459,-8.092904 6.95021,-2.393899 14.10164,-1.588641 7.18197,0.902624 13.83394,4.378066 9.14645,4.778749 15.50413,12.090059 6.35768,7.31133 10.05452,17.22206 l 0.89546,0.46785 z"
             id="path9643"
             style="font-size:99.9997px;-inkscape-font-specification:'sans-serif, Normal';letter-spacing:18.75px;fill:#333333;fill-rule:evenodd;stroke-width:8.34738;stroke-linecap:round;stroke-miterlimit:1.8;paint-order:markers fill stroke" />
          <path
             d="m 872.8654,180.99565 -50.90235,-45.05721 -71.221,80.46028 10.69921,9.47063 62.80267,-70.94986 40.20313,35.58658 z"
             id="path9645"
             style="font-size:99.9997px;-inkscape-font-specification:'sans-serif, Normal';letter-spacing:18.75px;fill:#333333;fill-rule:evenodd;stroke-width:8.34738;stroke-linecap:round;stroke-miterlimit:1.8;paint-order:markers fill stroke" />
          <path
             d="m 910.70532,304.00893 q 9.65127,-6.59745 15.39382,-13.66988 5.72372,-6.97215 7.19105,-15.05578 1.39192,-7.68242 -0.71759,-15.24409 -2.10953,-7.56166 -7.68884,-15.72353 -5.7015,-8.34061 -12.1412,-13.02965 -6.43969,-4.68906 -13.6206,-5.98674 -8.18393,-1.48617 -16.56081,1.09319 -8.33615,2.63894 -18.40445,9.52146 l -53.08194,36.28593 8.06354,11.796 53.6777,-36.69318 q 7.20866,-4.92773 12.03055,-6.82526 4.86262,-1.83796 9.84672,-1.83583 5.66431,-0.0259 10.68467,3.09847 5.0611,3.18383 9.37795,9.49884 4.35757,6.37461 5.50552,12.14597 1.08837,5.8121 -1.011,11.18087 -1.80754,4.64476 -5.50497,8.5709 -3.71628,4.02643 -10.21003,8.46545 l -53.97557,36.89681 8.06354,11.79598 z"
             id="path9647"
             style="font-size:99.9997px;-inkscape-font-specification:'sans-serif, Normal';letter-spacing:18.75px;fill:#333333;fill-rule:evenodd;stroke-width:8.34738;stroke-linecap:round;stroke-miterlimit:1.8;paint-order:markers fill stroke" />
          <path
             d="m 966.10826,416.70591 q 7.5643,-2.63561 12.35953,-7.51603 4.79523,-4.88044 6.85747,-11.02479 2.50317,-7.29147 2.01312,-14.83913 -0.46631,-7.47953 -4.14667,-18.0423 l -12.53695,-35.98155 -101.47068,35.35515 10.47119,30.05278 q 3.87031,11.10794 6.61136,16.3429 2.74104,5.23497 7.0877,9.37556 4.87735,4.56703 10.38987,5.47386 5.44437,0.93057 11.85017,-1.30138 7.22357,-2.51689 11.0524,-7.97764 3.76069,-5.437 4.69032,-12.6387 l 0.54516,-0.18996 q 5.69793,9.5541 14.71467,13.06096 8.94858,3.53062 19.51134,-0.14973 z m -53.63338,-6.76054 q -3.67993,1.28219 -6.62875,0.93408 -2.94884,-0.3481 -5.46598,-2.52786 -2.95595,-2.56181 -4.95569,-6.98519 -2.0679,-4.39963 -4.41857,-11.14617 l -5.60363,-16.08266 29.30315,-10.21001 6.07853,17.44559 q 2.20821,6.33766 2.90081,10.29944 0.62446,3.98552 -0.30396,7.90075 -0.92843,3.91522 -3.68019,6.326 -2.79616,2.50266 -7.22572,4.04603 z m 49.28725,-7.46768 q -6.13322,2.13699 -10.3861,1.55547 -4.25287,-0.58153 -8.46015,-4.54141 -2.8434,-2.67746 -4.95878,-7.21337 -2.15977,-4.44404 -4.48671,-11.12244 l -7.38445,-21.19368 37.75336,-13.1543 6.22099,17.85449 q 3.08674,8.85909 4.17161,14.82396 1.01671,5.98861 -0.17813,10.45518 -1.32805,4.74226 -4.11804,7.70128 -2.79,2.95903 -8.1736,4.83482 z"
             id="path9649"
             style="font-size:99.9997px;-inkscape-font-specification:'sans-serif, Normal';letter-spacing:18.75px;fill:#333333;fill-rule:evenodd;stroke-width:8.34738;stroke-linecap:round;stroke-miterlimit:1.8;paint-order:markers fill stroke" />
          <path
             d="m 890.02253,500.85618 c 7.696,0 13.937,-6.22 13.937,-13.892 0,-7.673 -6.241,-13.892 -13.937,-13.892 -7.697,0 -13.937,6.219 -13.937,13.892 0,7.672 6.24,13.892 13.937,13.892"
             style="display:inline;fill:#333333;fill-opacity:1;fill-rule:nonzero;stroke:none"
             id="path330"
             inkscape:label="path330"
             transform="matrix(1.0779178,0,0,1.0779178,-21.411655,-43.07678)" />
          <path
             d="m 102.7622,500.85618 c 7.697,0 13.937,-6.22 13.937,-13.892 0,-7.673 -6.24,-13.892 -13.937,-13.892 -7.697,0 -13.937,6.219 -13.937,13.892 0,7.672 6.24,13.892 13.937,13.892"
             style="display:inline;fill:#333333;fill-opacity:1;fill-rule:nonzero;stroke:none"
             id="path326"
             transform="matrix(1.0779178,0,0,1.0779178,-21.411655,-43.07678)" />
        </g>
      </g>
    </g>
  </g>
</svg>
