<?xml version="1.0" encoding="UTF-8" standalone="no"?>
<!-- Created with Inkscape (http://www.inkscape.org/) -->

<svg
   version="1.1"
   id="svg182"
   width="150"
   height="186.48244"
   viewBox="0 0 150.00001 186.48244"
   sodipodi:docname="color_logo_scc.svg"
   xmlns:inkscape="http://www.inkscape.org/namespaces/inkscape"
   xmlns:sodipodi="http://sodipodi.sourceforge.net/DTD/sodipodi-0.dtd"
   xmlns="http://www.w3.org/2000/svg"
   xmlns:svg="http://www.w3.org/2000/svg">
  <defs
     id="defs186">
    <clipPath
       clipPathUnits="userSpaceOnUse"
       id="clipPath198">
      <path
         d="M 0,1000 H 1000 V 0 H 0 Z"
         id="path196" />
    </clipPath>
  </defs>
  <sodipodi:namedview
     id="namedview184"
     pagecolor="#505050"
     bordercolor="#ffffff"
     borderopacity="1"
     inkscape:showpageshadow="0"
     inkscape:pageopacity="0"
     inkscape:pagecheckerboard="1"
     inkscape:deskcolor="#505050"
     showgrid="false"
     showguides="true" />
  <g
     id="g190"
     inkscape:groupmode="layer"
     inkscape:label="Page 1"
     transform="matrix(1.3333333,0,0,-1.3333333,-686.02732,870.84272)">
    <g
       id="g194"
       clip-path="url(#clipPath198)"
       style="display:inline">
      <g
         id="g443"
         style="display:inline">
        <g
           id="g1007"
           transform="matrix(0.44462853,0,0,0.44462853,348.3014,362.73091)">
          <path
             d="m 621.48926,388.1512 -1.06013,0.5 -21.63612,0.1 -19.40962,0.099 H 419.65662 401.30714 c -20.8936,0 -21.74234,0 -23.545,-0.899 -1.27259,-0.6 -2.54518,-1.9 -3.2877,-3.299 -0.53113,-0.999 -0.63629,-1.499 -0.63629,-2.898 0,-2.399 0.63629,-3.499 3.92399,-6.698 1.48504,-1.398 4.77273,-4.897 7.42414,-7.796 2.6514,-2.798 6.04532,-6.397 7.63659,-7.796 11.56057,-10.996 24.71242,-16.193 51.12127,-19.991 l 5.72665,-0.8 49.10617,-0.1 49.10616,0.6 c 17.28723,2.599 33.51538,5.698 42.63701,9.996 8.27288,3.898 13.04455,7.596 22.59002,17.192 3.28876,3.398 7.31898,7.396 8.90918,8.895 3.39392,3.299 3.81883,4.099 3.81883,6.598 0,1.099 -0.21139,1.899 -0.53007,2.698 -0.53007,1.3 -2.33379,2.899 -3.81883,3.599"
             style="display:inline;fill:#ffffff;fill-opacity:1;fill-rule:nonzero;stroke:none;stroke-width:1.03066"
             id="path214" />
          <g
             id="g1017"
             transform="translate(4.1778528)"
             style="display:inline">
            <path
               d="m 427.7163,424.1346 c 8.387,-4.198 12.48,-17.192 12.68,-21.19 l 0.2,-2.099 h 110.228 v 0.999 c 0,4.099 1.997,20.491 12.081,23.689 1.997,0.6 3.395,2.299 3.595,4.298 1.797,20.091 2.297,59.174 2.297,59.174 l 0.099,9.795 h -73.086 c -55.114,0 -73.386,0.101 -73.386,0.101 v -8.796 c 0,-17.193 0,-48.378 1.099,-61.872 0.998,-1.7 2.396,-3.2 4.193,-4.099"
               style="display:inline;fill:#ffffff;fill-opacity:1;fill-rule:nonzero;stroke:none"
               id="path218" />
            <path
               d="m 577.4824,454.621 -0.599,-13.194 c 0.3,6.298 8.188,0.299 12.58,-4.098 1.698,-1.699 4.094,-1.999 5.992,-0.7 2.296,1.5 4.792,3.598 7.188,2.999 0.6,-0.2 1.298,-0.2 1.898,0 10.882,2.598 18.969,14.993 18.071,29.486 -0.799,12.595 -8.586,23.09 -18.671,25.19 -2.896,0.599 -5.69,0.399 -8.287,-0.301 -0.899,-0.1 -1.797,-0.3 -2.695,-0.9 -1.498,-0.699 -2.996,-1.499 -4.294,-2.499 -9.884,-5.197 -10.384,-0.299 -10.384,-0.299 0,0 -0.4,-22.09 -0.4,-21.59 0,0 0.3,-0.2 0.4,-0.3 5.691,-1.199 7.289,8.996 11.981,10.995 4.694,1.899 9.985,2.898 15.676,0 7.689,-3.898 11.781,-15.093 4.394,-26.888 -0.9,-1.5 -8.587,-5.498 -14.079,-4.898 -5.491,0.6 -9.884,5.397 -12.68,7.097 -2.196,1.299 -4.593,0.7 -5.791,-0.3 0,-0.199 -0.3,0.2 -0.3,0.2"
               style="display:inline;fill:#ffffff;fill-opacity:1;fill-rule:nonzero;stroke:none"
               id="path222" />
          </g>
        </g>
        <g
           id="g1013"
           transform="matrix(0.44443983,0,0,0.44462853,348.39032,362.73091)">
          <path
             d="m 430.3086,598.1561 c 0,-5.598 4.094,-10.095 9.086,-9.996 4.992,0 8.986,4.599 8.886,10.096 0,5.597 -4.094,9.996 -9.086,9.996 -4.992,-0.001 -8.986,-4.498 -8.886,-10.096"
             style="fill:#ffffff;fill-opacity:1;fill-rule:nonzero;stroke:none"
             id="path226" />
          <path
             d="m 486.8208,637.6381 c 0,-6.297 2.895,-9.595 4.992,-11.994 1.098,-1.2 1.897,-2.199 1.997,-3.099 0.1,-1.299 -0.2,-2.499 -0.899,-3.398 -0.798,-1 -1.897,-1.5 -3.095,-1.5 -0.699,0 -1.598,1 -2.795,2.299 -2.397,2.599 -5.991,6.398 -12.181,6.398 -7.489,0 -14.977,-5.898 -14.977,-16.993 0.1,-10.895 7.888,-16.692 15.176,-16.592 6.59,0 11.183,4.797 13.978,7.596 l 0.799,0.8 c 0.599,0.6 1.198,0.799 1.697,0.5 1.398,-0.7 2.397,-4.199 2.397,-7.997 0.099,-8.996 -6.291,-27.687 -26.159,-27.787 -8.088,0 -18.871,2.898 -24.263,16.992 l -1.098,2.799 v -2.599 c 0.1,-10.095 -7.289,-24.189 -21.067,-24.289 -9.485,-0.1 -17.672,7.496 -18.571,12.594 -0.3,1.799 0,3.699 0.899,4.898 0.399,0.5 0.898,0.999 1.697,0.999 0.699,0 1.098,-0.299 1.697,-0.699 0.999,-0.6 2.097,-1.4 4.793,-1.4 4.692,0 9.485,3.999 9.385,10.696 0,6.297 -5.092,10.595 -9.585,10.595 -4.493,0 -7.788,-3.798 -8.886,-7.497 -1.198,-3.798 -1.897,-5.097 -4.993,-5.197 -3.194,0 -4.692,2.998 -4.692,5.197 0,2.299 0.798,3.199 2.995,6.097 l 0.4,0.5 c 1.497,1.899 1.697,3.898 1.697,6.797 0,3.499 -2.396,13.594 -12.38,13.594 -5.791,0 -11.483,-4.898 -11.683,-5.098 l -0.299,-0.2 28.256,-63.571 0.399,0.1 c 0.4,0.1 39.938,9.396 97.747,9.696 57.811,0.4 97.449,-8.396 97.848,-8.496 l 0.399,-0.1 27.458,63.971 -0.299,0.2 c -0.201,0.2 -5.892,4.998 -11.783,4.897 -9.984,-0.1 -12.18,-10.195 -12.18,-13.693 0,-2.899 0.3,-4.898 1.797,-6.697 l 0.399,-0.5 c 2.297,-2.899 3.096,-3.798 3.096,-6.097 0,-2.2 -1.399,-5.198 -4.593,-5.198 -3.096,0 -3.794,1.299 -4.992,5.098 -1.198,3.698 -4.493,7.396 -8.986,7.396 -4.494,0 -9.486,-4.398 -9.386,-10.695 0,-6.697 4.892,-10.595 9.585,-10.595 2.596,0 3.795,0.799 4.693,1.499 0.599,0.4 0.998,0.7 1.697,0.7 0.799,0 1.398,-0.5 1.698,-1 0.898,-1.199 1.198,-2.998 0.898,-4.798 -0.799,-5.097 -8.886,-12.694 -18.471,-12.794 -13.879,-0.1 -21.367,13.894 -21.367,23.99 v 2.598 l -1.098,-2.798 c -5.192,-14.194 -15.975,-17.292 -23.962,-17.292 -19.87,-0.101 -26.459,18.491 -26.459,27.487 0,3.798 0.998,7.297 2.296,7.996 0.5,0.3 1.098,0.101 1.698,-0.5 l 0.798,-0.799 c 2.796,-2.799 7.388,-7.397 14.078,-7.397 7.289,0 15.077,5.998 14.976,16.793 -0.099,11.095 -7.687,16.892 -15.175,16.792 -6.191,0 -9.786,-3.898 -12.082,-6.497 -1.198,-1.299 -2.096,-2.299 -2.795,-2.299 -1.199,0 -2.397,0.5 -3.095,1.499 -0.699,0.9 -0.999,2.099 -0.9,3.399 0.101,1 0.9,1.899 1.998,3.198 2.096,2.399 4.892,5.698 4.892,12.095 0,7.197 -5.392,14.993 -13.179,14.893 -7.688,-0.499 -12.88,-8.296 -12.88,-15.493"
             style="fill:#ffffff;fill-opacity:1;fill-rule:nonzero;stroke:none"
             id="path230" />
          <path
             d="m 406.1465,540.0824 -0.599,-0.2 7.488,-17.492 0.4,0.1 c 0.299,0.1 28.356,7.996 87.163,8.396 h 0.101 c 49.722,0.3 87.463,-6.197 87.862,-6.297 l 0.399,-0.1 6.69,16.492 -0.599,0.201 c -0.399,0.1 -38.639,8.396 -94.453,7.996 -55.912,-0.3 -94.153,-9.096 -94.452,-9.096"
             style="fill:#ffffff;fill-opacity:1;fill-rule:nonzero;stroke:none"
             id="path234" />
          <path
             d="m 552.1191,598.9559 c 0,-5.598 4.093,-10.096 9.085,-9.996 4.993,0 8.986,4.599 8.887,10.096 0,5.597 -4.094,9.995 -9.086,9.995 -4.893,0 -8.987,-4.597 -8.886,-10.095"
             style="fill:#ffffff;fill-opacity:1;fill-rule:nonzero;stroke:none"
             id="path238" />
        </g>
      </g>
      <g
         id="g447"
         style="display:none"
         sodipodi:insensitive="true">
        <path
           d="m 610.7314,375.1571 c -1.498,-1.6 -5.292,-5.598 -8.388,-8.896 -8.985,-9.595 -13.478,-13.293 -21.266,-17.192 -8.586,-4.299 -23.863,-7.397 -40.138,-9.996 l -46.228,-0.6 -46.228,0.101 -5.391,0.799 c -24.861,3.799 -37.242,8.996 -48.125,19.991 -1.498,1.499 -4.693,4.998 -7.189,7.797 -2.496,2.799 -5.591,6.297 -6.989,7.796 -3.095,3.199 -3.694,4.298 -3.694,6.697 0,1.3 0.1,1.899 0.599,2.899 0.599,1.399 1.897,2.699 3.095,3.298 1.697,0.8 2.496,0.9 22.166,0.9 h 17.273 150.266 l 18.271,-0.1 20.368,-0.1 0.998,-0.499 c 1.498,-0.701 3.096,-2.299 3.695,-3.599 0.399,-0.8 0.499,-1.6 0.499,-2.699 0,-2.498 -0.4,-3.298 -3.594,-6.597 m -183.015,49.078 c -1.797,0.9 -3.195,2.399 -3.894,4.298 -1.098,13.493 -1.098,44.779 -1.098,61.872 v 4.598 l 0.499,1 c 0.699,1.398 1.697,2.299 3.195,2.798 0.299,0.1 10.484,0.1 47.526,0.1 h 21.966 68.592 c 0.3,0 0.6,-0.1 0.899,-0.2 l 0.5,-0.2 c 1.098,-0.499 1.996,-1.4 2.596,-2.498 l 0.399,-0.901 v -5.997 c 0,0 -0.499,-38.982 -2.297,-59.173 -0.199,-2.099 -1.597,-3.698 -3.594,-4.297 -10.085,-3.2 -12.081,-19.592 -12.081,-23.69 v -1 h -110.328 l -0.2,2.1 c -0.2,3.998 -4.393,16.992 -12.68,21.19 m 159.751,38.183 c 2.496,2.098 4.194,4.798 5.492,6.797 0.298,0.799 0.998,1.798 1.397,2.398 1.598,0.6 2.995,0.899 4.193,0.899 1.199,0 2.297,-0.299 3.495,-0.899 1.498,-0.8 2.696,-2.299 3.195,-4.198 0.799,-2.698 0.2,-5.997 -1.497,-9.296 -1.498,-0.799 -4.293,-1.999 -6.091,-1.999 h -0.199 c -1.598,0.2 -3.994,1.999 -5.692,3.398 -1.198,0.901 -2.297,1.8 -3.494,2.499 -0.3,0.201 -0.5,0.3 -0.799,0.401 m -9.685,-8.197 h 0.1 c 0.699,0.6 1.897,0.999 3.095,0.999 0.899,0 1.797,-0.199 2.695,-0.699 2.796,-1.699 7.19,-6.397 12.681,-7.096 0.399,0 0.799,-0.101 1.198,-0.101 5.392,0 11.982,3.599 12.781,4.898 7.288,11.794 3.194,22.99 -4.394,26.888 -2.596,1.299 -5.092,1.799 -7.488,1.799 -2.896,0 -5.591,-0.8 -8.188,-1.799 -4.493,-1.799 -6.19,-11.095 -11.082,-11.095 -0.3,0 -0.599,0 -0.899,0.1 -0.1,0 -0.4,0.3 -0.4,0.3 l 0.4,21.59 c 0,0 0.2,-2.099 3.096,-2.099 1.497,0 3.893,0.6 7.288,2.398 1.297,1 2.795,1.9 4.294,2.499 0.898,0.6 1.796,0.9 2.695,0.9 1.498,0.7 3.096,0.9 4.693,0.9 1.197,0 2.396,-0.1 3.594,-0.4 10.084,-1.999 17.872,-12.494 18.671,-25.189 0.898,-14.493 -7.189,-26.887 -18.071,-29.486 -0.3,-0.1 -0.499,-0.1 -0.799,-0.1 -0.4,0 -0.799,0.1 -1.099,0.1 -0.3,0.1 -0.499,0.1 -0.799,0.1 -2.096,0 -4.293,-1.799 -6.389,-3.099 -0.799,-0.5 -1.698,-0.8 -2.596,-0.8 -1.198,0 -2.397,0.5 -3.396,1.5 -2.995,3.099 -7.687,6.797 -10.483,6.797 -1.198,0 -2.097,-0.8 -2.196,-2.699 l 0.598,13.194 c 0,0 0.201,-0.3 0.4,-0.3 m 35.744,-58.173 -0.998,0.5 c -1.099,0.499 -2.397,0.798 -3.694,0.798 l -20.369,0.101 h -17.971 -10.989 l -0.094,4.198 v 0.1 c 0,4.798 2.496,14.294 5.99,15.392 5.392,1.7 9.186,6.298 9.585,11.896 0.11,1.237 0.216,2.543 0.316,3.902 0.45,-0.099 0.908,-0.174 1.382,-0.204 h 0.4 c 1.397,0 2.595,0.3 3.793,0.9 0.799,-0.701 1.698,-1.499 2.696,-2.4 2.596,-2.598 5.991,-3.998 9.585,-3.998 2.596,0 5.093,0.8 7.289,2.199 0.399,0.201 0.799,0.5 1.198,0.8 0.3,0.2 0.799,0.5 1.198,0.8 0.4,0 0.799,-0.101 1.298,-0.101 0.998,0 1.897,0.101 2.796,0.3 15.275,3.599 25.859,20.192 24.661,38.484 -1.098,16.692 -11.582,30.286 -25.56,33.084 -2.097,0.3 -3.894,0.5 -5.691,0.5 -2.096,0 -4.193,-0.2 -6.19,-0.7 -1.798,-0.2 -3.495,-0.799 -5.193,-1.799 -1.697,-0.799 -3.295,-1.7 -4.892,-2.798 -0.4,-0.2 -0.698,-0.3 -0.998,-0.5 -1.398,0.899 -3.096,1.499 -4.793,1.499 h -0.299 c -0.557,-0.025 -1.098,-0.102 -1.62,-0.224 l -0.277,0.624 v 0.1 c -1.398,2.898 -3.695,5.198 -6.59,6.597 l -0.499,0.2 c -1.398,0.699 -2.995,0.999 -4.593,0.999 h -68.593 c -8.088,0.3 -15.376,0.3 -21.866,0.3 -48.525,0 -48.525,0 -50.321,-0.6 -3.695,-1.199 -6.69,-3.698 -8.388,-7.296 v -0.101 l -0.499,-0.999 c -0.499,-1.099 -0.798,-2.399 -0.798,-3.698 v -4.698 c 0,-15.693 0,-48.378 1.198,-62.672 0.099,-0.8 0.199,-1.599 0.499,-2.398 1.497,-3.899 4.293,-6.998 8.087,-8.897 4.294,-2.199 7.788,-10.995 7.988,-13.894 v -0.2 l 0.418,-4.697 h -12 -17.273 c -21.566,0 -22.465,0 -26.06,-1.8 h -0.1 c -2.895,-1.499 -5.491,-4.197 -6.988,-7.296 -1.199,-2.499 -1.398,-4.398 -1.398,-6.597 0,-5.898 2.596,-9.196 6.09,-12.794 1.198,-1.199 4.193,-4.598 6.69,-7.496 2.296,-2.7 5.79,-6.497 7.588,-8.297 12.281,-12.395 26.159,-18.291 52.917,-22.39 l 5.392,-0.8 c 0.399,-0.099 0.898,-0.099 1.298,-0.099 l 46.228,-0.1 h 0.1 l 46.227,0.6 c 0.4,0 0.799,0 1.199,0.099 21.766,3.498 34.446,6.698 42.633,10.795 8.687,4.399 14.079,8.697 23.763,19.092 3.095,3.398 6.789,7.296 8.188,8.695 l 0.099,0.101 c 3.695,3.798 6.091,6.696 5.991,12.694 0,2.199 -0.4,4.199 -1.198,6.097 -1.398,3.299 -4.593,6.497 -7.988,8.097"
           style="display:inline;fill:#231f20;fill-opacity:1;fill-rule:nonzero;stroke:none"
           id="path210" />
        <path
           d="m 595.0518,518.1923 41.935,97.156 c 0,0 -12.88,10.795 -22.964,10.695 -11.483,-0.1 -19.17,-9.895 -19.869,-21.09 -6.091,2.599 -13.28,0.599 -17.373,-3.998 -0.799,7.496 -6.191,15.693 -16.375,15.693 -4.593,0 -9.385,-2.399 -12.68,-7.797 1.597,13.994 -8.587,30.586 -27.657,25.488 1.897,13.694 -5.991,26.988 -20.468,26.988 -14.478,-0.099 -22.265,-13.493 -20.169,-27.187 -19.17,4.798 -29.154,-11.895 -27.357,-25.888 -3.295,5.397 -8.188,7.696 -12.78,7.596 -10.084,-0.1 -15.476,-8.296 -16.075,-15.893 -4.193,4.498 -11.282,6.397 -17.373,3.698 -0.799,11.195 -8.687,20.891 -20.069,20.891 -9.984,-0.1 -22.764,-10.995 -22.764,-10.995 l 43.133,-96.656 m 167.039,61.572 c 1.997,-4.398 4.393,-6.897 8.287,-8.896 2.297,-1.2 -0.199,-1.899 -2.097,-1.899 -5.491,0 -11.781,3.698 -13.678,11.594 -0.899,3.999 0.5,5.898 2.696,5.898 2.695,0.1 3.295,-3.399 4.792,-6.697 m -12.181,30.086 c 4.693,0 8.486,-4.198 8.587,-9.496 0,-5.297 -3.794,-9.595 -8.487,-9.595 -4.693,0 -8.487,4.198 -8.586,9.496 0,5.297 3.794,9.595 8.486,9.595 m -16.773,-16.192 c 2.895,0 5.291,-1.4 5.291,-5.198 0,-5.997 -7.588,-13.294 -16.474,-13.394 -8.686,-0.1 -15.476,6.097 -18.271,11.595 -2.297,4.497 2.196,-1 10.583,-1 10.584,0.2 13.678,7.997 18.871,7.997 m -88.063,-0.5 c 5.291,0 8.487,-7.797 18.87,-7.697 8.387,0.1 12.88,5.598 10.584,1.1 -2.696,-5.498 -9.486,-11.795 -18.072,-11.795 -8.986,-0.1 -16.674,7.197 -16.674,13.194 0,3.799 2.396,5.198 5.292,5.198 m -16.974,15.893 c 4.693,0 8.487,-4.199 8.586,-9.496 0,-5.298 -3.793,-9.596 -8.486,-9.596 -4.693,0 -8.487,4.199 -8.587,9.496 0,5.298 3.794,9.596 8.487,9.596 m -11.782,-30.187 c 1.498,3.299 1.997,6.797 4.693,6.797 2.196,0 3.695,-1.899 2.796,-5.897 -1.797,-7.897 -8.088,-11.695 -13.479,-11.695 -1.997,0 -4.393,0.7 -2.097,1.899 3.794,2 6.19,4.498 8.087,8.896 m -24.861,-29.986 -27.956,62.871 c 0,0 5.691,4.898 11.382,4.998 9.885,0.1 11.882,-10.195 11.882,-12.994 0,-2.899 -0.3,-4.698 -1.598,-6.397 -2.596,-3.299 -3.594,-4.398 -3.594,-6.997 0,-2.599 1.797,-5.698 5.192,-5.698 3.394,0 4.193,1.8 5.391,5.498 1.198,3.798 4.393,7.097 8.487,7.097 4.093,0 8.986,-3.898 9.085,-10.096 0,-6.197 -4.393,-10.095 -8.985,-10.195 -4.194,0 -4.494,2.099 -6.49,2.099 -2.197,0 -3.594,-3.098 -3.095,-6.497 0.898,-5.198 9.185,-13.094 19.07,-12.994 13.978,0.1 21.666,13.994 21.566,24.789 0.899,-2.199 5.791,-17.892 24.862,-17.792 20.568,0.1 26.658,19.991 26.658,28.287 0,5.098 -1.997,10.695 -4.992,7.797 -2.396,-2.399 -7.289,-8.297 -14.478,-8.297 -6.689,0 -14.677,5.398 -14.677,16.093 -0.1,10.695 7.289,16.393 14.477,16.493 9.286,0.099 12.381,-8.597 14.977,-8.597 2.596,0 4.793,2.299 4.394,5.498 -0.4,3.198 -6.99,5.597 -6.99,15.093 0,6.797 4.893,14.493 12.481,14.594 7.588,0 12.68,-7.597 12.68,-14.394 0.1,-9.496 -6.49,-11.895 -6.79,-15.193 -0.298,-3.199 1.898,-5.398 4.494,-5.398 2.595,0 5.691,8.796 14.877,8.796 7.188,0 14.577,-5.597 14.676,-16.292 0.101,-10.696 -7.787,-16.293 -14.577,-16.293 -7.188,0 -12.081,5.697 -14.577,8.096 -2.995,2.899 -4.893,-2.799 -4.792,-7.896 0.1,-8.396 6.39,-28.088 26.958,-27.987 18.97,0.1 23.763,15.792 24.661,18.091 0.1,-10.795 7.888,-24.589 21.866,-24.488 9.785,0.1 18.072,7.996 18.871,13.193 0.499,3.399 -0.999,6.497 -3.095,6.497 -1.997,0 -2.197,-2.198 -6.391,-2.198 -4.492,0 -8.985,3.898 -9.086,10.095 0,6.197 4.893,10.096 8.987,10.195 4.093,0 7.289,-3.298 8.586,-6.996 1.298,-3.699 2.097,-5.498 5.492,-5.398 3.394,0 5.091,3.198 5.091,5.798 0,2.598 -0.998,3.698 -3.593,6.996 -1.399,1.699 -1.698,3.499 -1.698,6.397 0,2.799 1.797,13.094 11.682,13.194 5.791,0 11.482,-4.797 11.482,-4.797 l -27.158,-63.172 c 0,0 -39.438,8.896 -97.947,8.496 -58.409,-0.599 -97.748,-9.995 -97.748,-9.995 m 98.047,-16.193 h -0.1 c -59.507,-0.4 -87.263,-8.396 -87.263,-8.396 l -6.99,16.493 c 0,0 37.842,8.795 94.253,9.195 56.412,0.3 94.354,-7.996 94.354,-7.996 l -6.291,-15.593 c 0,0 -37.541,6.597 -87.963,6.297"
           style="display:inline;fill:#231f20;fill-opacity:1;fill-rule:nonzero;stroke:none"
           id="path242" />
      </g>
    </g>
  </g>
</svg>
