<?xml version="1.0" encoding="UTF-8" standalone="no"?>
<svg
   version="1.1"
   width="928"
   height="1009"
   viewBox="0 0 928 1009"
   id="svg588"
   sodipodi:docname="Jhicks.svg"
   xmlns:inkscape="http://www.inkscape.org/namespaces/inkscape"
   xmlns:sodipodi="http://sodipodi.sourceforge.net/DTD/sodipodi-0.dtd"
   xmlns="http://www.w3.org/2000/svg"
   xmlns:svg="http://www.w3.org/2000/svg"
   xmlns:bx="https://boxy-svg.com">
  <sodipodi:namedview
     id="namedview590"
     pagecolor="#505050"
     bordercolor="#ffffff"
     borderopacity="1"
     inkscape:showpageshadow="0"
     inkscape:pageopacity="0"
     inkscape:pagecheckerboard="1"
     inkscape:deskcolor="#505050"
     showgrid="false" />
  <defs
     id="defs182">
    <bx:export>
      <bx:file
         format="svg" />
    </bx:export>
  </defs>
  <path
     d="m 329,117 c 57.75,0 115.5,0 175,0 0,6.6 0,13.2 0,20 18.81,0 37.62,0 57,0 0,6.6 0,13.2 0,20 12.54,0 25.08,0 38,0 0,6.27 0,12.54 0,19 6.27,0 12.54,0 19,0 0,6.6 0,13.2 0,20 6.6,0.33 13.2,0.66 20,1 0,18.48 0,36.96 0,56 -18.81,0 -37.62,0 -57,0 0,-6.6 0,-13.2 0,-20 -1.69302,0.0303 -3.38604,0.0606 -5.13037,0.0918 -5.67163,0.1011 -11.34328,0.2007 -17.01495,0.29935 -3.42976,0.0597 -6.85952,0.11996 -10.28925,0.1816 C 533.7083,233.83938 518.85971,234.06553 504,234 c 0,6.27 0,12.54 0,19 -37.95,0 -75.9,0 -115,0 0,6.27 0,12.54 0,19 6.6,0 13.2,0 20,0 0,19.14 0,38.28 0,58 6.27,0 12.54,0 19,0 0,-12.54 0,-25.08 0,-38 12.54,0 25.08,0 38,0 0,6.27 0,12.54 0,19 12.375,-0.495 12.375,-0.495 25,-1 -1.32,-0.33 -2.64,-0.66 -4,-1 0,-5.28 0,-10.56 0,-16 2.116,-0.0251 4.23199,-0.0501 6.41211,-0.0759 7.09658,-0.0846 14.1931,-0.17308 21.2896,-0.26341 4.29049,-0.0545 8.58099,-0.10777 12.87153,-0.15797 17.59519,-0.20669 35.17096,-0.43549 52.74903,-1.29761 5.89368,-0.28276 11.778,-0.30879 17.67773,-0.20508 -0.0174,1.93166 -0.0174,1.93166 -0.0352,3.90234 -0.009,1.67839 -0.0185,3.35677 -0.0273,5.03516 -0.008,0.85014 -0.0168,1.70027 -0.0254,2.57617 -0.003,0.80889 -0.006,1.61778 -0.01,2.45117 -0.005,0.74887 -0.0105,1.49773 -0.0159,2.26929 -0.0799,1.79255 -0.0799,1.79255 1.11353,2.76587 0,-11.88 0,-23.76 0,-36 0.33,0 0.66,0 1,0 0,11.88 0,23.76 0,36 5.94,0 11.88,0 18,0 0,-12.54 0,-25.08 0,-38 26.07,0 52.14,0 79,0 0,25.74 0,51.48 0,78 -6.6,0 -13.2,0 -20,0 0,12.87 0,25.74 0,39 -6.27,0 -12.54,0 -19,0 0,31.68 0,63.36 0,96 -6.6,0 -13.2,0 -20,0 0,18.81 0,37.62 0,57 6.6,0.33 13.2,0.66 20,1 0,6.6 0,13.2 0,20 6.27,0 12.54,0 19,0 0,6.27 0,12.54 0,19 6.27,0 12.54,0 19,0 0,32.01 0,64.02 0,97 -6.27,0 -12.54,0 -19,0 0,25.74 0,51.48 0,78 -6.27,0 -12.54,0 -19,0 0,12.54 0,25.08 0,38 -6.6,0 -13.2,0 -20,0 0,19.47 0,38.94 0,59 -6.27,0 -12.54,0 -19,0 0,44.55 0,89.1 0,135 -6.6,0 -13.2,0 -20,0 0,6.59997 0,13.19997 0,19.99997 -94.71,0 -189.42,0 -287,0 0,-6.6 0,-13.2 0,-19.99997 -20.79,0 -41.58,0 -63,0 -1.14874,-21.82615 -1.14874,-21.82615 -1.12698,-29.99634 -0.002,-0.95333 -0.003,-1.90667 -0.005,-2.88889 -0.004,-3.11249 -8.7e-4,-6.22493 0.002,-9.33743 -0.001,-2.26391 -0.003,-4.52783 -0.005,-6.79174 -0.005,-6.08567 -0.003,-12.17132 3.8e-4,-18.25698 0.002,-6.38602 1.8e-4,-12.77204 -0.001,-19.15806 -0.002,-11.38505 0.001,-22.77009 0.006,-34.15514 0.004,-10.32207 0.004,-20.64413 -9.2e-4,-30.9662 -0.005,-12.02071 -0.007,-24.0414 -0.004,-36.06211 0.002,-6.35187 0.002,-12.70373 -10e-4,-19.0556 -0.003,-5.95582 -9e-4,-11.91161 0.005,-17.86743 10e-4,-2.18861 9.3e-4,-4.37722 -0.001,-6.56583 -0.003,-2.97791 6.7e-4,-5.95575 0.006,-8.93365 -0.002,-0.87322 -0.005,-1.74644 -0.007,-2.64612 0.011,-3.3576 0.0645,-6.11076 1.13374,-9.31848 -6.6,0 -13.2,0 -20,0 0,-44.88 0,-89.76 0,-136 6.27,0 12.54,0 19,0 0,-6.27 0,-12.54 0,-19 7.92,0 15.84,0 24,0 0,-12.54 0,-25.08 0,-38 -7.92,0 -15.84,0 -24,0 0,-57.75 0,-115.5 0,-175 -6.27,0 -12.54,0 -19,0 0,-31.68 0,-63.36 0,-96 21.84414,-1.14969 21.84414,-1.14969 31.6875,-1.0625 5.10469,0.0309 5.10469,0.0309 10.3125,0.0625 0,12.54 0,25.08 0,38 6.93,0 13.86,0 21,0 0,-12.21 0,-24.42 0,-37 6.6,0 13.2,0 20,0 0,-6.6 0,-13.2 0,-20 -13.2,0 -26.4,0 -40,0 0,-31.68 0,-63.36 0,-96 6.6,0 13.2,0 20,0 0,-6.93 0,-13.86 0,-21 12.21,0 24.42,0 37,0 C 329,129.73 329,123.46 329,117 Z"
     fill="#6f3417"
     id="path184" />
  <path
     d="m 618,544 c 6.6,0 13.2,0 20,0 0,38.28 0,76.56 0,116 -6.6,0 -13.2,0 -20,0 0,12.54 0,25.08 0,38 -6.27,0 -12.54,0 -19,0 0,19.14 0,38.28 0,58 -6.27,0 -12.54,0 -19,0 0,12.87 0,25.74 0,39 -6.27,0 -12.54,0 -19,0 0,19.47 0,38.94 0,59 -5.94,0 -11.88,0 -18,0 0,25.41 0,50.82 0,77 -6.6,0 -13.2,0 -20,0 0,25.74 0,51.48 0,78 -63.36,0 -126.72,0 -192,0 0,-64.02 0,-128.04 0,-194 -6.27,0 -12.54,0 -19,0 0,-25.74 0,-51.48 0,-78 -6.6,0 -13.2,0 -20,0 0,-44.88 0,-89.76 0,-136 12.87,0 25.74,0 39,0 0,6.6 0,13.2 0,20 12.87,0 25.74,0 39,0 0,6.27 0,12.54 0,19 12.87,0 25.74,0 39,0 0,6.6 0,13.2 0,20 12.54,0 25.08,0 38,0 0,-6.6 0,-13.2 0,-20 25.08,0 50.16,0 76,0 0,-6.27 0,-12.54 0,-19 6.27,0 12.54,0 19,0 0,-6.6 0,-13.2 0,-20 12.87,0 25.74,0 39,0 0,-5.94 0,-11.88 0,-18 5.61,0 11.22,0 17,0 0,-6.6 0,-13.2 0,-20 6.6,0 13.2,0 20,0 0,-6.27 0,-12.54 0,-19 z"
     fill="#dcd6ba"
     id="path186" />
  <path
     d="m 294,0 c 69.3,0 138.6,0 210,0 0,6.27 0,12.54 0,19 25.41,0 50.82,0 77,0 0,6.6 0,13.2 0,20 12.54,0 25.08,0 38,0 0,6.27 0,12.54 0,19 13.2,0 26.4,0 40,0 0,6.6 0,13.2 0,20 2.5575,-0.02062 5.115,-0.04125 7.75,-0.0625 10.11097,-0.03881 20.15579,0.493812 30.25,1.0625 0,5.94 0,11.88 0,18 6.27,0 12.54,0 19,0 0,6.6 0,13.2 0,20 6.27,0 12.54,0 19,0 0,32.01 0,64.02 0,97 -6.27,0 -12.54,0 -19,0 0,6.27 0,12.54 0,19 -6.27,0 -12.54,0 -19,0 0,6.6 0,13.2 0,20 -6.27,0 -12.54,0 -19,0 0.0309,3.09375 0.0309,3.09375 0.0625,6.25 0.0763,7.62733 0.0763,7.62733 -1.0625,10.75 -2,2 -2,2 -4.40445,2.24051 -1.00816,-0.004 -2.01631,-0.009 -3.05502,-0.0135 -1.14103,-1.5e-4 -2.28207,-3e-4 -3.45767,-4.6e-4 -1.85473,-0.0155 -1.85473,-0.0155 -3.74692,-0.0313 -1.26235,-0.003 -2.52469,-0.006 -3.82529,-0.009 -3.35712,-0.009 -6.71397,-0.0273 -10.07101,-0.0494 -3.42517,-0.0205 -6.85037,-0.0297 -10.27558,-0.0397 -6.7215,-0.0204 -13.44254,-0.0595 -20.16406,-0.0977 0,12.54 0,25.08 0,38 -12.54,0 -25.08,0 -38,0 0,-0.33 0,-0.66 0,-1 5.94,0 11.88,0 18,0 0,-5.94 0,-11.88 0,-18 -1.65,0.33 -3.3,0.66 -5,1 -3.30044,0.0561 -6.58351,0.0251 -9.88281,-0.0391 -4.63891,-0.0516 -9.20091,0.17772 -13.82691,0.53686 -8.65052,0.61656 -17.27417,0.62949 -25.94262,0.59986 -1.63766,-0.002 -3.27532,-0.003 -4.91298,-0.004 -4.2561,-0.004 -8.51216,-0.0136 -12.76824,-0.0247 -4.36472,-0.0103 -8.72944,-0.0148 -13.09417,-0.0198 C 504.04816,293.03819 495.52409,293.02064 487,293 c 0,5.28 0,10.56 0,16 5.61,0 11.22,0 17,0 0,0.33 0,0.66 0,1 -12.63217,1.40636 -25.31045,1.08901 -38,1 0,-6.27 0,-12.54 0,-19 -12.54,0 -25.08,0 -38,0 0,12.54 0,25.08 0,38 -6.27,0 -12.54,0 -19,0 0,-19.14 0,-38.28 0,-58 -6.6,0 -13.2,0 -20,0 0,-6.27 0,-12.54 0,-19 37.95,0 75.9,0 115,0 0,-6.27 0,-12.54 0,-19 15.53676,-1.08774 31.01654,-1.12087 46.58612,-1.06866 3.44004,0.0104 6.88008,0.0148 10.32013,0.0198 6.69794,0.0109 13.39583,0.0281 20.09375,0.0488 0,6.6 0,13.2 0,20 18.81,0 37.62,0 57,0 0,-18.48 0,-36.96 0,-56 -4.29,0 -8.58,0 -13,0 -2.31,-0.33 -4.62,-0.66 -7,-1 0,-6.6 0,-13.2 0,-20 -6.27,0 -12.54,0 -19,0 0,-6.27 0,-12.54 0,-19 -12.54,0 -25.08,0 -38,0 0,-6.6 0,-13.2 0,-20 -18.81,0 -37.62,0 -57,0 0,-6.6 0,-13.2 0,-20 -57.75,0 -115.5,0 -175,0 0,6.27 0,12.54 0,19 -12.21,0 -24.42,0 -37,0 0,6.93 0,13.86 0,21 -6.6,0 -13.2,0 -20,0 0,31.68 0,63.36 0,96 13.2,0 26.4,0 40,0 0,6.6 0,13.2 0,20 -6.6,0 -13.2,0 -20,0 0,12.21 0,24.42 0,37 -6.93,0 -13.86,0 -21,0 0,-12.54 0,-25.08 0,-38 -7.59,0 -15.18,0 -23,0 0,-19.14 0,-38.28 0,-58 -6.6,0 -13.2,0 -20,0 0,-6.27 0,-12.54 0,-19 -6.27,0 -12.54,0 -19,0 0,-12.54 0,-25.08 0,-38 -6.27,0 -12.54,0 -19,0 0,-25.74 0,-51.48 0,-78 6.27,-0.33 12.54,-0.66 19,-1 0,-6.6 0,-13.2 0,-20 6.27,0 12.54,0 19,0 0,-6.27 0,-12.54 0,-19 6.6,0 13.2,0 20,0 0,-6.6 0,-13.2 0,-20 15.18,0 30.36,0 46,0 C 294,12.73 294,6.46 294,0 Z"
     fill="#2a1d17"
     id="path188" />
  <path
     d="m 329,117 c 57.75,0 115.5,0 175,0 0,6.6 0,13.2 0,20 18.81,0 37.62,0 57,0 0,6.6 0,13.2 0,20 12.54,0 25.08,0 38,0 0,6.27 0,12.54 0,19 6.27,0 12.54,0 19,0 0,6.6 0,13.2 0,20 6.6,0.33 13.2,0.66 20,1 0,18.48 0,36.96 0,56 -18.81,0 -37.62,0 -57,0 0,-6.6 0,-13.2 0,-20 -1.69302,0.0303 -3.38604,0.0606 -5.13037,0.0918 -5.67163,0.1011 -11.34328,0.2007 -17.01495,0.29935 -3.42976,0.0597 -6.85952,0.11996 -10.28925,0.1816 C 533.7083,233.83938 518.85971,234.06553 504,234 c 0,6.27 0,12.54 0,19 -37.95,0 -75.9,0 -115,0 0,6.27 0,12.54 0,19 6.6,0 13.2,0 20,0 0,19.14 0,38.28 0,58 6.27,0 12.54,0 19,0 0,-12.54 0,-25.08 0,-38 12.54,0 25.08,0 38,0 0,6.27 0,12.54 0,19 12.375,-0.495 12.375,-0.495 25,-1 -1.32,-0.33 -2.64,-0.66 -4,-1 0,-5.28 0,-10.56 0,-16 2.116,-0.0251 4.23199,-0.0501 6.41211,-0.0759 7.09658,-0.0846 14.1931,-0.17308 21.2896,-0.26341 4.29049,-0.0545 8.58099,-0.10777 12.87153,-0.15797 17.59519,-0.20669 35.17096,-0.43549 52.74903,-1.29761 5.89368,-0.28276 11.778,-0.30879 17.67773,-0.20508 -0.0174,1.93166 -0.0174,1.93166 -0.0352,3.90234 -0.009,1.67839 -0.0185,3.35677 -0.0273,5.03516 -0.008,0.85014 -0.0168,1.70027 -0.0254,2.57617 -0.003,0.80889 -0.006,1.61778 -0.01,2.45117 -0.005,0.74887 -0.0105,1.49773 -0.0159,2.26929 -0.0799,1.79255 -0.0799,1.79255 1.11353,2.76587 0,-11.88 0,-23.76 0,-36 0.33,0 0.66,0 1,0 0,11.88 0,23.76 0,36 5.94,0 11.88,0 18,0 0,-12.54 0,-25.08 0,-38 6.6,0 13.2,0 20,0 0,32.34 0,64.68 0,98 -6.6,0 -13.2,0 -20,0 0,12.54 0,25.08 0,38 -6.27,0 -12.54,0 -19,0 0,5.94 0,11.88 0,18 -5.94,0 -11.88,0 -18,0 0,-12.54 0,-25.08 0,-38 -12.87,0.33 -25.74,0.66 -39,1 0,-6.6 0,-13.2 0,-20 -6.27,0 -12.54,0 -19,0 0,-6.27 0,-12.54 0,-19 18.81,0 37.62,0 57,0 0,-6.27 0,-12.54 0,-19 -25.08,0 -50.16,0 -76,0 0,6.27 0,12.54 0,19 -0.66,0 -1.32,0 -2,0 0,6.27 0,12.54 0,19 -37.29,0 -74.58,0 -113,0 0,-12.54 0,-25.08 0,-38 -25.41,0 -50.82,0 -77,0 0,6.27 0,12.54 0,19 18.81,0 37.62,0 57,0 0,6.27 0,12.54 0,19 -6.27,0 -12.54,0 -19,0 0.0396,6.20793 0.0396,6.20793 0.0901,12.41577 0.002,0.76901 0.005,1.53801 0.008,2.33032 0.005,0.79076 0.0105,1.58152 0.0159,2.39624 C 350,388 350,388 349,389 c -1.4157,0.0865 -2.8356,0.10705 -4.25391,0.0977 -0.769,-0.002 -1.53801,-0.005 -2.33032,-0.008 -1.47424,-0.0137 -1.47424,-0.0137 -2.97827,-0.0276 -3.11438,-0.0202 -6.22875,-0.0408 -9.4375,-0.0621 0,6.27 0,12.54 0,19 -5.94,0 -11.88,0 -18,0 0,5.94 0,11.88 0,18 -6.6,0 -13.2,0 -20,0 0,-5.94 0,-11.88 0,-18 -6.6,0 -13.2,0 -20,0 0,-32.34 0,-64.68 0,-98 6.6,0 13.2,0 20,0 0,-12.21 0,-24.42 0,-37 6.6,0 13.2,0 20,0 0,-6.6 0,-13.2 0,-20 -13.2,0 -26.4,0 -40,0 0,-31.68 0,-63.36 0,-96 6.6,0 13.2,0 20,0 0,-6.93 0,-13.86 0,-21 12.21,0 24.42,0 37,0 0,-6.27 0,-12.54 0,-19 z"
     fill="#ebb385"
     id="path190" />
  <path
     d="m 696,602 c 13.53,0 27.06,0 41,0 0,6.27 0,12.54 0,19 18.81,0 37.62,0 57,0 0,6.27 0,12.54 0,19 25.74,0 51.48,0 78,0 0,6.6 0,13.2 0,20 2.64,-0.33 5.28,-0.66 8,-1 2.44696,-0.0759 4.89564,-0.10821 7.34375,-0.0977 0.65456,10e-4 1.30912,0.003 1.98352,0.004 2.05763,0.005 4.11514,0.0181 6.17273,0.0309 1.40885,0.005 2.81771,0.01 4.22656,0.0137 3.4245,0.0117 6.84898,0.0297 10.27344,0.0488 0,6.6 0,13.2 0,20 5.94,0 11.88,0 18,0 0,13.2 0,26.4 0,40 -5.94,0 -11.88,0 -18,0 0,12.54 0,25.08 0,38 -6.27,0 -12.54,0 -19,0 0,12.87 0,25.74 0,39 -6.27,0 -12.54,0 -19,0 0,6.27 0,12.54 0,19 -6.6,0 -13.2,0 -20,0 0,12.87 0,25.74 0,39 -6.27,0 -12.54,0 -19,0 0,5.94 0,11.88 0,18 -2.70716,0.90239 -4.23777,1.11851 -7.01172,1.09766 -1.0242,-0.004 -1.0242,-0.004 -2.06909,-0.008 -1.29031,-0.0137 -1.29031,-0.0137 -2.60669,-0.0276 -2.74313,-0.0206 -5.48625,-0.0412 -8.3125,-0.0625 0,6.27 0,12.54 0,19 -6.27,0 -12.54,0 -19,0 0,6.27 0,12.54 0,19 -6.6,0 -13.2,0 -20,0 0,6.6 0,13.2 0,20 -12.21,0 -24.42,0 -37,0 0,6.27 0,12.54 0,19 -13.2,0 -26.4,0 -40,0 0,6.27 0,12.54 0,19 -12.54,0 -25.08,0 -38,0 0,6.6 0,13.2 0,20 -13.2,0 -26.4,0 -40,0 0,-44.55 0,-89.1 0,-135 6.27,0 12.54,0 19,0 0,-19.47 0,-38.94 0,-59 6.6,0 13.2,0 20,0 0,-12.54 0,-25.08 0,-38 6.27,0 12.54,0 19,0 0,-25.74 0,-51.48 0,-78 6.27,0 12.54,0 19,0 C 696,653.59 696,628.18 696,602 Z"
     fill="#0A522C"
     id="path192"
     style="fill:#0c5686;fill-opacity:1" />
  <path
     d="m 229,601 c 0,44.88 0,89.76 0,136 6.6,0 13.2,0 20,0 -0.33,76.89 -0.66,153.78 -1,233 -12.21,0 -24.42,0 -37,0 0,-6.6 0,-13.2 0,-20 -13.2,0 -26.4,0 -40,0 0,-6.27 0,-12.54 0,-19 -6.27,0 -12.54,0 -19,0 0,-6.6 0,-13.2 0,-20 -12.54,0 -25.08,0 -38,0 0,-6.27 0,-12.54 0,-19 -6.27,0 -12.54,0 -19,0 0,-6.27 0,-12.54 0,-19 -1.815,0.0206 -3.63,0.0412 -5.5,0.0625 -5.03335,0.0572 -9.39913,-0.42489 -14.5,-1.0625 0,-5.94 0,-11.88 0,-18 -6.27,0 -12.54,0 -19,0 0,-6.27 0,-12.54 0,-19 -6.27,0 -12.54,0 -19,0 0,-12.87 0,-25.74 0,-39 -6.6,0 -13.2,0 -20,0 0,-12.87 0,-25.74 0,-39 -5.61,0 -11.22,0 -17,0 0,-19.14 0,-38.28 0,-58 5.42635,-1.80878 11.33115,-1.05201 17,-1 0,-6.27 0,-12.54 0,-19 6.6,0 13.2,0 20,0 0,-6.27 0,-12.54 0,-19 12.71171,-0.88429 25.25476,-1.08441 38,-1 0,-6.27 0,-12.54 0,-19 25.74,0 51.48,0 78,0 0,-6.27 0,-12.54 0,-19 12.54,0 25.08,0 38,0 0,-6.27 0,-12.54 0,-19 3.70819,-0.17049 7.4165,-0.33645 11.125,-0.5 1.02738,-0.0477 2.05477,-0.0954 3.11328,-0.14453 C 213.18324,601.01004 221.02788,601 229,601 Z"
     fill="#0A522C"
     id="path194"
     style="fill:#0c5686;fill-opacity:1" />
  <path
     d="m 312,233 c 25.41,0 50.82,0 77,0 0,12.87 0,25.74 0,39 6.6,0 13.2,0 20,0 0,19.14 0,38.28 0,58 6.27,0 12.54,0 19,0 0,-12.54 0,-25.08 0,-38 12.54,0 25.08,0 38,0 0,6.27 0,12.54 0,19 12.375,-0.495 12.375,-0.495 25,-1 -1.32,-0.33 -2.64,-0.66 -4,-1 0,-5.28 0,-10.56 0,-16 2.116,-0.0251 4.23199,-0.0501 6.41211,-0.0759 7.09658,-0.0846 14.1931,-0.17308 21.2896,-0.26341 4.29049,-0.0545 8.58099,-0.10778 12.87153,-0.15798 17.59519,-0.20668 35.17096,-0.43548 52.74903,-1.2976 5.89368,-0.28276 11.778,-0.30879 17.67773,-0.20508 -0.0174,1.93166 -0.0174,1.93166 -0.0352,3.90234 -0.009,1.67839 -0.0185,3.35677 -0.0273,5.03516 -0.008,0.85014 -0.0168,1.70027 -0.0254,2.57617 -0.003,0.80889 -0.006,1.61777 -0.01,2.45117 -0.005,0.74887 -0.0105,1.49773 -0.0159,2.26929 -0.0799,1.79255 -0.0799,1.79255 1.11353,2.76587 0,-11.88 0,-23.76 0,-36 0.33,0 0.66,0 1,0 0,11.88 0,23.76 0,36 5.94,0 11.88,0 18,0 0,-12.54 0,-25.08 0,-38 6.6,0 13.2,0 20,0 0,32.34 0,64.68 0,98 -6.6,0 -13.2,0 -20,0 0,12.54 0,25.08 0,38 -6.27,0 -12.54,0 -19,0 0,5.94 0,11.88 0,18 -5.94,0 -11.88,0 -18,0 0,-12.54 0,-25.08 0,-38 -12.87,0.33 -25.74,0.66 -39,1 0,-6.6 0,-13.2 0,-20 -6.27,0 -12.54,0 -19,0 0,-6.27 0,-12.54 0,-19 18.81,0 37.62,0 57,0 0,-6.27 0,-12.54 0,-19 -25.08,0 -50.16,0 -76,0 0,6.27 0,12.54 0,19 -0.66,0 -1.32,0 -2,0 0,6.27 0,12.54 0,19 -37.29,0 -74.58,0 -113,0 0,-12.54 0,-25.08 0,-38 -25.41,0 -50.82,0 -77,0 0,6.27 0,12.54 0,19 18.81,0 37.62,0 57,0 0,6.27 0,12.54 0,19 -6.27,0 -12.54,0 -19,0 0.0396,6.20793 0.0396,6.20793 0.0901,12.41577 0.002,0.76901 0.005,1.53801 0.008,2.33032 0.005,0.79076 0.0105,1.58152 0.0159,2.39624 C 350,388 350,388 349,389 c -1.4157,0.0865 -2.8356,0.10705 -4.25391,0.0977 -0.769,-0.002 -1.53801,-0.005 -2.33032,-0.008 -0.98283,-0.009 -1.96566,-0.0182 -2.97827,-0.0276 -3.11438,-0.0202 -6.22875,-0.0408 -9.4375,-0.0621 0,6.27 0,12.54 0,19 -5.94,0 -11.88,0 -18,0 0,5.94 0,11.88 0,18 -6.6,0 -13.2,0 -20,0 0,-5.94 0,-11.88 0,-18 -6.6,0 -13.2,0 -20,0 0,-32.34 0,-64.68 0,-98 6.6,0 13.2,0 20,0 0,-12.21 0,-24.42 0,-37 6.6,0 13.2,0 20,0 0,-13.2 0,-26.4 0,-40 z"
     fill="#ecb082"
     id="path196" />
  <path
     d="m 638,544 c 6.6,0 13.2,0 20,0 0,6.27 0,12.54 0,19 6.27,0 12.54,0 19,0 0,6.27 0,12.54 0,19 6.27,0 12.54,0 19,0 0,32.01 0,64.02 0,97 -6.27,0 -12.54,0 -19,0 0,25.74 0,51.48 0,78 -6.27,0 -12.54,0 -19,0 0,12.54 0,25.08 0,38 -6.6,0 -13.2,0 -20,0 0,19.47 0,38.94 0,59 -6.27,0 -12.54,0 -19,0 0,44.55 0,89.1 0,135 -6.6,0 -13.2,0 -20,0 0,6.6 0,13.2 0,20 -25.08,0 -50.16,0 -76,0 0,-25.74 0,-51.48 0,-78 6.6,0 13.2,0 20,0 0,-25.41 0,-50.82 0,-77 5.94,0 11.88,0 18,0 0,-19.47 0,-38.94 0,-59 6.27,0 12.54,0 19,0 0,-12.87 0,-25.74 0,-39 6.27,0 12.54,0 19,0 0,-19.14 0,-38.28 0,-58 6.27,0 12.54,0 19,0 0,-12.54 0,-25.08 0,-38 6.6,0 13.2,0 20,0 -0.10828,-3.37992 -0.10828,-3.37992 -0.21875,-6.82812 C 636.65301,616.7388 637.02097,580.43405 638,544 Z"
     fill="#DA9018"
     id="path198"
     style="fill:#166497;fill-opacity:1" />
  <path
     d="m 248,582 c 14.52,0 29.04,0 44,0 0,51.15 0,102.3 0,155 6.6,0 13.2,0 20,0 0,25.74 0,51.48 0,78 6.27,0 12.54,0 19,0 0,64.02 0,128.04 0,194 -6.27,0 -12.54,0 -19,0 0,-6.6 0,-13.2 0,-20 -20.79,0 -41.58,0 -63,0 -1.14874,-21.82615 -1.14874,-21.82615 -1.12698,-29.99634 -0.002,-0.95333 -0.003,-1.90667 -0.005,-2.88889 -0.004,-3.11249 -8.6e-4,-6.22493 0.002,-9.33743 -0.001,-2.26391 -0.003,-4.52783 -0.005,-6.79174 -0.005,-6.08567 -0.003,-12.17132 3.7e-4,-18.25698 0.003,-6.38602 1.8e-4,-12.77204 -0.001,-19.15806 -0.002,-11.38505 0.001,-22.77009 0.006,-34.15514 0.004,-10.32207 0.004,-20.64413 -9.2e-4,-30.9662 -0.005,-12.02071 -0.007,-24.0414 -0.004,-36.06211 0.002,-6.35187 0.002,-12.70373 -0.002,-19.0556 -0.003,-5.95582 -9e-4,-11.91161 0.005,-17.86743 0.001,-2.18861 9.3e-4,-4.37722 -0.001,-6.56583 -0.003,-2.97791 6.7e-4,-5.95575 0.006,-8.93365 -0.002,-0.87322 -0.004,-1.74644 -0.007,-2.64612 0.011,-3.3576 0.0645,-6.11076 1.13374,-9.31848 -6.6,0 -13.2,0 -20,0 0,-44.88 0,-89.76 0,-136 6.27,0 12.54,0 19,0 0,-6.27 0,-12.54 0,-19 z"
     fill="#DA9017"
     id="path200"
     style="fill:#166497;fill-opacity:1" />
  <path
     d="m 294,0 c 69.3,0 138.6,0 210,0 0,6.27 0,12.54 0,19 25.41,0 50.82,0 77,0 0,6.6 0,13.2 0,20 12.54,0 25.08,0 38,0 0,6.27 0,12.54 0,19 13.2,0 26.4,0 40,0 0,6.6 0,13.2 0,20 2.5575,-0.02062 5.115,-0.04125 7.75,-0.0625 10.11097,-0.03881 20.15579,0.493812 30.25,1.0625 0,5.94 0,11.88 0,18 6.27,0 12.54,0 19,0 0,6.6 0,13.2 0,20 6.27,0 12.54,0 19,0 0,32.01 0,64.02 0,97 -6.27,0 -12.54,0 -19,0 0,6.27 0,12.54 0,19 -6.27,0 -12.54,0 -19,0 -0.14477,-7.75142 -0.28707,-15.50289 -0.42725,-23.25439 -0.0478,-2.62795 -0.0963,-5.25588 -0.1455,-7.88379 C 696.14161,186.57163 695.94129,171.29299 696,156 c -6.6,0 -13.2,0 -20,0 0,-6.6 0,-13.2 0,-20 -12.21,0 -24.42,0 -37,0 0,-6.27 0,-12.54 0,-19 -13.2,0 -26.4,0 -40,0 0,-6.6 0,-13.2 0,-20 -6.27,0 -12.54,0 -19,0 0,-6.27 0,-12.54 0,-19 -6.27,0 -12.54,0 -19,0 0,-6.27 0,-12.54 0,-19 -6.6,0 -13.2,0 -20,0 0,-6.6 0,-13.2 0,-20 -6.27,0 -12.54,0 -19,0 0,6.27 0,12.54 0,19 -5.94,0 -11.88,0 -18,0 0,-6.27 0,-12.54 0,-19 -12.54,0 -25.08,0 -38,0 0,-5.94 0,-11.88 0,-18 -5.94,0 -11.88,0 -18,0 0,5.94 0,11.88 0,18 -6.6,0 -13.2,0 -20,0 0,-6.27 0,-12.54 0,-19 -12.87,0 -25.74,0 -39,0 0,5.94 0,11.88 0,18 -14.48728,0.838035 -28.88216,1.135119 -43.39063,1.097656 -2.16859,-0.0019 -4.33719,-0.0033 -6.50579,-0.0043 -5.63533,-0.0038 -11.27063,-0.01355 -16.90595,-0.0247 -5.77941,-0.01033 -11.55883,-0.01482 -17.33826,-0.01984 C 293.5729,39.038188 282.28646,39.020637 271,39 c 0,6.6 0,13.2 0,20 -7.26,0 -14.52,0 -22,0 -5.48297,-10.965942 -1.54732,-29.053663 -1,-40 15.18,0 30.36,0 46,0 0,-6.27 0,-12.54 0,-19 z"
     fill="#48362a"
     id="path202" />
  <path
     d="m 329,117 c 57.75,0 115.5,0 175,0 0,6.6 0,13.2 0,20 18.81,0 37.62,0 57,0 0,6.6 0,13.2 0,20 12.54,0 25.08,0 38,0 0,6.27 0,12.54 0,19 6.27,0 12.54,0 19,0 0,6.6 0,13.2 0,20 6.6,0.33 13.2,0.66 20,1 0,5.61 0,11.22 0,17 -26.11845,0.18451 -26.11845,0.18451 -39,-1 0,-5.94 0,-11.88 0,-18 -12.54,0 -25.08,0 -38,0 0,-6.27 0,-12.54 0,-19 -12.87,0 -25.74,0 -39,0 0,-6.27 0,-12.54 0,-19 -63.36,0 -126.72,0 -192,0 0,6.27 0,12.54 0,19 -12.54,0 -25.08,0 -38,0 0,6.27 0,12.54 0,19 -6.6,0 -13.2,0 -20,0 0,-12.54 0,-25.08 0,-38 6.6,0 13.2,0 20,0 0,-6.93 0,-13.86 0,-21 12.21,0 24.42,0 37,0 0,-6.27 0,-12.54 0,-19 z"
     fill="#bc7859"
     id="path204" />
  <path
     d="m 447,680 c 5.94,0 11.88,0 18,0 0,12.21 0,24.42 0,37 -5.94,0 -11.88,0 -18,0 0,6.93 0,13.86 0,21 6.27,0 12.54,0 19,0 0,-6.6 0,-13.2 0,-20 12.54,0 25.08,0 38,0 0,6.27 0,12.54 0,19 5.94,0 11.88,0 18,0 0,6.27 0,12.54 0,19 -6.27,0 -12.54,0 -19,0 0,6.93 0,13.86 0,21 6.27,0 12.54,0 19,0 0,12.54 0,25.08 0,38 -12.21,0 -24.42,0 -37,0 0,-6.27 0,-12.54 0,-19 -25.41,0 -50.82,0 -77,0 0,-6.6 0,-13.2 0,-20 -6.27,0 -12.54,0 -19,0 0,-12.87 0,-25.74 0,-39 6.27,0 12.54,0 19,0 -0.0309,-4.36219 -0.0309,-4.36219 -0.0625,-8.8125 C 407.903,718.09756 408.36225,708.06726 409,698 c 12.71713,-0.12817 25.30335,0.23629 38,1 0,-6.27 0,-12.54 0,-19 z"
     fill="#ECB016"
     id="path206"
     style="fill:#9a52b0;fill-opacity:1" />
  <path
     d="m 550.58612,232.93134 c 3.44004,0.0104 6.88008,0.0149 10.32013,0.0198 6.69796,0.0101 13.39579,0.0296 20.09375,0.0488 0,12.87 0,25.74 0,39 6.27,0 12.54,0 19,0 -0.33,12.54 -0.66,25.08001 -1,38 -6.27,0 -12.54,0 -19,0 0,-0.33 0,-0.65999 0,-1 5.94,0 11.88,0 18,0 0,-5.93999 0,-11.88 0,-18 -2.475,0.495 -2.475,0.495 -5,1 -3.30044,0.0561 -6.58351,0.0251 -9.88281,-0.039 -4.63891,-0.0516 -9.20091,0.17772 -13.82691,0.53686 -8.65052,0.61656 -17.27417,0.62949 -25.94262,0.59985 -1.63766,-0.002 -3.27532,-0.003 -4.91298,-0.004 -4.2561,-0.004 -8.51216,-0.0136 -12.76824,-0.0247 -4.36472,-0.0103 -8.72944,-0.0148 -13.09417,-0.0198 -8.52411,-0.0106 -17.04818,-0.0282 -25.57227,-0.0488 0,5.28 0,10.56 0,16 5.61,0 11.22,0 17,0 0,0.33 0,0.66 0,1 -12.63217,1.40637 -25.31045,1.08902 -38,1 0,-6.27 0,-12.54 0,-19 -12.54,0 -25.08,0 -38,0 0,12.54 0,25.08 0,38 -6.27,0 -12.54,0 -19,0 0,-19.14 0,-38.28 0,-58 -6.6,0 -13.2,0 -20,0 0,-6.27 0,-12.54 0,-19 37.95,0 75.9,0 115,0 0,-6.27 0,-12.54 0,-19 15.53676,-1.08773 31.01654,-1.12085 46.58612,-1.06865 z"
     fill="#e9b183"
     id="path208" />
  <path
     d="m 369,834 c 26.11845,-0.18451 26.11845,-0.18451 39,1 0,6.27 0,12.54 0,19 6.27,0 12.54,0 19,0 0,6.6 0,13.2 0,20 6.27,0 12.54,0 19,0 0,18.81 0,37.62 0,57 6.6,0 13.2,0 20,0 0,6.6 0,13.2 0,20 -12.54,0 -25.08,0 -38,0 0,5.94 0,11.88 0,18 -6.6,0 -13.2,0 -20,0 0,-6.27 0,-12.54 0,-19 -6.27,0 -12.54,0 -19,0 0,-12.87 0,-25.74 0,-39 -6.6,0 -13.2,0 -20,0 0,-6.6 0,-13.2 0,-20 -6.27,0 -12.54,0 -19,0 0,-12.54 0,-25.08 0,-38 6.27,0 12.54,0 19,0 0,-6.27 0,-12.54 0,-19 z"
     fill="#ECB016"
     id="path210"
     style="fill:#9a52b0;fill-opacity:1" />
  <path
     d="m 260.6875,271.9375 c 1.8396,0.0115 3.6792,0.0226 5.5188,0.0335 2.39685,0.0145 2.39685,0.0145 4.7937,0.029 0.9744,28.68318 1.12755,57.34056 1.06866,86.03833 -0.0105,5.6604 -0.0148,11.3208 -0.0198,16.9812 -0.0106,10.99351 -0.0281,21.98698 -0.0488,32.98047 6.59999,0 13.19999,0 20,0 0,5.94 0,11.88 0,18 0.65999,0.33 1.31999,0.66 2,1 -0.33001,6.27 -0.66001,12.54 -1,19 -6.3561,2.1187 -13.31165,1.60657 -20,2 0,18.48 0,36.96 0,56 -7.92001,0 -15.84001,0 -24,0 0,12.87 0,25.74 0,39 7.25999,0 14.51999,0 22,0 0,0.33 0,0.66 0,1 -7.59001,0 -15.18001,0 -23,0 0,-57.75 0,-115.5 0,-175 -6.27001,0 -12.54001,0 -19,0 0,-31.68 0,-63.36 0,-96 21.84414,-1.14969 21.84414,-1.14969 31.6875,-1.0625 z"
     fill="#7a3b19"
     id="path212" />
  <path
     d="m 409,388 c 24.75,0 49.5,0 75,0 0,6.6 0,13.2 0,20 -3.18546,1.59273 -6.63199,1.10142 -10.125,1.0625 -2.59875,-0.0206 -5.1975,-0.0412 -7.875,-0.0625 0,5.61 0,11.22 0,17 6.27,0 12.54,0 19,0 0,-5.94 0,-11.88 0,-18 12.54,0 25.08,0 38,0 0,6.27 0,12.54 0,19 -6.27,0 -12.54,0 -19,0 0,6.27 0,12.54 0,19 -6.27,0 -12.54,0 -19,0 0,6.6 0,13.2 0,20 -25.6739,0.21757 -51.334,-0.43383 -77,-1 0,-6.27 0,-12.54 0,-19 -6.27,0 -12.54,0 -19,0 0,-6.27 0,-12.54 0,-19 -6.6,0 -13.2,0 -20,0 0,-6.27 0,-12.54 0,-19 12.87,0 25.74,0 39,0 0,5.61 0,11.22 0,17 6.6,0 13.2,0 20,0 0,-5.61 0,-11.22 0,-17 -6.27,0 -12.54,0 -19,0 0,-6.6 0,-13.2 0,-20 z"
     fill="#6f3418"
     id="path214" />
  <path
     d="m 618,272 c 6.6,0 13.2,0 20,0 0,32.34 0,64.68 0,98 -6.6,0 -13.2,0 -20,0 0,12.54 0,25.08 0,38 -6.27,0 -12.54,0 -19,0 0,5.94 0,11.88 0,18 -5.94,0 -11.88,0 -18,0 0,-12.54 0,-25.08 0,-38 -12.87,0.33 -25.74,0.66 -39,1 0,-6.6 0,-13.2 0,-20 -6.27,0 -12.54,0 -19,0 0,-6.27 0,-12.54 0,-19 18.81,0 37.62,0 57,0 0,-6.27 0,-12.54 0,-19 5.94,0 11.88,0 18,0 0,-6.27 0,-12.54 0,-19 7,-2 7,-2 20,-2 0,-12.54 0,-25.08 0,-38 z"
     fill="#ecb283"
     id="path216" />
  <path
     d="m 677,79 c 6.6,0 13.2,0 20,0 0,5.94 0,11.88 0,18 6.27,0 12.54,0 19,0 0,6.6 0,13.2 0,20 6.27,0 12.54,0 19,0 0,32.01 0,64.02 0,97 -6.27,0 -12.54,0 -19,0 0,6.27 0,12.54 0,19 -6.27,0 -12.54,0 -19,0 -0.14477,-7.75142 -0.28707,-15.50289 -0.42725,-23.25439 -0.0479,-2.62795 -0.0963,-5.25588 -0.1455,-7.88379 C 696.14161,186.57163 695.94129,171.29299 696,156 c -6.6,0 -13.2,0 -20,0 0,-6.6 0,-13.2 0,-20 -12.21,0 -24.42,0 -37,0 0,-6.27 0,-12.54 0,-19 6.27,0 12.54,0 19,0 0,-6.6 0,-13.2 0,-20 5.94,0 11.88,0 18,0 0,6.6 0,13.2 0,20 6.6,0 13.2,0 20,0 0,-6.6 0,-13.2 0,-20 -6.27,0 -12.54,0 -19,0 0,-5.94 0,-11.88 0,-18 z"
     fill="#4b382b"
     id="path218" />
  <path
     d="m 390.91905,485.87695 c 0.84713,9.2e-4 1.69426,0.002 2.56705,0.003 0.96901,-0.001 1.93801,-0.003 2.93637,-0.004 1.60761,0.005 1.60761,0.005 3.2477,0.0109 1.68271,-2.2e-4 1.68271,-2.2e-4 3.39942,-4.4e-4 3.72812,7e-4 7.4562,0.008 11.18432,0.0163 2.5769,0.002 5.1538,0.003 7.7307,0.004 6.10215,0.003 12.20427,0.0113 18.30641,0.0213 6.94548,0.0112 13.89095,0.0167 20.83644,0.0217 14.29086,0.0105 28.5817,0.0288 42.87254,0.0503 0,12.54 0,25.08 0,38 -6.27,0 -12.54,0 -19,0 0,19.14 0,38.28 0,58 -6.27,0.33 -12.53999,0.66 -19,1 0,-19.47 0,-38.94 0,-59 -6.27,0 -12.53999,0 -18.99999,0 0,-6.27 0,-12.54 0,-19 -6.27001,0 -12.54,0 -19,0 0,6.6 0,13.2 0,20 -6.27001,0 -12.54,0 -19,0 0,18.81 0,37.62 0,57 -6.6,0 -13.20001,0 -20.00001,0 0,-19.14 0,-38.28 0,-58 -6.27,0 -12.53999,0 -18.99999,0 0,-6.27 0,-12.54 0,-19 5.94,0 11.87999,0 17.99999,0 -0.0396,-5.87883 -0.0396,-5.87883 -0.0901,-11.75757 -0.002,-0.7284 -0.005,-1.4568 -0.008,-2.20728 -0.008,-1.12329 -0.008,-1.12329 -0.0159,-2.26928 0.16141,-2.51071 0.53039,-2.72848 3.03257,-2.88892 z"
     fill="#994d1b"
     id="path220" />
  <path
     d="m 294,0 c 69.3,0 138.6,0 210,0 0,0.33 0,0.66 0,1 -6.27,0 -12.54,0 -19,0 0,6.27 0,12.54 0,19 -6.27,0 -12.54,0 -19,0 0,-6.27 0,-12.54 0,-19 -6.27,0 -12.54,0 -19,0 0,6.27 0,12.54 0,19 -19.14,0 -38.28,0 -58,0 0,5.94 0,11.88 0,18 -14.48728,0.838035 -28.88216,1.135119 -43.39063,1.097656 -2.16859,-0.0019 -4.33719,-0.0033 -6.50579,-0.0043 -5.63533,-0.0038 -11.27063,-0.01355 -16.90595,-0.0247 -5.77941,-0.01033 -11.55883,-0.01482 -17.33826,-0.01984 C 293.5729,39.038188 282.28646,39.020637 271,39 c 0,6.6 0,13.2 0,20 -7.26,0 -14.52,0 -22,0 -5.48297,-10.965942 -1.54732,-29.053663 -1,-40 15.18,0 30.36,0 46,0 0,-6.27 0,-12.54 0,-19 z"
     fill="#49372b"
     id="path222" />
  <path
     d="m 272,310 c 6.6,0 13.2,0 20,0 0.33,0.33 0.66,0.66 1,1 6.27,0 12.54,0 19,0 0,12.87 0,25.74 0,39 18.81,0 37.62,0 57,0 0,6.27 0,12.54 0,19 -6.27,0 -12.54,0 -19,0 0.0396,6.20793 0.0396,6.20793 0.0901,12.41577 0.002,0.76901 0.005,1.53801 0.008,2.33032 0.005,0.79076 0.0105,1.58152 0.0159,2.39624 C 350,388 350,388 349,389 c -1.4157,0.0865 -2.8356,0.10705 -4.25391,0.0977 -0.769,-0.002 -1.53801,-0.005 -2.33032,-0.008 -0.98283,-0.009 -1.96566,-0.0182 -2.97827,-0.0276 -3.11438,-0.0206 -6.22875,-0.0412 -9.4375,-0.0625 0,6.27 0,12.54 0,19 -5.94,0 -11.88,0 -18,0 0,5.94 0,11.88 0,18 -6.6,0 -13.2,0 -20,0 0,-5.94 0,-11.88 0,-18 -6.6,0 -13.2,0 -20,0 0,-32.34 0,-64.68 0,-98 z"
     fill="#eaaf81"
     id="path224" />
  <path
     d="m 389,20 c 12.87,0 25.74,0 39,0 0,6.27 0,12.54 0,19 6.6,0 13.2,0 20,0 0,-5.94 0,-11.88 0,-18 5.94,0 11.88,0 18,0 0,5.94 0,11.88 0,18 12.54,0 25.08,0 38,0 0,6.27 0,12.54 0,19 6.93,0 13.86,0 21,0 -3.04681,2.031207 -3.60118,2.246599 -7.01172,2.195312 -0.6828,-0.005 -1.3656,-0.01 -2.06909,-0.01514 -0.86021,-0.01821 -1.72042,-0.03642 -2.60669,-0.05518 C 510.56937,60.08375 507.82625,60.0425 505,60 c 0,5.61 0,11.22 0,17 11.88,0 23.76,0 36,0 0,0.33 0,0.66 0,1 -12.54,0 -25.08,0 -38,0 0,-6.27 0,-12.54 0,-19 -69.63,0 -139.26,0 -211,0 0,-6.6 0,-13.2 0,-20 9.69412,-0.131816 19.38825,-0.262458 29.08242,-0.391151 4.50362,-0.05983 9.00724,-0.120136 13.51084,-0.181603 C 371.32625,37.926512 371.32625,37.926512 389,38 c 0,-5.94 0,-11.88 0,-18 z"
     fill="#2a1e17"
     id="path226" />
  <path
     d="m 391.09221,57.871432 c 5.4215,0.0038 10.84298,0.0024 16.26448,-0.0018 C 472.98558,57.819802 472.98558,57.819802 503,59 c 0,6.27 0,12.54 0,19 12.54,0 25.08,0 38,0 0,6.27 0,12.54 0,19 -11.88,0 -23.76,0 -36,0 0,-5.61 0,-11.22 0,-17 -13.01367,-0.777312 -25.93205,-1.141048 -38.96558,-1.113525 -1.91411,2.83e-4 -3.82821,1.22e-4 -5.74232,-4.42e-4 -5.13096,-2.84e-4 -10.26188,0.0055 -15.39283,0.01257 -5.38645,0.0063 -10.7729,0.0068 -16.15936,0.008 -10.17084,0.0031 -20.34166,0.01128 -30.5125,0.02135 -11.59151,0.01123 -23.18302,0.01669 -34.77454,0.0217 -23.81763,0.01042 -47.63525,0.02818 -71.45287,0.05032 0,5.94 0,11.88 0,17.999997 -6.93,0 -13.86,0 -21,0 0,-6.269997 0,-12.539997 0,-18.999997 6.93,0 13.86,0 21,0 0,-6.27 0,-12.54 0,-19 33.02277,-1.249337 66.05183,-1.15423 99.09221,-1.128541 z"
     fill="#715e51"
     id="path228" />
  <path
     d="m 599,274 c 0.33,0 0.66,0 1,0 0,11.88 0,23.76 0,36 1.65,0 3.3,0 5,0 0,0.33 0,0.66 0,1 -2.97,0.495 -2.97,0.495 -6,1 -0.33,6.27 -0.66,12.54 -1,19 -31.02,0 -62.04,0 -94,0 0,6.27 0,12.54 0,19 -0.99,0 -1.98,0 -3,0 0,5.61 0,11.22 0,17 -11.55,0 -23.1,0 -35,0 0,-5.61 0,-11.22 0,-17 6.27,0 12.54,0 19,0 0,-12.87 0,-25.74 0,-39 2.97,-0.495 2.97,-0.495 6,-1 -1.32,-0.33 -2.64,-0.66 -4,-1 0,-5.28 0,-10.56 0,-16 2.116,-0.0251 4.23199,-0.0501 6.41211,-0.0759 7.09658,-0.0846 14.1931,-0.17308 21.2896,-0.26341 4.29049,-0.0545 8.58099,-0.10778 12.87153,-0.15798 17.59518,-0.20668 35.17096,-0.43548 52.74903,-1.2976 5.89368,-0.28276 11.778,-0.30879 17.67773,-0.20508 -0.0174,1.93166 -0.0174,1.93166 -0.0352,3.90234 -0.009,1.67839 -0.0185,3.35677 -0.0273,5.03516 -0.008,0.85014 -0.0168,1.70027 -0.0254,2.57617 -0.003,0.80889 -0.006,1.61777 -0.01,2.45117 -0.005,0.74887 -0.0105,1.49773 -0.0159,2.26929 -0.0799,1.79255 -0.0799,1.79255 1.11353,2.76587 0,-11.88 0,-23.76 0,-36 z"
     fill="#e7ab7e"
     id="path230" />
  <path
     d="m 369,427 c 6.6,0 13.2,0 20,0 0,6.27 0,12.54 0,19 6.27,0 12.54,0 19,0 0,6.27 0,12.54 0,19 1.37325,-0.005 2.74651,-0.0105 4.16138,-0.0159 50.25259,-0.17508 50.25259,-0.17508 72.83862,1.0159 0,-6.6 0,-13.2 0,-20 6.27,0 12.54,0 19,0 0,-6.27 0,-12.54 0,-19 6.27,0 12.54,0 19,0 0,12.87 0,25.74 0,39 -6.27,0 -12.54,0 -19,0 0,6.6 0,13.2 0,20 -37.95,0 -75.9,0 -115,0 0,-6.6 0,-13.2 0,-20 -6.6,0 -13.2,0 -20,0 0,-12.87 0,-25.74 0,-39 z"
     fill="#6e3417"
     id="path232" />
  <path
     d="m 447,1 c 6.27,0 12.54,0 19,0 0,6.27 0,12.54 0,19 6.27,0 12.54,0 19,0 0,-6.27 0,-12.54 0,-19 6.27,0 12.54,0 19,0 0,5.94 0,11.88 0,18 25.08,0 50.16,0 76,0 0,6.93 0,13.86 0,21 -6.27,0 -12.54,0 -19,0 0,5.94 0,11.88 0,18 6.27,0 12.54,0 19,0 0,6.6 0,13.2 0,20 -6.27,0 -12.54,0 -19,0 0,-6.27 0,-12.54 0,-19 -6.6,0 -13.2,0 -20,0 0,-6.6 0,-13.2 0,-20 -6.27,0 -12.54,0 -19,0 0,6.27 0,12.54 0,19 -5.94,0 -11.88,0 -18,0 0,-6.27 0,-12.54 0,-19 -12.54,0 -25.08,0 -38,0 0,-5.94 0,-11.88 0,-18 -5.94,0 -11.88,0 -18,0 0,5.94 0,11.88 0,18 -6.6,0 -13.2,0 -20,0 0,-6.27 0,-12.54 0,-19 6.27,0 12.54,0 19,0 0,-6.27 0,-12.54 0,-19 z"
     fill="#766455"
     id="path234" />
  <path
     d="m 209,58 c 12.87,0 25.74,0 39,0 0,6.93 0,13.86 0,21 -6.6,0 -13.2,0 -20,0 0,32.34 0,64.68 0,98 -6.27,0 -12.54,0 -19,0 0,-6.6 0,-13.2 0,-20 -6.27,0 -12.54,0 -19,0 0,-25.74 0,-51.48 0,-78 6.27,-0.33 12.54,-0.66 19,-1 0,-6.6 0,-13.2 0,-20 z"
     fill="#48362a"
     id="path236" />
  <path
     d="m 658,272 c 12.87,0 25.74,0 39,0 0,25.74 0,51.48 0,78 -6.6,0 -13.2,0 -20,0 0,12.87 0,25.74 0,39 -6.27,0 -12.54,0 -19,0 0,-38.61 0,-77.22 0,-117 z"
     fill="#e1966b"
     id="path238" />
  <path
     d="m 389,427 c 37.95,0 75.9,0 115,0 0,6.27 0,12.54 0,19 -6.27,0 -12.54,0 -19,0 0,6.6 0,13.2 0,20 -25.6739,0.21757 -51.334,-0.43383 -77,-1 0,-6.27 0,-12.54 0,-19 -6.27,0 -12.54,0 -19,0 0,-6.27 0,-12.54 0,-19 z"
     fill="#ecd8b0"
     id="path240" />
  <path
     d="m 466,718 c 12.54,0 25.08,0 38,0 0,6.27 0,12.54 0,19 5.94,0 11.88,0 18,0 0,6.27 0,12.54 0,19 -6.27,0 -12.54,0 -19,0 0,6.93 0,13.86 0,21 6.27,0 12.54,0 19,0 0,12.54 0,25.08 0,38 -12.21,0 -24.42,0 -37,0 0,-12.87 0,-25.74 0,-39 -6.27,0 -12.54,0 -19,0 0,-6.27 0,-12.54 0,-19 6.27,0 12.54,0 19,0 0,-6.6 0,-13.2 0,-20 -9.405,0.495 -9.405,0.495 -19,1 0,-6.6 0,-13.2 0,-20 z"
     fill="#ECAF15"
     id="path242"
     style="fill:#9a52b0;fill-opacity:1" />
  <path
     d="m 389,253 c 12.87,0 25.74,0 39,0 0,6.27 0,12.54 0,19 1.69117,-0.005 3.38234,-0.0105 5.12476,-0.0159 5.57596,-0.0161 11.15192,-0.0276 16.72791,-0.0359 3.38205,-0.005 6.76407,-0.0123 10.14611,-0.0236 3.88452,-0.0129 7.76903,-0.0178 11.65356,-0.0222 1.21977,-0.005 2.43954,-0.0103 3.69628,-0.0156 1.68163,-1.1e-4 1.68163,-1.1e-4 3.39723,-2.3e-4 0.99261,-0.002 1.98523,-0.004 3.00792,-0.007 C 484,272 484,272 485,273 c 0.0886,2.81163 0.11522,5.59858 0.0977,8.41016 -10e-4,0.84203 -0.003,1.68407 -0.004,2.55162 -0.006,2.70027 -0.0182,5.40047 -0.0309,8.10072 -0.005,1.82617 -0.01,3.65234 -0.0137,5.47852 -0.0102,4.48638 -0.0298,8.97259 -0.0488,13.45898 -6.27,0 -12.54,0 -19,0 0,-6.27 0,-12.54 0,-19 -12.54,0 -25.08,0 -38,0 0,12.54 0,25.08 0,38 -6.27,0 -12.54,0 -19,0 0,-19.14 0,-38.28 0,-58 -6.6,0 -13.2,0 -20,0 0,-6.27 0,-12.54 0,-19 z"
     fill="#2c1815"
     id="path244" />
  <path
     d="m 618,620 c 0,13.2 0,26.4 0,40 -6.27,0 -12.54,0 -19,0 0,6.27 0,12.54 0,19 -12.54,0 -25.08,0 -38,0 0,-6.6 0,-13.2 0,-20 -6.27,0 -12.54,0 -19,0 0,-6.27 0,-12.54 0,-19 6.27,0 12.54,0 19,0 0,-6.27 0,-12.54 0,-19 19.01456,-0.67952 37.96937,-1.11328 57,-1 z"
     fill="#F7AE22"
     id="path246"
     style="fill:#9a52b0;fill-opacity:1" />
  <path
     d="m 427,893 c 6.27,0 12.54,0 19,0 0,12.54 0,25.08 0,38 6.6,0 13.2,0 20,0 0,6.6 0,13.2 0,20 -12.54,0 -25.08,0 -38,0 0,5.94 0,11.88 0,18 -6.6,0 -13.2,0 -20,0 0,-6.27 0,-12.54 0,-19 -6.27,0 -12.54,0 -19,0 0,-12.87 0,-25.74 0,-39 6.27,0 12.54,0 19,0 0,6.6 0,13.2 0,20 6.27,0 12.54,0 19,0 0,-12.54 0,-25.08 0,-38 z"
     fill="#5b6938"
     id="path248" />
  <path
     d="m 428,253 c 25.08,0 50.16,0 76,0 0,18 0,18 -1,20 18.81,0 37.62,0 57,0 0,6.27 0,12.54 0,19 -24.75,0 -49.5,0 -75,0 -0.33,-6.27 -0.66,-12.54 -1,-19 -18.48,-0.33 -36.96,-0.66 -56,-1 0,-6.27 0,-12.54 0,-19 z"
     fill="#ba7656"
     id="path250" />
  <path
     d="m 499,368 c 0,0.33 0,0.66 0,1 -4.62,0 -9.24,0 -14,0 0,6.27 0,12.54 0,19 12.54,0 25.08,0 38,0 0,6.6 0,13.2 0,20 -12.54,0 -25.08,0 -38,0 0,5.94 0,11.88 0,18 -6.27,0 -12.54,0 -19,0 0,-5.61 0,-11.22 0,-17 5.94,-0.33 11.88,-0.66 18,-1 0,-6.6 0,-13.2 0,-20 -24.75,0 -49.5,0 -75,0 0,-6.27 0,-12.54 0,-19 62.01608,-1.209 62.01608,-1.209 90,-1 z"
     fill="#a65636"
     id="path252" />
  <path
     d="m 639,59 c 6.6,0 13.2,0 20,0 0,6.27 0,12.54 0,19 5.94,0 11.88,0 18,0 0,6.27 0,12.54 0,19 6.27,0 12.54,0 19,0 0,6.6 0,13.2 0,20 -6.6,0 -13.2,0 -20,0 0,-6.6 0,-13.2 0,-20 -5.94,0 -11.88,0 -18,0 0,6.6 0,13.2 0,20 -6.6,0 -13.2,0 -20,0 0,-6.6 0,-13.2 0,-20 -6.6,0 -13.2,0 -20,0 0,-6.27 0,-12.54 0,-19 6.93,0 13.86,0 21,0 0,-6.27 0,-12.54 0,-19 z"
     fill="#7b6959"
     id="path254" />
  <path
     d="m 370,0 c 44.22,0 88.44,0 134,0 0,0.33 0,0.66 0,1 -6.27,0 -12.54,0 -19,0 0,6.27 0,12.54 0,19 -6.27,0 -12.54,0 -19,0 0,-6.27 0,-12.54 0,-19 -6.27,0 -12.54,0 -19,0 0,6.27 0,12.54 0,19 -19.14,0 -38.28,0 -58,0 0,5.94 0,11.88 0,18 -6.27,0 -12.54,0 -19,0 0,-12.54 0,-25.08 0,-38 z"
     fill="#7c6959"
     id="path256" />
  <path
     d="m 291,136 c 0.33,0 0.66,0 1,0 0,6.93 0,13.86 0,21 -6.6,0 -13.2,0 -20,0 0,31.68 0,63.36 0,96 13.2,0 26.4,0 40,0 0,6.6 0,13.2 0,20 -6.6,0 -13.2,0 -20,0 0,12.21 0,24.42 0,37 -6.93,0 -13.86,0 -21,0 0,-12.54 0,-25.08 0,-38 -7.59,0 -15.18,0 -23,0 0,-6.27 0,-12.54 0,-19 7.59,0 15.18,0 23,0 0,-25.41 0,-50.82 0,-77 -7.59,0 -15.18,0 -23,0 0,-0.33 0,-0.66 0,-1 7.26,0 14.52,0 22,0 -0.0396,-5.87883 -0.0396,-5.87883 -0.0901,-11.75757 -0.002,-0.7284 -0.005,-1.4568 -0.008,-2.20727 -0.008,-1.1233 -0.008,-1.1233 -0.0159,-2.26929 C 270,157 270,157 271,156 c 1.48872,-0.0867 2.98144,-0.10704 4.47266,-0.0977 0.80961,0.002 1.61922,0.005 2.45336,0.008 1.03504,0.009 2.07008,0.0182 3.13648,0.0276 3.27938,0.0206 6.55875,0.0412 9.9375,0.0625 0,-6.6 0,-13.2 0,-20 z"
     fill="#291613"
     id="path258" />
  <path
     d="m 522,39 c 6.27,0 12.54,0 19,0 0,6.6 0,13.2 0,20 6.6,0 13.2,0 20,0 0,6.27 0,12.54 0,19 -6.27,0 -12.54,0 -19,0 0,6.27 0,12.54 0,19 2.98353,-0.0174 2.98353,-0.0174 6.02734,-0.0352 1.95614,-0.007 3.91227,-0.0139 5.86841,-0.0198 2.00157,-0.007 4.00311,-0.0201 6.00464,-0.033 1.2794,-0.003 2.55879,-0.006 3.87695,-0.01 1.75172,-0.008 1.75172,-0.008 3.53882,-0.0159 4.2422,0.13078 8.46559,0.64488 12.68384,1.11357 0,6.27 0,12.54 0,19 -12.87,0 -25.74,0 -39,0 0,-13.2 0,-26.4 0,-40 -11.88,0 -23.76,0 -36,0 0,-5.61 0,-11.22 0,-17 8.415,-0.495 8.415,-0.495 17,-1 0,-6.6 0,-13.2 0,-20 z"
     fill="#2d1f18"
     id="path260" />
  <path
     d="m 248,19 c 27.35482,-0.118886 54.66048,0.04431 82,1 0,6.27 0,12.54 0,19 -19.47,0 -38.94,0 -59,0 0,6.6 0,13.2 0,20 -7.26,0 -14.52,0 -22,0 -4.3223,-8.644605 -1.98864,-21.03253 -1.48828,-30.5625 0.0468,-0.913301 0.0937,-1.826602 0.14197,-2.767578 C 247.76791,23.446549 247.88337,21.223248 248,19 Z"
     fill="#7b6859"
     id="path262" />
  <path
     d="m 427,737 c 19.14,0 38.28,0 58,0 0,6.6 0,13.2 0,20 -6.27,0 -12.54,0 -19,0 0,6.27 0,12.54 0,19 6.27,0 12.54,0 19,0 0,6.6 0,13.2 0,20 -6.6,0 -13.2,0 -20,0 0,-6.6 0,-13.2 0,-20 -6.27,0 -12.54,0 -19,0 0,-6.27 0,-12.54 0,-19 -6.27,0 -12.54,0 -19,0 0,-6.6 0,-13.2 0,-20 z"
     fill="#ECB014"
     id="path264"
     style="fill:#9a52b0;fill-opacity:1" />
  <path
     d="m 677,79 c 6.6,0 13.2,0 20,0 0.79224,12.37871 1.09257,24.59555 1,37 5.61,0 11.22,0 17,0 0,0.33 0,0.66 0,1 -5.94,0.33 -11.88,0.66 -18,1 -0.20987,5.50411 -0.20987,5.50411 -0.38794,11.00928 -0.0969,2.00496 -0.35184,4.00035 -0.61206,5.99072 -3.64227,2.42818 -6.26431,2.24418 -10.46484,2.15625 -0.74717,-0.008 -1.49434,-0.0162 -2.26415,-0.0245 -2.42408,-0.031 -4.84731,-0.079 -7.27101,-0.13171 -1.20333,-0.0247 -1.20333,-0.0247 -2.43097,-0.0498 -5.71139,-0.1217 -11.42135,-0.28213 -17.13153,-0.45019 -1.70507,-0.0484 -3.41015,-0.0966 -5.11523,-0.14453 C 647.21475,136.23988 643.1074,136.11986 639,136 c 0,-6.27 0,-12.54 0,-19 6.27,0 12.54,0 19,0 0,-6.6 0,-13.2 0,-20 5.94,0 11.88,0 18,0 0,6.6 0,13.2 0,20 6.6,0 13.2,0 20,0 0,-6.6 0,-13.2 0,-20 -6.27,0 -12.54,0 -19,0 0,-5.94 0,-11.88 0,-18 z"
     fill="#49362a"
     id="path266" />
  <path
     d="m 229,273 c 6.27,0 12.54,0 19,0 0,31.68 0,63.36 0,96 -6.27,0 -12.54,0 -19,0 0,-31.68 0,-63.36 0,-96 z"
     fill="#e9b082"
     id="path268" />
  <path
     d="m 248,176 c 7.59,0 15.18,0 23,0 0,25.41 0,50.82 0,77 -7.59,0 -15.18,0 -23,0 0,-25.41 0,-50.82 0,-77 z"
     fill="#703619"
     id="path270" />
  <path
     d="m 466,874 c 12.21,0 24.42,0 37,0 0,12.21 0,24.42 0,37 -5.94,0 -11.88,0 -18,0 0,6.6 0,13.2 0,20 -6.27,0 -12.54,0 -19,0 0,-18.81 0,-37.62 0,-57 z"
     fill="#ECB016"
     id="path272"
     style="fill:#9a52b0;fill-opacity:1" />
  <path
     d="m 228,39 c 6.27,0 12.54,0 19,0 0.33,4.95 0.66,9.9 1,15 0.33,0 0.66,0 1,0 0,1.65 0,3.3 0,5 7.26,0 14.52,0 22,0 0,-6.6 0,-13.2 0,-20 6.93,0 13.86,0 21,0 0,12.87 0,25.74 0,39 -14.52,0 -29.04,0 -44,0 0,-6.6 0,-13.2 0,-20 -6.6,0 -13.2,0 -20,0 0,-6.27 0,-12.54 0,-19 z"
     fill="#473529"
     id="path274" />
  <path
     d="m 271,835 c 13.53,0 27.06,0 41,0 0,12.54 0,25.08 0,38 -13.53,0 -27.06,0 -41,0 0,-12.54 0,-25.08 0,-38 z"
     fill="#0B512C"
     id="path276"
     style="fill:#2d4d62;fill-opacity:1" />
  <path
     d="m 389,311 c 6.27,0 12.54,0 19,0 0.7152,12.69476 1.13818,25.28763 1,38 0.58515,-0.006 1.17031,-0.0116 1.77319,-0.0176 4.29962,-0.0247 8.51068,0.0355 12.78931,0.51758 1.46438,0.165 2.92875,0.33 4.4375,0.5 0,5.94 0,11.88 0,18 12.54,0 25.08,0 38,0 0,0.33 0,0.66 0,1 -25.41,0 -50.82,0 -77,0 0,-19.14 0,-38.28 0,-58 z"
     fill="#dd966d"
     id="path278" />
  <path
     d="m 312,233 c 25.41,0 50.82,0 77,0 0,6.6 0,13.2 0,20 -25.41,0 -50.82,0 -77,0 0,-6.6 0,-13.2 0,-20 z"
     fill="#2a1614"
     id="path280" />
  <path
     d="m 550.58612,232.93134 c 3.44004,0.0104 6.88008,0.0148 10.32013,0.0198 6.69794,0.0109 13.39583,0.0281 20.09375,0.0488 0,6.6 0,13.2 0,20 -25.41,0 -50.82,0 -77,0 0,-6.27 0,-12.54 0,-19 15.53676,-1.08774 31.01654,-1.12086 46.58612,-1.06866 z"
     fill="#2d1915"
     id="path282" />
  <path
     d="m 209,58 c 12.87,0 25.74,0 39,0 0,6.93 0,13.86 0,21 -6.6,0 -13.2,0 -20,0 0,12.21 0,24.42 0,37 -6.27,0 -12.54,0 -19,0 0,-19.14 0,-38.28 0,-58 z"
     fill="#7b6859"
     id="path284" />
  <path
     d="m 312,331 c 25.41,0 50.82,0 77,0 0,6.27 0,12.54 0,19 -1,1 -1,1 -4.2102,1.11523 -1.49896,-10e-4 -2.99792,-0.009 -4.49683,-0.0215 -0.83119,-0.004 -1.66238,-0.007 -2.51875,-0.0109 -12.82179,-0.0779 -25.64218,-0.34381 -38.46172,-0.58289 -2.6595,-0.0485 -5.31901,-0.0965 -7.97852,-0.14453 C 324.88929,350.23877 318.44464,350.11998 312,350 c 0,-6.27 0,-12.54 0,-19 z"
     fill="#2c1815"
     id="path286" />
  <path
     d="m 447,1 c 6.27,0 12.54,0 19,0 0,6.27 0,12.54 0,19 12.54,0 25.08,0 38,0 0,5.94 0,11.88 0,18 -1,1 -1,1 -4.51001,1.113525 -1.56047,-1.59e-4 -3.12095,-0.0059 -4.6814,-0.01587 -0.81984,-0.0014 -1.63967,-0.0028 -2.48436,-0.0043 -2.62894,-0.0056 -5.25781,-0.01817 -7.88673,-0.03087 -1.77799,-0.005 -3.55599,-0.0096 -5.33398,-0.01367 C 474.73562,39.038628 470.3679,39.019055 466,39 c 0,-5.94 0,-11.88 0,-18 -5.94,0 -11.88,0 -18,0 0,5.94 0,11.88 0,18 -6.6,0 -13.2,0 -20,0 0,-6.27 0,-12.54 0,-19 6.27,0 12.54,0 19,0 0,-6.27 0,-12.54 0,-19 z"
     fill="#8f816e"
     id="path288" />
  <path
     d="m 448,641 c 12.21,0 24.42,0 37,0 0,5.94 0,11.88 0,18 6.27,0 12.54,0 19,0 0,6.6 0,13.2 0,20 5.94,0 11.88,0 18,0 0,6.27 0,12.54 0,19 -4.03769,1.00942 -7.6377,1.11264 -11.75,1.0625 -2.3925,-0.0206 -4.785,-0.0412 -7.25,-0.0625 0,-6.6 0,-13.2 0,-20 -5.94,0 -11.88,0 -18,0 0,-6.27 0,-12.54 0,-19 -12.21,0 -24.42,0 -37,0 0,-6.27 0,-12.54 0,-19 z"
     fill="#bab29a"
     id="path290" />
  <path
     d="m 504,331 c 25.08,0 50.16,0 76,0 0,6.27 0,12.54 0,19 -25.08,0 -50.16,0 -76,0 0,-6.27 0,-12.54 0,-19 z"
     fill="#271513"
     id="path292" />
  <path
     d="m 697,176 c 6.27,0 12.54,0 19,0 0,6.27 0,12.54 0,19 6.27,0 12.54,0 19,0 0,6.27 0,12.54 0,19 -6.27,0 -12.54,0 -19,0 0,6.27 0,12.54 0,19 -6.27,0 -12.54,0 -19,0 0,-18.81 0,-37.62 0,-57 z"
     fill="#4a372b"
     id="path294" />
  <path
     d="m 248,272 c 7.59,0 15.18,0 23,0 1.14806,39.75171 1.14806,39.75171 1,59 -7.92,0 -15.84,0 -24,0 0,-19.47 0,-38.94 0,-59 z"
     fill="#b35a22"
     id="path296" />
  <path
     d="m 447,680 c 5.94,0 11.88,0 18,0 0,12.21 0,24.42 0,37 -18.48,0 -36.96,0 -56,0 0,-6.27 0,-12.54 0,-19 12.73232,-0.0957 25.29027,0.2355 38,1 0,-6.27 0,-12.54 0,-19 z"
     fill="#586737"
     id="path298" />
  <path
     d="m 599,39 c 6.6,0 13.2,0 20,0 0,6.27 0,12.54 0,19 13.2,0 26.4,0 40,0 0,0.33 0,0.66 0,1 -6.6,0 -13.2,0 -20,0 0,6.27 0,12.54 0,19 -13.2,0 -26.4,0 -40,0 0,-12.87 0,-25.74 0,-39 z"
     fill="#796658"
     id="path300" />
  <path
     d="m 542,505 c 12.87,0 25.74,0 39,0 0,12.87 0,25.74 0,39 -6.93,0 -13.86,0 -21,0 0,-6.6 0,-13.2 0,-20 -1.65,0.33 -3.3,0.66 -5,1 -4.33793,0.12714 -8.65893,0.0439 -13,0 0,-6.6 0,-13.2 0,-20 z"
     fill="#984d1b"
     id="path302" />
  <path
     d="m 543,19 c 12.21,0 24.42,0 37,0 0,6.93 0,13.86 0,21 -6.27,0 -12.54,0 -19,0 0,5.94 0,11.88 0,18 6.27,0 12.54,0 19,0 0,6.6 0,13.2 0,20 -6.27,0 -12.54,0 -19,0 0,-6.27 0,-12.54 0,-19 -5.94,0 -11.88,0 -18,0 0,-0.33 0,-0.66 0,-1 5.61,0 11.22,0 17,0 0,-6.27 0,-12.54 0,-19 -5.61,-0.33 -11.22,-0.66 -17,-1 0,-6.27 0,-12.54 0,-19 z"
     fill="#7a6858"
     id="path304" />
  <path
     d="m 369,427 c 6.6,0 13.2,0 20,0 0,6.27 0,12.54 0,19 6.27,0 12.54,0 19,0 0,6.6 0,13.2 0,20 -12.87,0 -25.74,0 -39,0 0,-12.87 0,-25.74 0,-39 z"
     fill="#2b1815"
     id="path306" />
  <path
     d="m 369,388 c 13.2,0 26.4,0 40,0 0,6.6 0,13.2 0,20 6.27,0 12.54,0 19,0 0,5.61 0,11.22 0,17 -6.6,0 -13.2,0 -20,0 0,-5.61 0,-11.22 0,-17 -12.87,0 -25.74,0 -39,0 0,-6.6 0,-13.2 0,-20 z"
     fill="#9d4f1c"
     id="path308" />
  <path
     d="m 599,137 c 6.27,0 12.54,0 19,0 0.33,6.27 0.66,12.54 1,19 6.27,0 12.54,0 19,0 0,6.6 0,13.2 0,20 -12.87,0 -25.74,0 -39,0 0,-12.87 0,-25.74 0,-39 z"
     fill="#4a372a"
     id="path310" />
  <path
     d="m 209,78 c 0,12.54 0,25.08 0,38 6.27,0 12.54,0 19,0 0,0.33 0,0.66 0,1 -6.27,0 -12.54,0 -19,0 0,6.6 0,13.2 0,20 -6.27,0 -12.54,0 -19,0 0,-19.14 0,-38.28 0,-58 6.32019,-0.526683 12.6579,-1 19,-1 z"
     fill="#4c392c"
     id="path312" />
  <path
     d="m 292,59 c 12.21,0 24.42,0 37,0 0,6.27 0,12.54 0,19 -12.37977,0.853777 -24.5887,1.086792 -37,1 0,5.94 0,11.88 0,18 -6.93,0 -13.86,0 -21,0 0,-6.27 0,-12.54 0,-19 6.93,0 13.86,0 21,0 0,-6.27 0,-12.54 0,-19 z"
     fill="#756254"
     id="path314" />
  <path
     d="m 389,853 c 12.73232,-0.0957 25.29027,0.23551 38,1 0,12.54 0,25.08 0,38 -6.27,0 -12.54,0 -19,0 0,-5.94 0,-11.88 0,-18 -6.27,0 -12.54,0 -19,0 0,-6.93 0,-13.86 0,-21 z"
     fill="#D7990C"
     id="path316"
     style="fill:#624173;fill-opacity:1" />
  <path
     d="m 331,660 c 12.87,0 25.74,0 39,0 0,6.27 0,12.54 0,19 -6.6,0 -13.2,0 -20,0 0,6.6 0,13.2 0,20 -6.27,0 -12.54,0 -19,0 0,-12.87 0,-25.74 0,-39 z"
     fill="#5e6a39"
     id="path318" />
  <path
     d="m 504,427 c 6.27,0 12.54,0 19,0 0,12.87 0,25.74 0,39 -12.54,0 -25.08,0 -38,0 0,-6.6 0,-13.2 0,-20 6.27,0 12.54,0 19,0 0,-6.27 0,-12.54 0,-19 z"
     fill="#291715"
     id="path320" />
  <path
     d="m 484,388 c 12.87,0 25.74,0 39,0 0,6.6 0,13.2 0,20 -12.54,0 -25.08,0 -38,0 0,5.94 0,11.88 0,18 -6.27,0 -12.54,0 -19,0 0,-5.61 0,-11.22 0,-17 5.94,-0.33 11.88,-0.66 18,-1 0,-6.6 0,-13.2 0,-20 z"
     fill="#9c4f1b"
     id="path322" />
  <path
     d="m 330,273 c 19.14,0 38.28,0 58,0 0,5.94 0,11.88 0,18 -12.31163,1.09648 -24.52414,1.11542 -36.875,1.0625 -2.05599,-0.005 -4.11198,-0.01 -6.16797,-0.0137 C 339.9713,292.0388 334.98574,292.0192 330,292 c 0,-6.27 0,-12.54 0,-19 z"
     fill="#271513"
     id="path324" />
  <path
     d="m 503,273 c 18.81,0 37.62,0 57,0 0,6.27 0,12.54 0,19 -18.81,0 -37.62,0 -57,0 0,-6.27 0,-12.54 0,-19 z"
     fill="#271512"
     id="path326" />
  <path
     d="m 409,640 c 0,6.27 0,12.54 0,19 -6.93,0 -13.86,0 -21,0 0,6.6 0,13.2 0,20 -5.94,0 -11.88,0 -18,0 0,-12.54 0,-25.08 0,-38 4.2075,-0.165 8.415,-0.33 12.75,-0.5 1.30034,-0.0522 2.60068,-0.10441 3.94043,-0.1582 C 394.13325,640.05839 401.55183,639.95445 409,640 Z"
     fill="#afa68c"
     id="path328" />
  <path
     d="m 408,835 c 12.54,0 25.08,0 38,0 0,12.87 0,25.74 0,39 -6.27,0 -12.54,0 -19,0 0,-6.6 0,-13.2 0,-20 -6.27,0 -12.54,0 -19,0 0,-6.27 0,-12.54 0,-19 z"
     fill="#DDD8BE"
     id="path330"
     style="fill:#b085c0;fill-opacity:1" />
  <path
     d="m 503,777 c 6.27,0 12.54,0 19,0 0,12.54 0,25.08 0,38 -12.21,0 -24.42,0 -37,0 0,-6.27 0,-12.54 0,-19 5.94,0 11.88,0 18,0 0,-6.27 0,-12.54 0,-19 z"
     fill="#586534"
     id="path332" />
  <path
     d="m 294,0 c 18.48,0 36.96,0 56,0 0,6.6 0,13.2 0,20 -3.09375,0.04125 -6.1875,0.0825 -9.375,0.125 -1.46059,0.02731 -1.46059,0.02731 -2.95068,0.05518 -1.14977,0.0075 -1.14977,0.0075 -2.32276,0.01514 -1.17828,0.01571 -1.17828,0.01571 -2.38037,0.03174 C 331,20 331,20 329,18 c -2.65292,-0.175104 -5.19986,-0.231555 -7.85156,-0.195313 -1.16105,0.0042 -1.16105,0.0042 -2.34555,0.0086 -2.47612,0.01121 -4.95188,0.03632 -7.42789,0.06174 -1.67708,0.01003 -3.35416,0.01916 -5.03125,0.02734 C 302.22892,17.922714 298.11486,17.96186 294,18 c 0,-5.94 0,-11.88 0,-18 z"
     fill="#4d3a2d"
     id="path334" />
  <path
     d="m 248,19 c 7.92,0 15.84,0 24,0 0.0957,13.395761 -0.23575,26.625699 -1,40 -7.26,0 -14.52,0 -22,0 -2.15455,-4.309105 -2.24082,-6.269234 -2.1875,-11 0.006,-0.681914 0.0129,-1.363828 0.0195,-2.066406 C 246.96065,36.946225 247.50152,27.972553 248,19 Z"
     fill="#4b382c"
     id="path336" />
  <path
     d="m 485,333 c 5.94,0 11.88,0 18,0 0,5.61 0,11.22 0,17 -0.66,0 -1.32,0 -2,0 0,5.61 0,11.22 0,17 -11.55,0 -23.1,0 -35,0 0,-5.61 0,-11.22 0,-17 6.27,0 12.54,0 19,0 0,-5.61 0,-11.22 0,-17 z"
     fill="#d89169"
     id="path338" />
  <path
     d="m 428,253 c 25.08,0 50.16,0 76,0 0,20.70608 0,20.70608 -0.5,29.625 -0.0477,0.92039 -0.0954,1.84078 -0.14453,2.78906 -0.11435,2.19553 -0.23424,4.39078 -0.35547,6.58594 -5.94,0 -11.88,0 -18,0 -0.33,-6.27 -0.66,-12.54 -1,-19 -18.48,-0.33 -36.96,-0.66 -56,-1 0,-6.27 0,-12.54 0,-19 z m 1,1 c 0,5.61 0,11.22 0,17 18.15,0 36.3,0 55,0 0,-5.61 0,-11.22 0,-17 -18.15,0 -36.3,0 -55,0 z"
     fill="#c77f5c"
     id="path340" />
  <path
     d="m 658,272 c 0.33,0 0.66,0 1,0 0,25.74 0,51.48 0,78 5.94,0 11.88,0 18,0 0,12.87 0,25.74 0,39 -6.27,0 -12.54,0 -19,0 0,-38.61 0,-77.22 0,-117 z"
     fill="#efb789"
     id="path342" />
  <path
     d="m 696,272 c 0.33,0 0.66,0 1,0 0,25.74 0,51.48 0,78 -6.6,0 -13.2,0 -20,0 0,-12.87 0,-25.74 0,-39 6.27,0 12.54,0 19,0 0,-12.87 0,-25.74 0,-39 z"
     fill="#eeb586"
     id="path344" />
  <path
     d="m 677,79 c 6.6,0 13.2,0 20,0 0.79224,12.37871 1.09257,24.59555 1,37 5.61,0 11.22,0 17,0 0,0.33 0,0.66 0,1 -5.94,0.33 -11.88,0.66 -18,1 -0.20987,5.50411 -0.20987,5.50411 -0.38794,11.00928 -0.0969,2.00496 -0.35184,4.00035 -0.61206,5.99072 -3.04681,2.03121 -3.60118,2.2466 -7.01172,2.19531 -0.6828,-0.005 -1.3656,-0.01 -2.06909,-0.0151 -0.86021,-0.0182 -1.72042,-0.0364 -2.60669,-0.0552 -4.11469,-0.0619 -4.11469,-0.0619 -8.3125,-0.125 0,-6.6 0,-13.2 0,-20 6.6,0 13.2,0 20,0 0,-6.6 0,-13.2 0,-20 -6.27,0 -12.54,0 -19,0 0,-5.94 0,-11.88 0,-18 z"
     fill="#483629"
     id="path346" />
  <path
     d="m 228,39 c 6.27,0 12.54,0 19,0 0.33,4.95 0.66,9.9 1,15 0.33,0 0.66,0 1,0 0,1.65 0,3.3 0,5 7.26,0 14.52,0 22,0 0,6.27 0,12.54 0,19 -7.59,0 -15.18,0 -23,0 0,-6.6 0,-13.2 0,-20 -6.6,0 -13.2,0 -20,0 0,-6.27 0,-12.54 0,-19 z"
     fill="#49372a"
     id="path348" />
  <path
     d="m 272,408 c 6.6,0 13.2,0 20,0 0,5.94 0,11.88 0,18 0.66,0.33 1.32,0.66 2,1 -0.33,6.27 -0.66,12.54 -1,19 -6.93,0 -13.86,0 -21,0 0,-12.54 0,-25.08 0,-38 z"
     fill="#9a4d1a"
     id="path350" />
  <path
     d="m 369,969 c 12.87,0 25.74,0 39,0 0,6.6 0,13.2 0,20 -12.87,0 -25.74,0 -39,0 0,-6.6 0,-13.2 0,-20 z"
     fill="#5e6a3a"
     id="path352" />
  <path
     d="m 446,757 c 6.6,0 13.2,0 20,0 0,6.27 0,12.54 0,19 6.27,0 12.54,0 19,0 0,6.6 0,13.2 0,20 -6.6,0 -13.2,0 -20,0 0,-6.6 0,-13.2 0,-20 -6.27,0 -12.54,0 -19,0 0,-6.27 0,-12.54 0,-19 z"
     fill="#DB980A"
     id="path354"
     style="fill:#b085c0;fill-opacity:1" />
  <path
     d="m 638,214 c 6.6,0 13.2,0 20,0 0,12.87 0,25.74 0,39 -6.6,0 -13.2,0 -20,0 0,-12.87 0,-25.74 0,-39 z"
     fill="#6d3317"
     id="path356" />
  <path
     d="m 330,486 c 6.6,0 13.2,0 20,0 0,6.6 0,13.2 0,20 -6.27,0 -12.54,0 -19,0 0,6.27 0,12.54 0,19 -6.27,0 -12.54,0 -19,0 0,-6.6 0,-13.2 0,-20 5.94,0 11.88,0 18,0 0,-6.27 0,-12.54 0,-19 z"
     fill="#984c1b"
     id="path358" />
  <path
     d="m 329,59 c 13.53,0 27.06,0 41,0 0,6.27 0,12.54 0,19 -13.53,0 -27.06,0 -41,0 0,-6.27 0,-12.54 0,-19 z"
     fill="#918470"
     id="path360" />
  <path
     d="m 408,815 c 12.54,0 25.08,0 38,0 0,6.6 0,13.2 0,20 -12.54,0 -25.08,0 -38,0 0,-6.6 0,-13.2 0,-20 z"
     fill="#5d6938"
     id="path362" />
  <path
     d="m 292,525 c 6.6,0 13.2,0 20,0 0,12.54 0,25.08 0,38 -6.6,0 -13.2,0 -20,0 0,-12.54 0,-25.08 0,-38 z"
     fill="#9a4e1b"
     id="path364" />
  <path
     d="m 542,427 c 6.6,0 13.2,0 20,0 0,6.27 0,12.54 0,19 6.27,0 12.54,0 19,0 0,6.27 0,12.54 0,19 -6.6,0 -13.2,0 -20,0 0,-6.27 0,-12.54 0,-19 -6.27,0 -12.54,0 -19,0 0,-6.27 0,-12.54 0,-19 z"
     fill="#9a4d1b"
     id="path366" />
  <path
     d="m 618,370 c 6.6,0 13.2,0 20,0 0,12.54 0,25.08 0,38 -6.6,0 -13.2,0 -20,0 0,-12.54 0,-25.08 0,-38 z"
     fill="#af581e"
     id="path368" />
  <path
     d="m 389,20 c 12.87,0 25.74,0 39,0 0,5.94 0,11.88 0,18 -1,1 -1,1 -3.2842,1.120255 -1.01037,-0.0022 -2.02075,-0.0044 -3.06175,-0.0067 -1.14111,-7.5e-5 -2.28221,-1.51e-4 -3.4579,-2.28e-4 -1.24164,-0.0052 -2.48329,-0.01032 -3.76256,-0.01564 -1.89564,-0.0021 -1.89564,-0.0021 -3.82957,-0.0043 -3.36527,-0.0047 -6.73047,-0.01365 -10.09572,-0.0247 -3.4318,-0.01024 -6.8636,-0.01482 -10.29541,-0.01986 C 383.47524,39.037774 376.73762,39.021017 370,39 c 0,-0.33 0,-0.66 0,-1 6.27,0 12.54,0 19,0 0,-5.94 0,-11.88 0,-18 z"
     fill="#473529"
     id="path370" />
  <path
     d="m 504,524 c 6.27,0 12.54,0 19,0 0,12.87 0,25.74 0,39 -6.27,0 -12.54,0 -19,0 0,-12.87 0,-25.74 0,-39 z"
     fill="#9a4e1b"
     id="path372" />
  <path
     d="m 541,98 c 12.87,0 25.74,0 39,0 0,6.27 0,12.54 0,19 -12.87,0 -25.74,0 -39,0 0,-6.27 0,-12.54 0,-19 z"
     fill="#756254"
     id="path374" />
  <path
     d="m 389,311 c 6.27,0 12.54,0 19,0 0.71586,12.70649 1.10262,25.27503 1,38 -6.6,0 -13.2,0 -20,0 0,-12.54 0,-25.08 0,-38 z"
     fill="#d08862"
     id="path376" />
  <path
     d="m 350,525 c 6.27,0 12.54,0 19,0 0,12.54 0,25.08 0,38 -6.27,0 -12.54,0 -19,0 0,-12.54 0,-25.08 0,-38 z"
     fill="#9a4d1b"
     id="path378" />
  <path
     d="m 428,292 c 12.54,0 25.08,0 38,0 0,6.27 0,12.54 0,19 -12.54,0 -25.08,0 -38,0 0,-6.27 0,-12.54 0,-19 z"
     fill="#ca7b52"
     id="path380" />
  <path
     d="m 390,59 c 12.54,0 25.08,0 38,0 0,6.27 0,12.54 0,19 -12.54,0 -25.08,0 -38,0 0,-6.27 0,-12.54 0,-19 z"
     fill="#8d806d"
     id="path382" />
  <path
     d="m 599,408 c 5.94,0 11.88,0 18,0 1,1 1,1 1.11352,4.51001 -1.5e-4,1.56047 -0.006,3.12095 -0.0159,4.6814 -10e-4,0.81983 -0.003,1.63967 -0.004,2.48436 -0.006,2.62894 -0.0182,5.25781 -0.0309,7.88673 -0.005,1.77799 -0.01,3.55599 -0.0137,5.33398 -0.0102,4.3679 -0.0298,8.73562 -0.0488,13.10352 -6.27,0 -12.54,0 -19,0 0,-12.54 0,-25.08 0,-38 z"
     fill="#9c4e1a"
     id="path384" />
  <path
     d="m 447,835 c 5.94,0 11.88,0 18,0 0,12.87 0,25.74 0,39 -5.94,0 -11.88,0 -18,0 0,-12.87 0,-25.74 0,-39 z"
     fill="#566533"
     id="path386" />
  <path
     d="m 409,661 c 5.94,0 11.88,0 18,0 1.55977,3.11954 1.12104,6.42959 1.09766,9.85156 -0.001,0.77403 -0.003,1.54807 -0.004,2.34555 -0.006,2.476 -0.0182,4.95192 -0.0309,7.42789 -0.005,1.67708 -0.01,3.35416 -0.0137,5.03125 -0.0102,4.11465 -0.0297,8.2291 -0.0488,12.34375 -6.27,0 -12.54,0 -19,0 0,-12.21 0,-24.42 0,-37 z"
     fill="#aea68c"
     id="path388" />
  <path
     d="m 330,272 c 26.07,0 52.14,0 79,0 0,6.27 0,12.54 0,19 -1,1 -1,1 -4.23462,1.11352 -1.43352,-1.5e-4 -2.86705,-0.006 -4.30054,-0.0159 -1.12987,-0.002 -1.12987,-0.002 -2.28257,-0.004 -2.41497,-0.006 -4.82984,-0.0182 -7.24477,-0.0309 -1.63346,-0.005 -3.26693,-0.01 -4.90039,-0.0137 -4.01241,-0.011 -8.02474,-0.0283 -12.03711,-0.0488 0,-0.33 0,-0.66 0,-1 4.62,0 9.24,0 14,0 0,-5.94 0,-11.88 0,-18 -19.14,0 -38.28,0 -58,0 0,-0.33 0,-0.66 0,-1 z"
     fill="#c17e5b"
     id="path390" />
  <path
     d="m 618,39 c 0.33,0 0.66,0 1,0 0,6.27 0,12.54 0,19 13.2,0 26.4,0 40,0 0,0.33 0,0.66 0,1 -6.6,0 -13.2,0 -20,0 0,6.27 0,12.54 0,19 -6.93,0 -13.86,0 -21,0 0,-12.87 0,-25.74 0,-39 z"
     fill="#48372b"
     id="path392" />
  <path
     d="m 271,78 c 0,6.27 0,12.54 0,19 -7.59,0 -15.18,0 -23,0 0,-5.61 0,-11.22 0,-17 -9.405,0.495 -9.405,0.495 -19,1 0,-0.66 0,-1.32 0,-2 14.01444,-0.915763 27.95769,-1.113143 42,-1 z"
     fill="#281c16"
     id="path394" />
  <path
     d="m 581,640 c 5.94,0 11.88,0 18,0 0,12.87 0,25.74 0,39 -12.54,0 -25.08,0 -38,0 0,-6.6 0,-13.2 0,-20 0.33,0 0.66,0 1,0 0,6.27 0,12.54 0,19 11.55,0 23.1,0 35,0 0,-5.94 0,-11.88 0,-18 -5.28,0 -10.56,0 -16,0 0,-6.6 0,-13.2 0,-20 z"
     fill="#F09B10"
     id="path396"
     style="fill:#624173;fill-opacity:1" />
  <path
     d="m 249,39 c 7.26,0 14.52,0 22,0 0,6.6 0,13.2 0,20 -7.26,0 -14.52,0 -22,0 0,-6.6 0,-13.2 0,-20 z"
     fill="#776456"
     id="path398" />
  <path
     d="m 248,97 c 7.59,0 15.18,0 23,0 0,6.27 0,12.54 0,19 -7.59,0 -15.18,0 -23,0 0,-6.27 0,-12.54 0,-19 z"
     fill="#786556"
     id="path400" />
  <path
     d="m 447,0 c 18.81,0 37.62,0 57,0 0,0.33 0,0.66 0,1 -6.27,0 -12.54,0 -19,0 0,6.27 0,12.54 0,19 -6.27,0 -12.54,0 -19,0 0,-6.27 0,-12.54 0,-19 -6.27,0 -12.54,0 -19,0 0,-0.33 0,-0.66 0,-1 z"
     fill="#4c3a2d"
     id="path402" />
  <path
     d="m 448,59 c 18.15,0 36.3,0 55,0 0,6.27 0,12.54 0,19 -0.33,0 -0.66,0 -1,0 0,-5.94 0,-11.88 0,-18 -11.55,0 -23.1,0 -35,0 0,5.94 0,11.88 0,18 -6.27,0 -12.54,0 -19,0 0,-6.27 0,-12.54 0,-19 z"
     fill="#90826e"
     id="path404" />
  <path
     d="m 618,272 c 6.6,0 13.2,0 20,0 0,6.6 0,13.2 0,20 -6.6,0 -13.2,0 -20,0 0,-6.6 0,-13.2 0,-20 z"
     fill="#c07652"
     id="path406" />
  <path
     d="m 618,97 c 6.6,0 13.2,0 20,0 0,6.6 0,13.2 0,20 -6.6,0 -13.2,0 -20,0 0,-6.6 0,-13.2 0,-20 z"
     fill="#473529"
     id="path408" />
  <path
     d="m 330,369 c 6.6,0 13.2,0 20,0 0.0206,3.11437 0.0412,6.22875 0.0625,9.4375 0.009,0.98283 0.0182,1.96566 0.0276,2.97827 0.002,0.76901 0.005,1.53801 0.008,2.33032 0.008,1.18614 0.008,1.18614 0.0159,2.39624 C 350,388 350,388 349,389 c -1.4157,0.0865 -2.8356,0.10705 -4.25391,0.0977 -0.769,-0.002 -1.53801,-0.005 -2.33032,-0.008 -0.98283,-0.009 -1.96566,-0.0182 -2.97827,-0.0276 -4.67156,-0.0309 -4.67156,-0.0309 -9.4375,-0.0625 0,-6.6 0,-13.2 0,-20 z"
     fill="#d08963"
     id="path410" />
  <path
     d="m 502,350 c 6.93,0 13.86,0 21,0 0,6.27 0,12.54 0,19 -6.93,0 -13.86,0 -21,0 0,-6.27 0,-12.54 0,-19 z"
     fill="#a25435"
     id="path412" />
  <path
     d="m 271,59 c 6.93,0 13.86,0 21,0 0,6.27 0,12.54 0,19 -6.93,0 -13.86,0 -21,0 0,-6.27 0,-12.54 0,-19 z"
     fill="#281c16"
     id="path414" />
  <path
     d="m 466,911 c 6.27,0 12.54,0 19,0 0,6.6 0,13.2 0,20 -6.27,0 -12.54,0 -19,0 0,-6.6 0,-13.2 0,-20 z"
     fill="#5d6a39"
     id="path416" />
  <path
     d="m 408,911 c 6.27,0 12.54,0 19,0 0,6.6 0,13.2 0,20 -6.27,0 -12.54,0 -19,0 0,-6.6 0,-13.2 0,-20 z"
     fill="#dedac1"
     id="path418" />
  <path
     d="m 466,815 c 6.27,0 12.54,0 19,0 0,6.6 0,13.2 0,20 -6.27,0 -12.54,0 -19,0 0,-6.6 0,-13.2 0,-20 z"
     fill="#5c6836"
     id="path420" />
  <path
     d="m 465,777 c 6.6,0 13.2,0 20,0 0,6.27 0,12.54 0,19 -6.6,0 -13.2,0 -20,0 0,-6.27 0,-12.54 0,-19 z"
     fill="#566637"
     id="path422" />
  <path
     d="m 504,466 c 6.27,0 12.54,0 19,0 0,6.6 0,13.2 0,20 -6.27,0 -12.54,0 -19,0 0,-6.6 0,-13.2 0,-20 z"
     fill="#9d4f1b"
     id="path424" />
  <path
     d="m 370,466 c 6.27,0 12.54,0 19,0 0,6.6 0,13.2 0,20 -6.27,0 -12.54,0 -19,0 0,-6.6 0,-13.2 0,-20 z"
     fill="#9b4e1b"
     id="path426" />
  <path
     d="m 389,350 c 0.33,6.6 0.66,13.2 1,20 -4.64063,0.0309 -4.64063,0.0309 -9.375,0.0625 -0.97373,0.009 -1.94745,0.0182 -2.95068,0.0276 -0.76651,0.002 -1.53302,0.005 -2.32276,0.008 -1.17828,0.008 -1.17828,0.008 -2.38037,0.0159 C 371,370 371,370 369,369 c 0,-5.94 0,-11.88 0,-18 3.14582,-0.16698 6.29165,-0.3336 9.4375,-0.5 0.89783,-0.0477 1.79566,-0.0954 2.7207,-0.14453 0.85401,-0.0451 1.70801,-0.0902 2.58789,-0.13672 0.79076,-0.0419 1.58152,-0.0838 2.39624,-0.12695 C 387.09422,350.04476 388.04695,350 389,350 Z"
     fill="#a45535"
     id="path428" />
  <path
     d="m 293,311 c 6.27,0 12.54,0 19,0 0,6.6 0,13.2 0,20 -6.27,0 -12.54,0 -19,0 0,-6.6 0,-13.2 0,-20 z"
     fill="#261513"
     id="path430" />
  <path
     d="m 697,156 c 6.27,0 12.54,0 19,0 0,6.6 0,13.2 0,20 -6.27,0 -12.54,0 -19,0 0,-6.6 0,-13.2 0,-20 z"
     fill="#7c6a5a"
     id="path432" />
  <path
     d="m 599,137 c 6.27,0 12.54,0 19,0 0,6.6 0,13.2 0,20 -6.27,0 -12.54,0 -19,0 0,-6.6 0,-13.2 0,-20 z"
     fill="#7d6859"
     id="path434" />
  <path
     d="m 676,137 c 6.6,0 13.2,0 20,0 0,6.27 0,12.54 0,19 -6.6,0 -13.2,0 -20,0 0,-6.27 0,-12.54 0,-19 z"
     fill="#7b6759"
     id="path436" />
  <path
     d="m 599,97 c 6.27,0 12.54,0 19,0 0,6.6 0,13.2 0,20 -6.27,0 -12.54,0 -19,0 0,-6.6 0,-13.2 0,-20 z"
     fill="#766355"
     id="path438" />
  <path
     d="m 428,59 c 6.6,0 13.2,0 20,0 0,6.27 0,12.54 0,19 -6.6,0 -13.2,0 -20,0 0,-6.27 0,-12.54 0,-19 z"
     fill="#6a584c"
     id="path440" />
  <path
     d="m 427,737 c 2.94937,-0.0206 5.89875,-0.0412 8.9375,-0.0625 0.93062,-0.009 1.86124,-0.0182 2.82007,-0.0276 0.7284,-0.002 1.4568,-0.005 2.20727,-0.008 0.74887,-0.005 1.49773,-0.0105 2.26929,-0.0159 C 445,737 445,737 446,738 c 0.0865,1.4157 0.10705,2.83559 0.0977,4.25391 -0.002,0.769 -0.005,1.53801 -0.008,2.33032 -0.009,0.98283 -0.0182,1.96566 -0.0276,2.97827 -0.0206,3.11437 -0.0412,6.22875 -0.0625,9.4375 -6.27,0 -12.54,0 -19,0 0,-6.6 0,-13.2 0,-20 z"
     fill="#DC9708"
     id="path442"
     style="fill:#624173;fill-opacity:1" />
  <path
     d="m 468.76587,736.88647 c 0.74886,0.005 1.49773,0.0105 2.26929,0.0159 1.0926,0.004 1.0926,0.004 2.20727,0.008 0.93063,0.009 1.86125,0.0182 2.82007,0.0276 4.42406,0.0309 4.42406,0.0309 8.9375,0.0625 0,6.6 0,13.2 0,20 -6.27,0 -12.54,0 -19,0 -0.0309,-4.67157 -0.0309,-4.67157 -0.0625,-9.4375 -0.009,-0.98283 -0.0182,-1.96566 -0.0276,-2.97828 -0.002,-0.769 -0.005,-1.53801 -0.008,-2.33032 -0.008,-1.18614 -0.008,-1.18614 -0.0159,-2.39624 0.15073,-2.46633 0.40823,-2.81232 2.8794,-2.97119 z"
     fill="#DC9708"
     id="path444"
     style="fill:#b085c0;fill-opacity:1" />
  <path
     d="m 330,1 c 6.6,0 13.2,0 20,0 0,6.27 0,12.54 0,19 -3.11438,0.02062 -6.22875,0.04125 -9.4375,0.0625 -1.47424,0.01366 -1.47424,0.01366 -2.97827,0.02759 -0.76901,0.0025 -1.53801,0.005 -2.33032,0.0076 -0.79076,0.0052 -1.58152,0.01047 -2.39624,0.01587 C 331,20 331,20 330,19 c -0.0863,-1.342674 -0.10706,-2.689743 -0.0977,-4.035156 0.002,-0.728401 0.005,-1.456802 0.008,-2.207276 0.009,-0.930622 0.0182,-1.861245 0.0276,-2.820068 C 329.95812,6.988125 329.97875,4.03875 330,1 Z"
     fill="#7e6b5b"
     id="path446" />
  <path
     d="m 505,20 c 11.88,0 23.76,0 36,0 0,6.27 0,12.54 0,19 -6.27,0 -12.54,0 -19,0 0,-5.94 0,-11.88 0,-18 -5.61,0 -11.22,0 -17,0 0,-0.33 0,-0.66 0,-1 z"
     fill="#8f826e"
     id="path448" />
  <path
     d="m 542,718 c 6.27,0 12.54,0 19,0 0,6.27 0,12.54 0,19 -6.27,0 -12.54,0 -19,0 0,-6.27 0,-12.54 0,-19 z"
     fill="#ada58a"
     id="path450" />
  <path
     d="m 523,699 c 6.27,0 12.54,0 19,0 0,6.27 0,12.54 0,19 -6.27,0 -12.54,0 -19,0 0,-6.27 0,-12.54 0,-19 z"
     fill="#aaa287"
     id="path452" />
  <path
     d="m 542,640 c 6.27,0 12.54,0 19,0 0,6.27 0,12.54 0,19 -6.27,0 -12.54,0 -19,0 0,-6.27 0,-12.54 0,-19 z"
     fill="#556433"
     id="path454" />
  <path
     d="m 561,621 c 6.27,0 12.54,0 19,0 0,6.27 0,12.54 0,19 -6.27,0 -12.54,0 -19,0 0,-6.27 0,-12.54 0,-19 z"
     fill="#5d6b39"
     id="path456" />
  <path
     d="m 428,602 c 6.27,0 12.54,0 19,0 0,6.27 0,12.54 0,19 -6.27,0 -12.54,0 -19,0 0,-6.27 0,-12.54 0,-19 z"
     fill="#994d1b"
     id="path458" />
  <path
     d="m 447,583 c 6.27,0 12.54,0 19,0 0,6.27 0,12.54 0,19 -6.27,0 -12.54,0 -19,0 0,-6.27 0,-12.54 0,-19 z"
     fill="#9a4e1b"
     id="path460" />
  <path
     d="m 466,505 c 6.27,0 12.54,0 19,0 0,6.27 0,12.54 0,19 -6.27,0 -12.54,0 -19,0 0,-6.27 0,-12.54 0,-19 z"
     fill="#6c3317"
     id="path462" />
  <path
     d="m 523,486 c 6.27,0 12.54,0 19,0 0,6.27 0,12.54 0,19 -6.27,0 -12.54,0 -19,0 0,-6.27 0,-12.54 0,-19 z"
     fill="#994d1b"
     id="path464" />
  <path
     d="m 523,408 c 6.27,0 12.54,0 19,0 0,6.27 0,12.54 0,19 -6.27,0 -12.54,0 -19,0 0,-6.27 0,-12.54 0,-19 z"
     fill="#9f501b"
     id="path466" />
  <path
     d="m 350,408 c 6.27,0 12.54,0 19,0 0,6.27 0,12.54 0,19 -6.27,0 -12.54,0 -19,0 0,-6.27 0,-12.54 0,-19 z"
     fill="#9d4f1b"
     id="path468" />
  <path
     d="m 580,311 c 6.27,0 12.54,0 19,0 -0.33,6.6 -0.66,13.2 -1,20 -5.94,0 -11.88,0 -18,0 0,-6.6 0,-13.2 0,-20 z"
     fill="#251412"
     id="path470" />
  <path
     d="m 716,176 c 6.27,0 12.54,0 19,0 0,6.27 0,12.54 0,19 -6.27,0 -12.54,0 -19,0 0,-6.27 0,-12.54 0,-19 z"
     fill="#7a6757"
     id="path472" />
  <path
     d="m 599,157 c 6.27,0 12.54,0 19,0 0,6.27 0,12.54 0,19 -6.27,0 -12.54,0 -19,0 0,-6.27 0,-12.54 0,-19 z"
     fill="#251a14"
     id="path474" />
  <path
     d="m 599,78 c 6.27,0 12.54,0 19,0 0,6.27 0,12.54 0,19 -6.27,0 -12.54,0 -19,0 0,-6.27 0,-12.54 0,-19 z"
     fill="#473528"
     id="path476" />
  <path
     d="m 209,58 c 6.27,0 12.54,0 19,0 0,6.6 0,13.2 0,20 -5.94,0 -11.88,0 -18,0 -0.33,-6.6 -0.66,-13.2 -1,-20 z"
     fill="#48362a"
     id="path478" />
  <path
     d="m 466,39 c 12.54,0 25.08,0 38,0 0,6.27 0,12.54 0,19 6.93,0 13.86,0 21,0 -3.04681,2.031207 -3.60118,2.246599 -7.01172,2.195312 -0.6828,-0.005 -1.3656,-0.01 -2.06909,-0.01514 -0.86021,-0.0182 -1.72042,-0.03641 -2.60669,-0.05517 C 510.56938,60.08375 507.82625,60.0425 505,60 c 0,5.61 0,11.22 0,17 11.88,0 23.76,0 36,0 0,0.33 0,0.66 0,1 -12.54,0 -25.08,0 -38,0 0,-6.27 0,-12.54 0,-19 -1.77214,0.0058 -3.54428,0.0116 -5.37012,0.01758 C 466.0672,59.08347 434.50579,58.795133 402.94431,58.55462 394.86148,58.49308 386.77864,58.433114 378.6958,58.373244 362.13052,58.25051 345.56526,58.125913 329,58 c 0,-0.33 0,-0.66 0,-1 57.09,0 114.18,0 173,0 0,-5.61 0,-11.22 0,-17 -11.88,0 -23.76,0 -36,0 0,-0.33 0,-0.66 0,-1 z"
     fill="#100704"
     id="path480" />
  <path
     d="m 485,1 c 6.27,0 12.54,0 19,0 0,6.27 0,12.54 0,19 -6.27,0 -12.54,0 -19,0 0,-6.27 0,-12.54 0,-19 z"
     fill="#7e6a5a"
     id="path482" />
  <path
     d="m 389,506 c 6.6,0 13.2,0 20,0 0,5.94 0,11.88 0,18 -6.6,0 -13.2,0 -20,0 0,-5.94 0,-11.88 0,-18 z"
     fill="#6c3217"
     id="path484" />
  <path
     d="m 330,428 c 6.6,0 13.2,0 20,0 0,5.94 0,11.88 0,18 -6.6,0 -13.2,0 -20,0 0,-5.94 0,-11.88 0,-18 z"
     fill="#994d1a"
     id="path486" />
  <path
     d="m 389,331 c 6.6,0 13.2,0 20,0 0,5.94 0,11.88 0,18 -6.6,0 -13.2,0 -20,0 0,-5.94 0,-11.88 0,-18 z"
     fill="#a45636"
     id="path488" />
  <path
     d="m 485,311 c 5.94,0 11.88,0 18,0 0,6.6 0,13.2 0,20 -5.94,0 -11.88,0 -18,0 0,-6.6 0,-13.2 0,-20 z"
     fill="#241411"
     id="path490" />
  <path
     d="m 581,117 c 5.94,0 11.88,0 18,0 0,6.6 0,13.2 0,20 -5.94,0 -11.88,0 -18,0 0,-6.6 0,-13.2 0,-20 z"
     fill="#796456"
     id="path492" />
  <path
     d="m 658,97 c 5.94,0 11.88,0 18,0 0,6.6 0,13.2 0,20 -5.94,0 -11.88,0 -18,0 0,-6.6 0,-13.2 0,-20 z"
     fill="#463528"
     id="path494" />
  <path
     d="m 639,97 c 5.94,0 11.88,0 18,0 0,6.6 0,13.2 0,20 -5.94,0 -11.88,0 -18,0 0,-6.6 0,-13.2 0,-20 z"
     fill="#8f816e"
     id="path496" />
  <path
     d="m 504,679 c 5.94,0 11.88,0 18,0 0,6.27 0,12.54 0,19 -6.00645,1.50161 -11.81426,1.05727 -18,1 0,-6.6 0,-13.2 0,-20 z"
     fill="#aba389"
     id="path498" />
  <path
     d="m 466,312 c 5.94,0 11.88,0 18,0 0.33,6.27 0.66,12.54 1,19 -2.57813,0.0206 -5.15625,0.0412 -7.8125,0.0625 -1.212,0.0137 -1.212,0.0137 -2.44849,0.0276 -3.18283,0.0124 -5.69957,-0.0769 -8.73901,-1.09009 0,-5.94 0,-11.88 0,-18 z"
     fill="#d18962"
     id="path500" />
  <path
     d="m 580,58 c 0,6.6 0,13.2 0,20 -6.27,0 -12.54,0 -19,0 0.33,-6.27 0.66,-12.54 1,-19 4.17656,-0.2475 4.17656,-0.2475 8.4375,-0.5 0.87842,-0.05221 1.75683,-0.104414 2.66187,-0.158203 C 578.88889,58 578.88889,58 580,58 Z"
     fill="#91836f"
     id="path502" />
  <path
     d="m 542,39 c 5.94,0 11.88,0 18,0 0,6.27 0,12.54 0,19 -5.94,0.33 -11.88,0.66 -18,1 0,-6.6 0,-13.2 0,-20 z"
     fill="#90836f"
     id="path504" />
  <path
     d="m 485,777 c 5.94,0 11.88,0 18,0 0,6.27 0,12.54 0,19 -5.94,0 -11.88,0 -18,0 0,-6.27 0,-12.54 0,-19 z"
     fill="#dfdac1"
     id="path506" />
  <path
     d="m 312,699 c 5.94,0 11.88,0 18,0 0,6.27 0,12.54 0,19 -5.94,0 -11.88,0 -18,0 0,-6.27 0,-12.54 0,-19 z"
     fill="#556331"
     id="path508" />
  <path
     d="m 485,660 c 5.94,0 11.88,0 18,0 0,6.27 0,12.54 0,19 -5.94,0 -11.88,0 -18,0 0,-6.27 0,-12.54 0,-19 z"
     fill="#ada48b"
     id="path510" />
  <path
     d="m 190,118 c 5.94,0 11.88,0 18,0 0,6.27 0,12.54 0,19 -5.94,0 -11.88,0 -18,0 0,-6.27 0,-12.54 0,-19 z"
     fill="#7c685a"
     id="path512" />
  <path
     d="m 658,117 c 5.94,0 11.88,0 18,0 0,6.27 0,12.54 0,19 -5.94,0 -11.88,0 -18,0 0,-6.27 0,-12.54 0,-19 z"
     fill="#766355"
     id="path514" />
  <path
     d="m 581,78 c 5.94,0 11.88,0 18,0 0,6.27 0,12.54 0,19 -5.94,0 -11.88,0 -18,0 0,-6.27 0,-12.54 0,-19 z"
     fill="#928470"
     id="path516" />
  <path
     d="m 504,39 c 5.94,0 11.88,0 18,0 0,6.27 0,12.54 0,19 -5.94,0 -11.88,0 -18,0 0,-6.27 0,-12.54 0,-19 z"
     fill="#938672"
     id="path518" />
  <path
     d="m 292,79 c 6.6,0.33 13.2,0.66 20,1 0,5.61 0,11.22 0,17 -6.6,0 -13.2,0 -20,0 0,-5.94 0,-11.88 0,-18 z"
     fill="#49362a"
     id="path520" />
  <path
     d="m 486,254 c 5.94,0 11.88,0 18,0 0.0206,2.76375 0.0412,5.5275 0.0625,8.375 0.009,0.86931 0.0182,1.73862 0.0276,2.63428 0.021,5.7685 0.021,5.7685 -1.09009,7.99072 -5.61,0 -11.22,0 -17,0 0,-6.27 0,-12.54 0,-19 z"
     fill="#291713"
     id="path522" />
  <path
     d="m 228,79 c 0.99,0.495 0.99,0.495 2,1 1.37548,0.08309 2.75486,0.10736 4.13281,0.09766 0.80567,-0.0032 1.61133,-0.0065 2.44141,-0.0098 0.84176,-0.0084 1.68351,-0.01675 2.55078,-0.02539 1.27424,-0.0068 1.27424,-0.0068 2.57422,-0.01367 2.10029,-0.0118 4.20054,-0.02974 6.30078,-0.04883 0,5.61 0,11.22 0,17 -6.6,0 -13.2,0 -20,0 0,-5.94 0,-11.88 0,-18 z"
     fill="#4a382b"
     id="path524" />
  <path
     d="m 522,39 c 5.94,0.33 11.88,0.66 18,1 0,5.94 0,11.88 0,18 -5.94,0 -11.88,0 -18,0 0,-6.27 0,-12.54 0,-19 z"
     fill="#48362a"
     id="path526" />
  <path
     d="m 697,117 c 5.94,0 11.88,0 18,0 0,5.94 0,11.88 0,18 -5.94,0 -11.88,0 -18,0 0,-5.94 0,-11.88 0,-18 z"
     fill="#796657"
     id="path528" />
  <path
     d="m 542,60 c 5.94,0 11.88,0 18,0 0,5.94 0,11.88 0,18 -5.94,0 -11.88,0 -18,0 0,-5.94 0,-11.88 0,-18 z"
     fill="#4a382b"
     id="path530" />
  <path
     d="m 312,388 c 5.61,0 11.22,0 17,0 0,6.27 0,12.54 0,19 -5.61,0 -11.22,0 -17,0 0,-6.27 0,-12.54 0,-19 z"
     fill="#d38d66"
     id="path532" />
  <path
     d="m 486,80 c 6.27,0 12.54,0 19,0 0,5.61 0,11.22 0,17 -6.27,0 -12.54,0 -19,0 0,-5.61 0,-11.22 0,-17 z"
     fill="#49372b"
     id="path534" />
  <path
     d="m 485,333 c 5.94,0 11.88,0 18,0 0,5.61 0,11.22 0,17 -6.33548,1.26709 -11.56844,0.58469 -18,0 0,-5.61 0,-11.22 0,-17 z"
     fill="#d08861"
     id="path536" />
  <path
     d="m 543,369 c 5.61,0 11.22,0 17,0 0,5.94 0,11.88 0,18 -5.61,0 -11.22,0 -17,0 0,-5.94 0,-11.88 0,-18 z"
     fill="#d38c66"
     id="path538" />
  <path
     d="m 390,233 c 5.28,0 10.56,0 16,0 0,6.27 0,12.54 0,19 -5.28,0 -10.56,0 -16,0 0,-6.27 0,-12.54 0,-19 z"
     fill="#b97455"
     id="path540" />
  <path
     d="m 449,22 c 5.28,0 10.56,0 16,0 0,5.61 0,11.22 0,17 -5.28,0 -10.56,0 -16,0 0,-5.61 0,-11.22 0,-17 z"
     fill="#49382b"
     id="path542" />
  <path
     d="m 504,117 c 0.33,0 0.66,0 1,0 0,5.94 0,11.88 0,18 1.72146,-0.005 3.44292,-0.0105 5.21655,-0.0159 5.67575,-0.0161 11.3515,-0.0276 17.02727,-0.0359 3.44258,-0.005 6.88514,-0.0123 10.32771,-0.0236 3.95402,-0.0129 7.90803,-0.0178 11.86206,-0.0222 1.86247,-0.008 1.86247,-0.008 3.76256,-0.0156 1.14111,-8e-5 2.28222,-1.5e-4 3.4579,-2.3e-4 1.01038,-0.002 2.02076,-0.004 3.06176,-0.007 C 562,135 562,135 563,136 c 0.0867,1.48872 0.10703,2.98144 0.0977,4.47266 -0.003,0.80961 -0.005,1.61922 -0.008,2.45336 -0.009,1.03504 -0.0182,2.07008 -0.0276,3.13648 -0.0206,3.27938 -0.0412,6.55875 -0.0625,9.9375 11.22,0 22.44,0 34,0 0,-5.94 0,-11.88 0,-18 -5.61,0 -11.22,0 -17,0 0,-0.33 0,-0.66 0,-1 6.27,0 12.54,0 19,0 0,6.6 0,13.2 0,20 -12.54,0 -25.08,0 -38,0 0,-6.6 0,-13.2 0,-20 -18.81,0 -37.62,0 -57,0 0,-6.6 0,-13.2 0,-20 z"
     fill="#19120e"
     id="path544" />
  <path
     d="m 312,233 c 4.05699,-0.046 8.1133,-0.0858 12.17041,-0.10986 1.37926,-0.01 2.75851,-0.0237 4.13769,-0.041 1.98575,-0.0243 3.97165,-0.0345 5.95752,-0.0444 1.791,-0.0157 1.791,-0.0157 3.61817,-0.0317 2.97419,0.2167 4.61939,0.66519 7.11621,2.22705 -9.97973,1.33063 -19.95348,1.08779 -30,1 0,4.95 0,9.9 0,15 36.63,0.495 36.63,0.495 74,1 0,0.33 0,0.66 0,1 -25.41,0 -50.82,0 -77,0 0,-6.6 0,-13.2 0,-20 z"
     fill="#3c241c"
     id="path548" />
  <path
     d="m 331,660 c 12.87,0 25.74,0 39,0 0,6.27 0,12.54 0,19 -6.6,0 -13.2,0 -20,0 0,6.6 0,13.2 0,20 -6.27,0 -12.54,0 -19,0 0,-12.87 0,-25.74 0,-39 z m 1,1 c 0,12.21 0,24.42 0,37 8.415,-0.495 8.415,-0.495 17,-1 0.33,-5.94 0.66,-11.88 1,-18 5.94,-0.33 11.88,-0.66 18,-1 0,-5.28 0,-10.56 0,-16 -11.88,-0.33 -23.76,-0.66 -36,-1 z"
     fill="#465521"
     id="path550" />
  <path
     d="m 369,969 c 12.87,0 25.74,0 39,0 0,6.6 0,13.2 0,20 -12.87,0 -25.74,0 -39,0 0,-6.6 0,-13.2 0,-20 z m 2,2 c 0,5.28 0,10.56 0,16 11.88,0 23.76,0 36,0 0,-5.28 0,-10.56 0,-16 -11.88,0 -23.76,0 -36,0 z"
     fill="#566331"
     id="path552" />
  <path
     d="m 447,931 c 6.27,0 12.54,0 19,0 0,6.6 0,13.2 0,20 -12.54,0 -25.08,0 -38,0 0,5.94 0,11.88 0,18 -6.27,0 -12.54,0 -19,0 0,-6.27 0,-12.54 0,-19 0.33,0 0.66,0 1,0 0,5.94 0,11.88 0,18 5.28,0 10.56,0 16,0 -0.0232,-1.20398 -0.0464,-2.40797 -0.0703,-3.64844 -0.0188,-1.57551 -0.037,-3.15103 -0.0547,-4.72656 -0.0168,-0.79406 -0.0335,-1.58813 -0.0508,-2.40625 -0.0176,-2.07367 0.0724,-4.14758 0.17578,-6.21875 2,-2 2,-2 5.53174,-2.22705 1.51289,3.2e-4 3.02581,0.0116 4.53857,0.0317 0.79623,0.003 1.59246,0.006 2.41281,0.009 2.54745,0.0112 5.09454,0.0363 7.64188,0.0617 1.72526,0.01 3.45052,0.0192 5.17578,0.0273 4.23332,0.0204 8.46588,0.0595 12.69922,0.0976 0,-5.61 0,-11.22 0,-17 -5.61,0 -11.22,0 -17,0 0,-0.33 0,-0.66 0,-1 z"
     fill="#4c5b26"
     id="path554" />
  <path
     d="m 447,874 c 6.27,0 12.54,0 19,0 -0.33,10.56 -0.66,21.12 -1,32 -0.33,0 -0.66,0 -1,0 0,-9.9 0,-19.8 0,-30 -4.29,0 -8.58,0 -13,0 -0.99,-0.33 -1.98,-0.66 -3,-1 0.33,17.82 0.66,35.64 1,54 4.95,0 9.9,0 15,0 0,-5.94 0,-11.88 0,-18 0.66,0 1.32,0 2,0 0,6.6 0,13.2 0,20 -6.27,0 -12.54,0 -19,0 0,-18.81 0,-37.62 0,-57 z"
     fill="#e6e2cf"
     id="path556" />
  <path
     d="m 297.4375,308.86719 c 0.89461,-10e-4 1.78922,-0.003 2.71094,-0.004 0.94101,0.004 1.88203,0.008 2.85156,0.0117 1.41152,-0.006 1.41152,-0.006 2.85156,-0.0117 1.34192,0.002 1.34192,0.002 2.71094,0.004 0.82629,0.001 1.65258,0.002 2.50391,0.003 C 313,309 313,309 314,310 c 0,6.6 0,13.2 0,20 24.75,0 49.5,0 75,0 0,0.33 0,0.66 0,1 -25.41,0 -50.82,0 -77,0 0,-6.6 0,-13.2 0,-20 -6.27,0 -12.54,0 -19,0 0,6.6 0,13.2 0,20 -0.33,0 -0.66,0 -1,0 -0.0289,-3.47915 -0.0468,-6.95827 -0.0625,-10.4375 -0.008,-0.99322 -0.0168,-1.98644 -0.0254,-3.00976 -0.003,-0.94424 -0.006,-1.88848 -0.01,-2.86133 -0.005,-0.87455 -0.0105,-1.7491 -0.0159,-2.65015 0.21275,-3.82522 2.21806,-3.16952 5.55103,-3.17407 z"
     fill="#f2ce96"
     id="path558" />
  <path
     d="m 541,98 c 12.87,0 25.74,0 39,0 0,5.94 0,11.88 0,18 -0.33,0 -0.66,0 -1,0 0,-5.61 0,-11.22 0,-17 -11.88,0 -23.76,0 -36,0 0,5.28 0,10.56 0,16 8.25,0 16.5,0 25,0 -0.33,0.66 -0.66,1.32 -1,2 -8.58,0 -17.16,0 -26,0 0,-6.27 0,-12.54 0,-19 z"
     fill="#826d5e"
     id="path560" />
  <path
     d="m 485,292 c 24.75,0 49.5,0 75,0 0,0.33 0,0.66 0,1 -24.09,0 -48.18,0 -73,0 0,5.28 0,10.56 0,16 5.61,0 11.22,0 17,0 0,0.33 0,0.66 0,1 -9.405,0.495 -9.405,0.495 -19,1 0,-6.27 0,-12.54 0,-19 z"
     fill="#f9cf97"
     id="path562" />
  <path
     d="m 561,621 c 6.27,0 12.54,0 19,0 0,6.27 0,12.54 0,19 -6.27,0 -12.54,0 -19,0 0,-6.27 0,-12.54 0,-19 z m 2,2 c 0,4.95 0,9.9 0,15 5.28,0 10.56,0 16,0 0,-4.95 0,-9.9 0,-15 -5.28,0 -10.56,0 -16,0 z"
     fill="#485e35"
     id="path564" />
  <path
     d="m 390,59 c 12.54,0 25.08,0 38,0 0,6.27 0,12.54 0,19 -12.54,0 -25.08,0 -38,0 0,-0.33 0,-0.66 0,-1 11.88,-0.33 23.76,-0.66 36,-1 0,-5.28 0,-10.56 0,-16 -11.88,0 -23.76,0 -36,0 0,-0.33 0,-0.66 0,-1 z"
     fill="#a69982"
     id="path566" />
  <path
     d="m 410,717 c 12.21,0 24.42,0 37,0 0,6.93 0,13.86 0,21 -0.66,0 -1.32,0 -2,0 0,-6.27 0,-12.54 0,-19 -11.55,0 -23.1,0 -35,0 0,-0.66 0,-1.32 0,-2 z"
     fill="#F0B51F"
     id="path568"
     style="fill:#624173;fill-opacity:1" />
  <path
     d="m 506.04126,57.886475 c 0.87455,0.0052 1.7491,0.01047 2.65015,0.01587 0.94423,0.0032 1.88847,0.0064 2.86132,0.0098 0.99323,0.0084 1.98645,0.01676 3.00977,0.02539 0.99709,0.0045 1.99418,0.009 3.02148,0.01367 2.47207,0.01183 4.94401,0.02831 7.41602,0.04883 -3.04681,2.031207 -3.60118,2.246599 -7.01172,2.195313 -0.6828,-0.005 -1.3656,-0.01 -2.06909,-0.01514 -0.86021,-0.01821 -1.72042,-0.03642 -2.60669,-0.05518 -4.11469,-0.06188 -4.11469,-0.06188 -8.3125,-0.125 0,5.61 0,11.219999 0,16.999999 11.88,0 23.76,0 36,0 0,0.33 0,0.66 0,1 -12.54,0 -25.08,0 -38,0 0,-19.944383 0,-19.944383 3.04126,-20.113524 z"
     fill="#1c110d"
     id="path570" />
  <path
     d="m 312,253 c 0.99,0.33 1.98,0.66 3,1 -0.1382,3.31287 -0.28684,6.62518 -0.4375,9.9375 -0.0393,0.94553 -0.0786,1.89105 -0.11914,2.86523 -0.0419,0.89913 -0.0838,1.79825 -0.12695,2.72461 -0.0367,0.83266 -0.0733,1.66531 -0.11109,2.5232 C 314,274 314,274 313,275 c -2.06048,0.10022 -4.12458,0.12966 -6.1875,0.125 -1.12793,0.003 -2.25586,0.005 -3.41797,0.008 C 300,275 300,275 294,274 c 0,11.22 0,22.44 0,34 -0.33,0 -0.66,0 -1,0 0,-11.55 0,-23.1 0,-35 6.27,0 12.54,0 19,0 0,-6.6 0,-13.2 0,-20 z"
     fill="#f6bc8b"
     id="path572" />
  <path
     d="m 466,911 c 6.27,0 12.54,0 19,0 0,6.6 0,13.2 0,20 -6.27,0 -12.54,0 -19,0 0,-6.6 0,-13.2 0,-20 z m 1,1 c 0,5.61 0,11.22 0,17 5.28,0 10.56,0 16,0 0,-5.61 0,-11.22 0,-17 -5.28,0 -10.56,0 -16,0 z"
     fill="#46582b"
     id="path574" />
  <path
     d="m 330,389 c 6.27,0 12.54,0 19,0 0,0.33 0,0.66 0,1 -5.94,0 -11.88,0 -18,0 0,6.27 0,12.54 0,19 -4.06177,0.81236 -7.2335,1.10732 -11.3125,1.0625 -1.87687,-0.0206 -3.75375,-0.0412 -5.6875,-0.0625 0,5.28 0,10.56 0,16 -0.66,-0.33 -1.32,-0.66 -2,-1 0,-5.61 0,-11.22 0,-17 5.94,0 11.88,0 18,0 0,-6.27 0,-12.54 0,-19 z"
     fill="#5a2208"
     id="path576" />
  <path
     d="m 408,969 c 6.27,0.33 12.54,0.66 19,1 0,0.33 0,0.66 0,1 -5.61,0 -11.22,0 -17,0 0.0116,1.28777 0.0232,2.57555 0.0352,3.90234 0.009,1.67839 0.0185,3.35677 0.0273,5.03516 0.008,0.85014 0.0168,1.70027 0.0254,2.57617 0.003,0.80889 0.006,1.61777 0.01,2.45117 0.005,0.74887 0.0105,1.49773 0.0159,2.26929 C 410,989 410,989 409,990 c -2.95705,0.0887 -5.89065,0.1152 -8.84766,0.0977 -1.32964,-0.002 -1.32964,-0.002 -2.68614,-0.004 -2.84293,-0.006 -5.68579,-0.0182 -8.5287,-0.0309 -1.92253,-0.005 -3.84505,-0.01 -5.76758,-0.0137 C 378.44659,990.03778 373.7233,990.0205 369,990 c 0,-0.33 0,-0.66 0,-1 12.87,0 25.74,0 39,0 0,-6.6 0,-13.2 0,-20 z"
     fill="#f3eeda"
     id="path578" />
  <path
     d="m 619,620 c 0.33,0 0.66,0 1,0 0,12.54 0,25.08 0,38 5.61,0 11.22,0 17,0 0,-6.6 0,-13.2 0,-20 0.33,0 0.66,0 1,0 0,7.26 0,14.52 0,22 -6.6,0 -13.2,0 -20,0 0.33,-13.2 0.66,-26.4 1,-40 z"
     fill="#daddcc"
     id="path580" />
  <path
     d="m 409,698 c 12.71922,-0.0956 25.30717,0.20403 38,1 0,0.33 0,0.66 0,1 -11.88,0 -23.76,0 -36,0 0,5.28 0,10.56 0,16 -0.66,0 -1.32,0 -2,0 0,-5.94 0,-11.88 0,-18 z"
     fill="#4b5b28"
     id="path582" />
  <path
     d="m 484,446 c 0.33,0 0.66,0 1,0 0,6.6 0,13.2 0,20 -8.91,0 -17.82,0 -27,0 0,-0.33 0,-0.66 0,-1 12.375,-0.495 12.375,-0.495 25,-1 0,-3.96 0,-7.92 0,-12 0.5,-3.75 0.5,-3.75 1,-6 z"
     fill="#e6cfa6"
     id="path584" />
  <path
     d="m 522,679 c 0.33,0 0.66,0 1,0 0,6.27 0,12.54 0,19 6.27,0 12.54,0 19,0 0,0.33 0,0.66 0,1 -6.27,0 -12.54,0 -19,0 0,6.27 0,12.54 0,19 -0.33,0 -0.66,0 -1,0 0,-6.27 0,-12.54 0,-19 -1.32,-0.33 -2.64,-0.66 -4,-1 1.32,0 2.64,0 4,0 0,-6.27 0,-12.54 0,-19 z"
     fill="#cac3a7"
     id="path586" />
</svg>
