<?xml version="1.0" encoding="UTF-8"?>
<svg width="400px" height="400px" viewBox="0 0 400 400" version="1.1" xmlns="http://www.w3.org/2000/svg" xmlns:xlink="http://www.w3.org/1999/xlink">
    <title>pixel-jonny</title>
    <g id="pixel-jonny" stroke="none" stroke-width="1" fill="none" fill-rule="evenodd">
        <circle id="Background" fill="#4267B2" cx="200" cy="200" r="200"></circle>
        <circle id="Face-Background" fill="#FFFFFF" cx="200" cy="200" r="150"></circle>
        <g id="Person" transform="translate(100.000000, 100.000000)">
            <!-- Hat -->
            <rect id="Hat" fill="#594A3C" x="40" y="10" width="120" height="30"></rect>
            <rect id="Hat-Brim" fill="#3F3326" x="30" y="40" width="140" height="10"></rect>
            
            <!-- Face elements -->
            <rect id="Face" fill="#F4CDAF" x="55" y="50" width="90" height="100"></rect>
            
            <!-- Glasses -->
            <rect id="Glasses-Left" fill="#333333" x="60" y="70" width="25" height="20"></rect>
            <rect id="Glasses-Right" fill="#333333" x="115" y="70" width="25" height="20"></rect>
            <rect id="Glasses-Bridge" fill="#333333" x="85" y="75" width="30" height="5"></rect>
            
            <!-- Eyes (closed, smiling) -->
            <rect id="Eye-Left" fill="#3F2417" x="65" y="80" width="15" height="2"></rect>
            <rect id="Eye-Right" fill="#3F2417" x="120" y="80" width="15" height="2"></rect>
            
            <!-- Beard -->
            <rect id="Beard" fill="#6D4C2F" x="60" y="95" width="80" height="60"></rect>
            <rect id="Beard-Trim" fill="#5B3F23" x="60" y="145" width="80" height="10"></rect>
            <rect id="Beard-Side1" fill="#5B3F23" x="55" y="100" width="5" height="50"></rect>
            <rect id="Beard-Side2" fill="#5B3F23" x="140" y="100" width="5" height="50"></rect>
            
            <!-- Mouth (smile) -->
            <rect id="Mouth" fill="#F8F8F8" x="85" y="125" width="30" height="5"></rect>
            
            <!-- Shirt -->
            <rect id="Shirt" fill="#5F7D9A" x="45" y="155" width="110" height="45"></rect>
            
            <!-- Floral Pattern on Shirt -->
            <circle id="Flower1" fill="#8E5BB9" cx="75" cy="170" r="8"></circle>
            <circle id="Flower2" fill="#8E5BB9" cx="100" cy="180" r="8"></circle>
            <circle id="Flower3" fill="#8E5BB9" cx="120" cy="165" r="8"></circle>
            
            <!-- Flower Stems -->
            <rect id="Stem1" fill="#4CA64C" x="75" y="178" width="2" height="15"></rect>
            <rect id="Stem2" fill="#4CA64C" x="100" y="188" width="2" height="10"></rect>
            <rect id="Stem3" fill="#4CA64C" x="120" y="173" width="2" height="20"></rect>
        </g>
    </g>
</svg>
